solid ASCII
  facet normal 0.000000e+00 -1.000000e+00 0.000000e+00
    outer loop
      vertex   -1.000000e+01 1.100000e+02 5.000000e+00
      vertex   -1.000000e+01 1.100000e+02 0.000000e+00
      vertex   1.500000e+02 1.100000e+02 5.000000e+00
    endloop
  endfacet
  facet normal 0.000000e+00 -1.000000e+00 -0.000000e+00
    outer loop
      vertex   1.500000e+02 1.100000e+02 5.000000e+00
      vertex   -1.000000e+01 1.100000e+02 0.000000e+00
      vertex   1.500000e+02 1.100000e+02 0.000000e+00
    endloop
  endfacet
  facet normal -1.000000e+00 0.000000e+00 0.000000e+00
    outer loop
      vertex   -1.000000e+01 1.100000e+02 0.000000e+00
      vertex   -1.000000e+01 1.100000e+02 5.000000e+00
      vertex   -1.000000e+01 1.800000e+02 0.000000e+00
    endloop
  endfacet
  facet normal -1.000000e+00 0.000000e+00 0.000000e+00
    outer loop
      vertex   -1.000000e+01 1.800000e+02 0.000000e+00
      vertex   -1.000000e+01 1.100000e+02 5.000000e+00
      vertex   -1.000000e+01 1.800000e+02 5.000000e+00
    endloop
  endfacet
  facet normal 0.000000e+00 0.000000e+00 1.000000e+00
    outer loop
      vertex   -1.000000e+01 1.100000e+02 5.000000e+00
      vertex   1.500000e+02 1.100000e+02 5.000000e+00
      vertex   -1.000000e+01 1.800000e+02 5.000000e+00
    endloop
  endfacet
  facet normal -0.000000e+00 0.000000e+00 1.000000e+00
    outer loop
      vertex   -1.000000e+01 1.800000e+02 5.000000e+00
      vertex   1.500000e+02 1.100000e+02 5.000000e+00
      vertex   1.500000e+02 1.800000e+02 5.000000e+00
    endloop
  endfacet
  facet normal -0.000000e+00 1.000000e+00 0.000000e+00
    outer loop
      vertex   -1.000000e+01 1.800000e+02 5.000000e+00
      vertex   1.500000e+02 1.800000e+02 5.000000e+00
      vertex   -1.000000e+01 1.800000e+02 0.000000e+00
    endloop
  endfacet
  facet normal 0.000000e+00 1.000000e+00 0.000000e+00
    outer loop
      vertex   -1.000000e+01 1.800000e+02 0.000000e+00
      vertex   1.500000e+02 1.800000e+02 5.000000e+00
      vertex   1.500000e+02 1.800000e+02 0.000000e+00
    endloop
  endfacet
  facet normal 1.000000e+00 0.000000e+00 0.000000e+00
    outer loop
      vertex   1.500000e+02 1.100000e+02 0.000000e+00
      vertex   1.500000e+02 1.800000e+02 0.000000e+00
      vertex   1.500000e+02 1.100000e+02 5.000000e+00
    endloop
  endfacet
  facet normal 1.000000e+00 -0.000000e+00 0.000000e+00
    outer loop
      vertex   1.500000e+02 1.100000e+02 5.000000e+00
      vertex   1.500000e+02 1.800000e+02 0.000000e+00
      vertex   1.500000e+02 1.800000e+02 5.000000e+00
    endloop
  endfacet
  facet normal 0.000000e+00 0.000000e+00 -1.000000e+00
    outer loop
      vertex   1.500000e+02 1.100000e+02 0.000000e+00
      vertex   -1.000000e+01 1.100000e+02 0.000000e+00
      vertex   1.500000e+02 1.800000e+02 0.000000e+00
    endloop
  endfacet
  facet normal -0.000000e+00 0.000000e+00 -1.000000e+00
    outer loop
      vertex   1.500000e+02 1.800000e+02 0.000000e+00
      vertex   -1.000000e+01 1.100000e+02 0.000000e+00
      vertex   -1.000000e+01 1.800000e+02 0.000000e+00
    endloop
  endfacet
endsolid
