%TF.GenerationSoftware,KiCad,Pcbnew,7.0.1*%
%TF.CreationDate,2023-11-07T12:51:37-05:00*%
%TF.ProjectId,PCB,5043422e-6b69-4636-9164-5f7063625858,rev?*%
%TF.SameCoordinates,Original*%
%TF.FileFunction,Drillmap*%
%TF.FilePolarity,Positive*%
%FSLAX45Y45*%
G04 Gerber Fmt 4.5, Leading zero omitted, Abs format (unit mm)*
G04 Created by KiCad (PCBNEW 7.0.1) date 2023-11-07 12:51:37*
%MOMM*%
%LPD*%
G01*
G04 APERTURE LIST*
%ADD10C,0.100000*%
%ADD11C,0.200000*%
G04 APERTURE END LIST*
D10*
X12192000Y-12954000D02*
X12192000Y-6604000D01*
X12192000Y-6604000D02*
X18034000Y-6604000D01*
X18034000Y-6604000D02*
X18034000Y-12954000D01*
X18034000Y-12954000D02*
X12192000Y-12954000D01*
D11*
X12434619Y-13271524D02*
X12434619Y-13071524D01*
X12434619Y-13071524D02*
X12482238Y-13071524D01*
X12482238Y-13071524D02*
X12510809Y-13081048D01*
X12510809Y-13081048D02*
X12529857Y-13100095D01*
X12529857Y-13100095D02*
X12539381Y-13119143D01*
X12539381Y-13119143D02*
X12548905Y-13157238D01*
X12548905Y-13157238D02*
X12548905Y-13185809D01*
X12548905Y-13185809D02*
X12539381Y-13223905D01*
X12539381Y-13223905D02*
X12529857Y-13242952D01*
X12529857Y-13242952D02*
X12510809Y-13262000D01*
X12510809Y-13262000D02*
X12482238Y-13271524D01*
X12482238Y-13271524D02*
X12434619Y-13271524D01*
X12634619Y-13271524D02*
X12634619Y-13138190D01*
X12634619Y-13176286D02*
X12644143Y-13157238D01*
X12644143Y-13157238D02*
X12653667Y-13147714D01*
X12653667Y-13147714D02*
X12672714Y-13138190D01*
X12672714Y-13138190D02*
X12691762Y-13138190D01*
X12758428Y-13271524D02*
X12758428Y-13138190D01*
X12758428Y-13071524D02*
X12748905Y-13081048D01*
X12748905Y-13081048D02*
X12758428Y-13090571D01*
X12758428Y-13090571D02*
X12767952Y-13081048D01*
X12767952Y-13081048D02*
X12758428Y-13071524D01*
X12758428Y-13071524D02*
X12758428Y-13090571D01*
X12882238Y-13271524D02*
X12863190Y-13262000D01*
X12863190Y-13262000D02*
X12853667Y-13242952D01*
X12853667Y-13242952D02*
X12853667Y-13071524D01*
X12987000Y-13271524D02*
X12967952Y-13262000D01*
X12967952Y-13262000D02*
X12958428Y-13242952D01*
X12958428Y-13242952D02*
X12958428Y-13071524D01*
X13215571Y-13271524D02*
X13215571Y-13071524D01*
X13215571Y-13071524D02*
X13282238Y-13214381D01*
X13282238Y-13214381D02*
X13348905Y-13071524D01*
X13348905Y-13071524D02*
X13348905Y-13271524D01*
X13529857Y-13271524D02*
X13529857Y-13166762D01*
X13529857Y-13166762D02*
X13520333Y-13147714D01*
X13520333Y-13147714D02*
X13501286Y-13138190D01*
X13501286Y-13138190D02*
X13463190Y-13138190D01*
X13463190Y-13138190D02*
X13444143Y-13147714D01*
X13529857Y-13262000D02*
X13510809Y-13271524D01*
X13510809Y-13271524D02*
X13463190Y-13271524D01*
X13463190Y-13271524D02*
X13444143Y-13262000D01*
X13444143Y-13262000D02*
X13434619Y-13242952D01*
X13434619Y-13242952D02*
X13434619Y-13223905D01*
X13434619Y-13223905D02*
X13444143Y-13204857D01*
X13444143Y-13204857D02*
X13463190Y-13195333D01*
X13463190Y-13195333D02*
X13510809Y-13195333D01*
X13510809Y-13195333D02*
X13529857Y-13185809D01*
X13625095Y-13138190D02*
X13625095Y-13338190D01*
X13625095Y-13147714D02*
X13644143Y-13138190D01*
X13644143Y-13138190D02*
X13682238Y-13138190D01*
X13682238Y-13138190D02*
X13701286Y-13147714D01*
X13701286Y-13147714D02*
X13710809Y-13157238D01*
X13710809Y-13157238D02*
X13720333Y-13176286D01*
X13720333Y-13176286D02*
X13720333Y-13233428D01*
X13720333Y-13233428D02*
X13710809Y-13252476D01*
X13710809Y-13252476D02*
X13701286Y-13262000D01*
X13701286Y-13262000D02*
X13682238Y-13271524D01*
X13682238Y-13271524D02*
X13644143Y-13271524D01*
X13644143Y-13271524D02*
X13625095Y-13262000D01*
X13806048Y-13252476D02*
X13815571Y-13262000D01*
X13815571Y-13262000D02*
X13806048Y-13271524D01*
X13806048Y-13271524D02*
X13796524Y-13262000D01*
X13796524Y-13262000D02*
X13806048Y-13252476D01*
X13806048Y-13252476D02*
X13806048Y-13271524D01*
X13806048Y-13147714D02*
X13815571Y-13157238D01*
X13815571Y-13157238D02*
X13806048Y-13166762D01*
X13806048Y-13166762D02*
X13796524Y-13157238D01*
X13796524Y-13157238D02*
X13806048Y-13147714D01*
X13806048Y-13147714D02*
X13806048Y-13166762D01*
M02*
