%TF.GenerationSoftware,KiCad,Pcbnew,7.0.1*%
%TF.CreationDate,2023-11-07T12:51:36-05:00*%
%TF.ProjectId,PCB,5043422e-6b69-4636-9164-5f7063625858,rev?*%
%TF.SameCoordinates,Original*%
%TF.FileFunction,Drillmap*%
%TF.FilePolarity,Positive*%
%FSLAX45Y45*%
G04 Gerber Fmt 4.5, Leading zero omitted, Abs format (unit mm)*
G04 Created by KiCad (PCBNEW 7.0.1) date 2023-11-07 12:51:36*
%MOMM*%
%LPD*%
G01*
G04 APERTURE LIST*
%ADD10C,0.100000*%
%ADD11C,0.200000*%
%ADD12C,0.070000*%
%ADD13C,0.075000*%
%ADD14C,0.076200*%
%ADD15C,0.080000*%
%ADD16C,0.102000*%
G04 APERTURE END LIST*
D10*
X12192000Y-12954000D02*
X12192000Y-6604000D01*
X12192000Y-6604000D02*
X18034000Y-6604000D01*
X18034000Y-6604000D02*
X18034000Y-12954000D01*
X18034000Y-12954000D02*
X12192000Y-12954000D01*
D11*
D12*
X12919000Y-10633000D02*
X12989000Y-10703000D01*
X12989000Y-10633000D02*
X12919000Y-10703000D01*
X12919000Y-11141000D02*
X12989000Y-11211000D01*
X12989000Y-11141000D02*
X12919000Y-11211000D01*
D13*
X12991500Y-9652000D02*
G75*
G03*
X12991500Y-9652000I-37500J0D01*
G01*
X12991500Y-9779000D02*
G75*
G03*
X12991500Y-9779000I-37500J0D01*
G01*
X12991500Y-9906000D02*
G75*
G03*
X12991500Y-9906000I-37500J0D01*
G01*
D14*
X13462000Y-7835900D02*
X13462000Y-7912100D01*
X13423900Y-7874000D02*
X13500100Y-7874000D01*
X13462000Y-8089900D02*
X13462000Y-8166100D01*
X13423900Y-8128000D02*
X13500100Y-8128000D01*
X13462000Y-8343900D02*
X13462000Y-8420100D01*
X13423900Y-8382000D02*
X13500100Y-8382000D01*
X13462000Y-8597900D02*
X13462000Y-8674100D01*
X13423900Y-8636000D02*
X13500100Y-8636000D01*
X13462000Y-8851900D02*
X13462000Y-8928100D01*
X13423900Y-8890000D02*
X13500100Y-8890000D01*
X13462000Y-9105900D02*
X13462000Y-9182100D01*
X13423900Y-9144000D02*
X13500100Y-9144000D01*
X13462000Y-9359900D02*
X13462000Y-9436100D01*
X13423900Y-9398000D02*
X13500100Y-9398000D01*
X13462000Y-9613900D02*
X13462000Y-9690100D01*
X13423900Y-9652000D02*
X13500100Y-9652000D01*
X13462000Y-9867900D02*
X13462000Y-9944100D01*
X13423900Y-9906000D02*
X13500100Y-9906000D01*
X13462000Y-10121900D02*
X13462000Y-10198100D01*
X13423900Y-10160000D02*
X13500100Y-10160000D01*
X13462000Y-10375900D02*
X13462000Y-10452100D01*
X13423900Y-10414000D02*
X13500100Y-10414000D01*
X13462000Y-10629900D02*
X13462000Y-10706100D01*
X13423900Y-10668000D02*
X13500100Y-10668000D01*
X13462000Y-10883900D02*
X13462000Y-10960100D01*
X13423900Y-10922000D02*
X13500100Y-10922000D01*
X13462000Y-11137900D02*
X13462000Y-11214100D01*
X13423900Y-11176000D02*
X13500100Y-11176000D01*
X13462000Y-11391900D02*
X13462000Y-11468100D01*
X13423900Y-11430000D02*
X13500100Y-11430000D01*
X16256000Y-7835900D02*
X16256000Y-7912100D01*
X16217900Y-7874000D02*
X16294100Y-7874000D01*
X16256000Y-8089900D02*
X16256000Y-8166100D01*
X16217900Y-8128000D02*
X16294100Y-8128000D01*
X16256000Y-8343900D02*
X16256000Y-8420100D01*
X16217900Y-8382000D02*
X16294100Y-8382000D01*
X16256000Y-8597900D02*
X16256000Y-8674100D01*
X16217900Y-8636000D02*
X16294100Y-8636000D01*
X16256000Y-8851900D02*
X16256000Y-8928100D01*
X16217900Y-8890000D02*
X16294100Y-8890000D01*
X16256000Y-9105900D02*
X16256000Y-9182100D01*
X16217900Y-9144000D02*
X16294100Y-9144000D01*
X16256000Y-9359900D02*
X16256000Y-9436100D01*
X16217900Y-9398000D02*
X16294100Y-9398000D01*
X16256000Y-9613900D02*
X16256000Y-9690100D01*
X16217900Y-9652000D02*
X16294100Y-9652000D01*
X16256000Y-9867900D02*
X16256000Y-9944100D01*
X16217900Y-9906000D02*
X16294100Y-9906000D01*
X16256000Y-10121900D02*
X16256000Y-10198100D01*
X16217900Y-10160000D02*
X16294100Y-10160000D01*
X16256000Y-10375900D02*
X16256000Y-10452100D01*
X16217900Y-10414000D02*
X16294100Y-10414000D01*
X16256000Y-10629900D02*
X16256000Y-10706100D01*
X16217900Y-10668000D02*
X16294100Y-10668000D01*
X16256000Y-10883900D02*
X16256000Y-10960100D01*
X16217900Y-10922000D02*
X16294100Y-10922000D01*
X16256000Y-11137900D02*
X16256000Y-11214100D01*
X16217900Y-11176000D02*
X16294100Y-11176000D01*
X16256000Y-11391900D02*
X16256000Y-11468100D01*
X16217900Y-11430000D02*
X16294100Y-11430000D01*
D15*
X16792285Y-10569285D02*
X16792285Y-10512716D01*
X16735715Y-10512716D01*
X16735715Y-10569285D01*
X16792285Y-10569285D01*
X16792285Y-10769285D02*
X16792285Y-10712716D01*
X16735715Y-10712716D01*
X16735715Y-10769285D01*
X16792285Y-10769285D01*
X16792285Y-10969285D02*
X16792285Y-10912716D01*
X16735715Y-10912716D01*
X16735715Y-10969285D01*
X16792285Y-10969285D01*
D16*
X17272000Y-8052000D02*
X17323000Y-8001000D01*
X17272000Y-7950000D01*
X17221000Y-8001000D01*
X17272000Y-8052000D01*
X17272000Y-8306000D02*
X17323000Y-8255000D01*
X17272000Y-8204000D01*
X17221000Y-8255000D01*
X17272000Y-8306000D01*
X17272000Y-8560000D02*
X17323000Y-8509000D01*
X17272000Y-8458000D01*
X17221000Y-8509000D01*
X17272000Y-8560000D01*
X17272000Y-8814000D02*
X17323000Y-8763000D01*
X17272000Y-8712000D01*
X17221000Y-8763000D01*
X17272000Y-8814000D01*
D11*
X12434619Y-13271524D02*
X12434619Y-13071524D01*
X12434619Y-13071524D02*
X12482238Y-13071524D01*
X12482238Y-13071524D02*
X12510809Y-13081048D01*
X12510809Y-13081048D02*
X12529857Y-13100095D01*
X12529857Y-13100095D02*
X12539381Y-13119143D01*
X12539381Y-13119143D02*
X12548905Y-13157238D01*
X12548905Y-13157238D02*
X12548905Y-13185809D01*
X12548905Y-13185809D02*
X12539381Y-13223905D01*
X12539381Y-13223905D02*
X12529857Y-13242952D01*
X12529857Y-13242952D02*
X12510809Y-13262000D01*
X12510809Y-13262000D02*
X12482238Y-13271524D01*
X12482238Y-13271524D02*
X12434619Y-13271524D01*
X12634619Y-13271524D02*
X12634619Y-13138190D01*
X12634619Y-13176286D02*
X12644143Y-13157238D01*
X12644143Y-13157238D02*
X12653667Y-13147714D01*
X12653667Y-13147714D02*
X12672714Y-13138190D01*
X12672714Y-13138190D02*
X12691762Y-13138190D01*
X12758428Y-13271524D02*
X12758428Y-13138190D01*
X12758428Y-13071524D02*
X12748905Y-13081048D01*
X12748905Y-13081048D02*
X12758428Y-13090571D01*
X12758428Y-13090571D02*
X12767952Y-13081048D01*
X12767952Y-13081048D02*
X12758428Y-13071524D01*
X12758428Y-13071524D02*
X12758428Y-13090571D01*
X12882238Y-13271524D02*
X12863190Y-13262000D01*
X12863190Y-13262000D02*
X12853667Y-13242952D01*
X12853667Y-13242952D02*
X12853667Y-13071524D01*
X12987000Y-13271524D02*
X12967952Y-13262000D01*
X12967952Y-13262000D02*
X12958428Y-13242952D01*
X12958428Y-13242952D02*
X12958428Y-13071524D01*
X13215571Y-13271524D02*
X13215571Y-13071524D01*
X13215571Y-13071524D02*
X13282238Y-13214381D01*
X13282238Y-13214381D02*
X13348905Y-13071524D01*
X13348905Y-13071524D02*
X13348905Y-13271524D01*
X13529857Y-13271524D02*
X13529857Y-13166762D01*
X13529857Y-13166762D02*
X13520333Y-13147714D01*
X13520333Y-13147714D02*
X13501286Y-13138190D01*
X13501286Y-13138190D02*
X13463190Y-13138190D01*
X13463190Y-13138190D02*
X13444143Y-13147714D01*
X13529857Y-13262000D02*
X13510809Y-13271524D01*
X13510809Y-13271524D02*
X13463190Y-13271524D01*
X13463190Y-13271524D02*
X13444143Y-13262000D01*
X13444143Y-13262000D02*
X13434619Y-13242952D01*
X13434619Y-13242952D02*
X13434619Y-13223905D01*
X13434619Y-13223905D02*
X13444143Y-13204857D01*
X13444143Y-13204857D02*
X13463190Y-13195333D01*
X13463190Y-13195333D02*
X13510809Y-13195333D01*
X13510809Y-13195333D02*
X13529857Y-13185809D01*
X13625095Y-13138190D02*
X13625095Y-13338190D01*
X13625095Y-13147714D02*
X13644143Y-13138190D01*
X13644143Y-13138190D02*
X13682238Y-13138190D01*
X13682238Y-13138190D02*
X13701286Y-13147714D01*
X13701286Y-13147714D02*
X13710809Y-13157238D01*
X13710809Y-13157238D02*
X13720333Y-13176286D01*
X13720333Y-13176286D02*
X13720333Y-13233428D01*
X13720333Y-13233428D02*
X13710809Y-13252476D01*
X13710809Y-13252476D02*
X13701286Y-13262000D01*
X13701286Y-13262000D02*
X13682238Y-13271524D01*
X13682238Y-13271524D02*
X13644143Y-13271524D01*
X13644143Y-13271524D02*
X13625095Y-13262000D01*
X13806048Y-13252476D02*
X13815571Y-13262000D01*
X13815571Y-13262000D02*
X13806048Y-13271524D01*
X13806048Y-13271524D02*
X13796524Y-13262000D01*
X13796524Y-13262000D02*
X13806048Y-13252476D01*
X13806048Y-13252476D02*
X13806048Y-13271524D01*
X13806048Y-13147714D02*
X13815571Y-13157238D01*
X13815571Y-13157238D02*
X13806048Y-13166762D01*
X13806048Y-13166762D02*
X13796524Y-13157238D01*
X13796524Y-13157238D02*
X13806048Y-13147714D01*
X13806048Y-13147714D02*
X13806048Y-13166762D01*
D12*
X12117000Y-13564000D02*
X12187000Y-13634000D01*
X12187000Y-13564000D02*
X12117000Y-13634000D01*
D11*
X12472714Y-13491524D02*
X12491762Y-13491524D01*
X12491762Y-13491524D02*
X12510809Y-13501048D01*
X12510809Y-13501048D02*
X12520333Y-13510571D01*
X12520333Y-13510571D02*
X12529857Y-13529619D01*
X12529857Y-13529619D02*
X12539381Y-13567714D01*
X12539381Y-13567714D02*
X12539381Y-13615333D01*
X12539381Y-13615333D02*
X12529857Y-13653428D01*
X12529857Y-13653428D02*
X12520333Y-13672476D01*
X12520333Y-13672476D02*
X12510809Y-13682000D01*
X12510809Y-13682000D02*
X12491762Y-13691524D01*
X12491762Y-13691524D02*
X12472714Y-13691524D01*
X12472714Y-13691524D02*
X12453667Y-13682000D01*
X12453667Y-13682000D02*
X12444143Y-13672476D01*
X12444143Y-13672476D02*
X12434619Y-13653428D01*
X12434619Y-13653428D02*
X12425095Y-13615333D01*
X12425095Y-13615333D02*
X12425095Y-13567714D01*
X12425095Y-13567714D02*
X12434619Y-13529619D01*
X12434619Y-13529619D02*
X12444143Y-13510571D01*
X12444143Y-13510571D02*
X12453667Y-13501048D01*
X12453667Y-13501048D02*
X12472714Y-13491524D01*
X12625095Y-13672476D02*
X12634619Y-13682000D01*
X12634619Y-13682000D02*
X12625095Y-13691524D01*
X12625095Y-13691524D02*
X12615571Y-13682000D01*
X12615571Y-13682000D02*
X12625095Y-13672476D01*
X12625095Y-13672476D02*
X12625095Y-13691524D01*
X12701286Y-13491524D02*
X12834619Y-13491524D01*
X12834619Y-13491524D02*
X12748905Y-13691524D01*
X12948905Y-13491524D02*
X12967952Y-13491524D01*
X12967952Y-13491524D02*
X12987000Y-13501048D01*
X12987000Y-13501048D02*
X12996524Y-13510571D01*
X12996524Y-13510571D02*
X13006048Y-13529619D01*
X13006048Y-13529619D02*
X13015571Y-13567714D01*
X13015571Y-13567714D02*
X13015571Y-13615333D01*
X13015571Y-13615333D02*
X13006048Y-13653428D01*
X13006048Y-13653428D02*
X12996524Y-13672476D01*
X12996524Y-13672476D02*
X12987000Y-13682000D01*
X12987000Y-13682000D02*
X12967952Y-13691524D01*
X12967952Y-13691524D02*
X12948905Y-13691524D01*
X12948905Y-13691524D02*
X12929857Y-13682000D01*
X12929857Y-13682000D02*
X12920333Y-13672476D01*
X12920333Y-13672476D02*
X12910809Y-13653428D01*
X12910809Y-13653428D02*
X12901286Y-13615333D01*
X12901286Y-13615333D02*
X12901286Y-13567714D01*
X12901286Y-13567714D02*
X12910809Y-13529619D01*
X12910809Y-13529619D02*
X12920333Y-13510571D01*
X12920333Y-13510571D02*
X12929857Y-13501048D01*
X12929857Y-13501048D02*
X12948905Y-13491524D01*
X13139381Y-13491524D02*
X13158429Y-13491524D01*
X13158429Y-13491524D02*
X13177476Y-13501048D01*
X13177476Y-13501048D02*
X13187000Y-13510571D01*
X13187000Y-13510571D02*
X13196524Y-13529619D01*
X13196524Y-13529619D02*
X13206048Y-13567714D01*
X13206048Y-13567714D02*
X13206048Y-13615333D01*
X13206048Y-13615333D02*
X13196524Y-13653428D01*
X13196524Y-13653428D02*
X13187000Y-13672476D01*
X13187000Y-13672476D02*
X13177476Y-13682000D01*
X13177476Y-13682000D02*
X13158429Y-13691524D01*
X13158429Y-13691524D02*
X13139381Y-13691524D01*
X13139381Y-13691524D02*
X13120333Y-13682000D01*
X13120333Y-13682000D02*
X13110809Y-13672476D01*
X13110809Y-13672476D02*
X13101286Y-13653428D01*
X13101286Y-13653428D02*
X13091762Y-13615333D01*
X13091762Y-13615333D02*
X13091762Y-13567714D01*
X13091762Y-13567714D02*
X13101286Y-13529619D01*
X13101286Y-13529619D02*
X13110809Y-13510571D01*
X13110809Y-13510571D02*
X13120333Y-13501048D01*
X13120333Y-13501048D02*
X13139381Y-13491524D01*
X13291762Y-13691524D02*
X13291762Y-13558190D01*
X13291762Y-13577238D02*
X13301286Y-13567714D01*
X13301286Y-13567714D02*
X13320333Y-13558190D01*
X13320333Y-13558190D02*
X13348905Y-13558190D01*
X13348905Y-13558190D02*
X13367952Y-13567714D01*
X13367952Y-13567714D02*
X13377476Y-13586762D01*
X13377476Y-13586762D02*
X13377476Y-13691524D01*
X13377476Y-13586762D02*
X13387000Y-13567714D01*
X13387000Y-13567714D02*
X13406048Y-13558190D01*
X13406048Y-13558190D02*
X13434619Y-13558190D01*
X13434619Y-13558190D02*
X13453667Y-13567714D01*
X13453667Y-13567714D02*
X13463190Y-13586762D01*
X13463190Y-13586762D02*
X13463190Y-13691524D01*
X13558429Y-13691524D02*
X13558429Y-13558190D01*
X13558429Y-13577238D02*
X13567952Y-13567714D01*
X13567952Y-13567714D02*
X13587000Y-13558190D01*
X13587000Y-13558190D02*
X13615571Y-13558190D01*
X13615571Y-13558190D02*
X13634619Y-13567714D01*
X13634619Y-13567714D02*
X13644143Y-13586762D01*
X13644143Y-13586762D02*
X13644143Y-13691524D01*
X13644143Y-13586762D02*
X13653667Y-13567714D01*
X13653667Y-13567714D02*
X13672714Y-13558190D01*
X13672714Y-13558190D02*
X13701286Y-13558190D01*
X13701286Y-13558190D02*
X13720333Y-13567714D01*
X13720333Y-13567714D02*
X13729857Y-13586762D01*
X13729857Y-13586762D02*
X13729857Y-13691524D01*
X14120333Y-13482000D02*
X13948905Y-13739143D01*
X14377476Y-13491524D02*
X14396524Y-13491524D01*
X14396524Y-13491524D02*
X14415572Y-13501048D01*
X14415572Y-13501048D02*
X14425095Y-13510571D01*
X14425095Y-13510571D02*
X14434619Y-13529619D01*
X14434619Y-13529619D02*
X14444143Y-13567714D01*
X14444143Y-13567714D02*
X14444143Y-13615333D01*
X14444143Y-13615333D02*
X14434619Y-13653428D01*
X14434619Y-13653428D02*
X14425095Y-13672476D01*
X14425095Y-13672476D02*
X14415572Y-13682000D01*
X14415572Y-13682000D02*
X14396524Y-13691524D01*
X14396524Y-13691524D02*
X14377476Y-13691524D01*
X14377476Y-13691524D02*
X14358429Y-13682000D01*
X14358429Y-13682000D02*
X14348905Y-13672476D01*
X14348905Y-13672476D02*
X14339381Y-13653428D01*
X14339381Y-13653428D02*
X14329857Y-13615333D01*
X14329857Y-13615333D02*
X14329857Y-13567714D01*
X14329857Y-13567714D02*
X14339381Y-13529619D01*
X14339381Y-13529619D02*
X14348905Y-13510571D01*
X14348905Y-13510571D02*
X14358429Y-13501048D01*
X14358429Y-13501048D02*
X14377476Y-13491524D01*
X14529857Y-13672476D02*
X14539381Y-13682000D01*
X14539381Y-13682000D02*
X14529857Y-13691524D01*
X14529857Y-13691524D02*
X14520333Y-13682000D01*
X14520333Y-13682000D02*
X14529857Y-13672476D01*
X14529857Y-13672476D02*
X14529857Y-13691524D01*
X14663191Y-13491524D02*
X14682238Y-13491524D01*
X14682238Y-13491524D02*
X14701286Y-13501048D01*
X14701286Y-13501048D02*
X14710810Y-13510571D01*
X14710810Y-13510571D02*
X14720333Y-13529619D01*
X14720333Y-13529619D02*
X14729857Y-13567714D01*
X14729857Y-13567714D02*
X14729857Y-13615333D01*
X14729857Y-13615333D02*
X14720333Y-13653428D01*
X14720333Y-13653428D02*
X14710810Y-13672476D01*
X14710810Y-13672476D02*
X14701286Y-13682000D01*
X14701286Y-13682000D02*
X14682238Y-13691524D01*
X14682238Y-13691524D02*
X14663191Y-13691524D01*
X14663191Y-13691524D02*
X14644143Y-13682000D01*
X14644143Y-13682000D02*
X14634619Y-13672476D01*
X14634619Y-13672476D02*
X14625095Y-13653428D01*
X14625095Y-13653428D02*
X14615572Y-13615333D01*
X14615572Y-13615333D02*
X14615572Y-13567714D01*
X14615572Y-13567714D02*
X14625095Y-13529619D01*
X14625095Y-13529619D02*
X14634619Y-13510571D01*
X14634619Y-13510571D02*
X14644143Y-13501048D01*
X14644143Y-13501048D02*
X14663191Y-13491524D01*
X14806048Y-13510571D02*
X14815572Y-13501048D01*
X14815572Y-13501048D02*
X14834619Y-13491524D01*
X14834619Y-13491524D02*
X14882238Y-13491524D01*
X14882238Y-13491524D02*
X14901286Y-13501048D01*
X14901286Y-13501048D02*
X14910810Y-13510571D01*
X14910810Y-13510571D02*
X14920333Y-13529619D01*
X14920333Y-13529619D02*
X14920333Y-13548667D01*
X14920333Y-13548667D02*
X14910810Y-13577238D01*
X14910810Y-13577238D02*
X14796524Y-13691524D01*
X14796524Y-13691524D02*
X14920333Y-13691524D01*
X14987000Y-13491524D02*
X15120333Y-13491524D01*
X15120333Y-13491524D02*
X15034619Y-13691524D01*
X15282238Y-13491524D02*
X15244143Y-13491524D01*
X15244143Y-13491524D02*
X15225095Y-13501048D01*
X15225095Y-13501048D02*
X15215572Y-13510571D01*
X15215572Y-13510571D02*
X15196524Y-13539143D01*
X15196524Y-13539143D02*
X15187000Y-13577238D01*
X15187000Y-13577238D02*
X15187000Y-13653428D01*
X15187000Y-13653428D02*
X15196524Y-13672476D01*
X15196524Y-13672476D02*
X15206048Y-13682000D01*
X15206048Y-13682000D02*
X15225095Y-13691524D01*
X15225095Y-13691524D02*
X15263191Y-13691524D01*
X15263191Y-13691524D02*
X15282238Y-13682000D01*
X15282238Y-13682000D02*
X15291762Y-13672476D01*
X15291762Y-13672476D02*
X15301286Y-13653428D01*
X15301286Y-13653428D02*
X15301286Y-13605809D01*
X15301286Y-13605809D02*
X15291762Y-13586762D01*
X15291762Y-13586762D02*
X15282238Y-13577238D01*
X15282238Y-13577238D02*
X15263191Y-13567714D01*
X15263191Y-13567714D02*
X15225095Y-13567714D01*
X15225095Y-13567714D02*
X15206048Y-13577238D01*
X15206048Y-13577238D02*
X15196524Y-13586762D01*
X15196524Y-13586762D02*
X15187000Y-13605809D01*
X15377476Y-13491524D02*
X15377476Y-13529619D01*
X15453667Y-13491524D02*
X15453667Y-13529619D01*
X15748905Y-13767714D02*
X15739381Y-13758190D01*
X15739381Y-13758190D02*
X15720334Y-13729619D01*
X15720334Y-13729619D02*
X15710810Y-13710571D01*
X15710810Y-13710571D02*
X15701286Y-13682000D01*
X15701286Y-13682000D02*
X15691762Y-13634381D01*
X15691762Y-13634381D02*
X15691762Y-13596286D01*
X15691762Y-13596286D02*
X15701286Y-13548667D01*
X15701286Y-13548667D02*
X15710810Y-13520095D01*
X15710810Y-13520095D02*
X15720334Y-13501048D01*
X15720334Y-13501048D02*
X15739381Y-13472476D01*
X15739381Y-13472476D02*
X15748905Y-13462952D01*
X15815572Y-13510571D02*
X15825095Y-13501048D01*
X15825095Y-13501048D02*
X15844143Y-13491524D01*
X15844143Y-13491524D02*
X15891762Y-13491524D01*
X15891762Y-13491524D02*
X15910810Y-13501048D01*
X15910810Y-13501048D02*
X15920334Y-13510571D01*
X15920334Y-13510571D02*
X15929857Y-13529619D01*
X15929857Y-13529619D02*
X15929857Y-13548667D01*
X15929857Y-13548667D02*
X15920334Y-13577238D01*
X15920334Y-13577238D02*
X15806048Y-13691524D01*
X15806048Y-13691524D02*
X15929857Y-13691524D01*
X16167953Y-13691524D02*
X16167953Y-13491524D01*
X16253667Y-13691524D02*
X16253667Y-13586762D01*
X16253667Y-13586762D02*
X16244143Y-13567714D01*
X16244143Y-13567714D02*
X16225096Y-13558190D01*
X16225096Y-13558190D02*
X16196524Y-13558190D01*
X16196524Y-13558190D02*
X16177476Y-13567714D01*
X16177476Y-13567714D02*
X16167953Y-13577238D01*
X16377476Y-13691524D02*
X16358429Y-13682000D01*
X16358429Y-13682000D02*
X16348905Y-13672476D01*
X16348905Y-13672476D02*
X16339381Y-13653428D01*
X16339381Y-13653428D02*
X16339381Y-13596286D01*
X16339381Y-13596286D02*
X16348905Y-13577238D01*
X16348905Y-13577238D02*
X16358429Y-13567714D01*
X16358429Y-13567714D02*
X16377476Y-13558190D01*
X16377476Y-13558190D02*
X16406048Y-13558190D01*
X16406048Y-13558190D02*
X16425096Y-13567714D01*
X16425096Y-13567714D02*
X16434619Y-13577238D01*
X16434619Y-13577238D02*
X16444143Y-13596286D01*
X16444143Y-13596286D02*
X16444143Y-13653428D01*
X16444143Y-13653428D02*
X16434619Y-13672476D01*
X16434619Y-13672476D02*
X16425096Y-13682000D01*
X16425096Y-13682000D02*
X16406048Y-13691524D01*
X16406048Y-13691524D02*
X16377476Y-13691524D01*
X16558429Y-13691524D02*
X16539381Y-13682000D01*
X16539381Y-13682000D02*
X16529857Y-13662952D01*
X16529857Y-13662952D02*
X16529857Y-13491524D01*
X16710810Y-13682000D02*
X16691762Y-13691524D01*
X16691762Y-13691524D02*
X16653667Y-13691524D01*
X16653667Y-13691524D02*
X16634619Y-13682000D01*
X16634619Y-13682000D02*
X16625096Y-13662952D01*
X16625096Y-13662952D02*
X16625096Y-13586762D01*
X16625096Y-13586762D02*
X16634619Y-13567714D01*
X16634619Y-13567714D02*
X16653667Y-13558190D01*
X16653667Y-13558190D02*
X16691762Y-13558190D01*
X16691762Y-13558190D02*
X16710810Y-13567714D01*
X16710810Y-13567714D02*
X16720334Y-13586762D01*
X16720334Y-13586762D02*
X16720334Y-13605809D01*
X16720334Y-13605809D02*
X16625096Y-13624857D01*
X16796524Y-13682000D02*
X16815572Y-13691524D01*
X16815572Y-13691524D02*
X16853667Y-13691524D01*
X16853667Y-13691524D02*
X16872715Y-13682000D01*
X16872715Y-13682000D02*
X16882239Y-13662952D01*
X16882239Y-13662952D02*
X16882239Y-13653428D01*
X16882239Y-13653428D02*
X16872715Y-13634381D01*
X16872715Y-13634381D02*
X16853667Y-13624857D01*
X16853667Y-13624857D02*
X16825096Y-13624857D01*
X16825096Y-13624857D02*
X16806048Y-13615333D01*
X16806048Y-13615333D02*
X16796524Y-13596286D01*
X16796524Y-13596286D02*
X16796524Y-13586762D01*
X16796524Y-13586762D02*
X16806048Y-13567714D01*
X16806048Y-13567714D02*
X16825096Y-13558190D01*
X16825096Y-13558190D02*
X16853667Y-13558190D01*
X16853667Y-13558190D02*
X16872715Y-13567714D01*
X16948905Y-13767714D02*
X16958429Y-13758190D01*
X16958429Y-13758190D02*
X16977477Y-13729619D01*
X16977477Y-13729619D02*
X16987000Y-13710571D01*
X16987000Y-13710571D02*
X16996524Y-13682000D01*
X16996524Y-13682000D02*
X17006048Y-13634381D01*
X17006048Y-13634381D02*
X17006048Y-13596286D01*
X17006048Y-13596286D02*
X16996524Y-13548667D01*
X16996524Y-13548667D02*
X16987000Y-13520095D01*
X16987000Y-13520095D02*
X16977477Y-13501048D01*
X16977477Y-13501048D02*
X16958429Y-13472476D01*
X16958429Y-13472476D02*
X16948905Y-13462952D01*
D13*
X12187000Y-13863000D02*
G75*
G03*
X12187000Y-13863000I-37500J0D01*
G01*
D11*
X12472714Y-13755524D02*
X12491762Y-13755524D01*
X12491762Y-13755524D02*
X12510809Y-13765048D01*
X12510809Y-13765048D02*
X12520333Y-13774571D01*
X12520333Y-13774571D02*
X12529857Y-13793619D01*
X12529857Y-13793619D02*
X12539381Y-13831714D01*
X12539381Y-13831714D02*
X12539381Y-13879333D01*
X12539381Y-13879333D02*
X12529857Y-13917428D01*
X12529857Y-13917428D02*
X12520333Y-13936476D01*
X12520333Y-13936476D02*
X12510809Y-13946000D01*
X12510809Y-13946000D02*
X12491762Y-13955524D01*
X12491762Y-13955524D02*
X12472714Y-13955524D01*
X12472714Y-13955524D02*
X12453667Y-13946000D01*
X12453667Y-13946000D02*
X12444143Y-13936476D01*
X12444143Y-13936476D02*
X12434619Y-13917428D01*
X12434619Y-13917428D02*
X12425095Y-13879333D01*
X12425095Y-13879333D02*
X12425095Y-13831714D01*
X12425095Y-13831714D02*
X12434619Y-13793619D01*
X12434619Y-13793619D02*
X12444143Y-13774571D01*
X12444143Y-13774571D02*
X12453667Y-13765048D01*
X12453667Y-13765048D02*
X12472714Y-13755524D01*
X12625095Y-13936476D02*
X12634619Y-13946000D01*
X12634619Y-13946000D02*
X12625095Y-13955524D01*
X12625095Y-13955524D02*
X12615571Y-13946000D01*
X12615571Y-13946000D02*
X12625095Y-13936476D01*
X12625095Y-13936476D02*
X12625095Y-13955524D01*
X12701286Y-13755524D02*
X12834619Y-13755524D01*
X12834619Y-13755524D02*
X12748905Y-13955524D01*
X13006048Y-13755524D02*
X12910809Y-13755524D01*
X12910809Y-13755524D02*
X12901286Y-13850762D01*
X12901286Y-13850762D02*
X12910809Y-13841238D01*
X12910809Y-13841238D02*
X12929857Y-13831714D01*
X12929857Y-13831714D02*
X12977476Y-13831714D01*
X12977476Y-13831714D02*
X12996524Y-13841238D01*
X12996524Y-13841238D02*
X13006048Y-13850762D01*
X13006048Y-13850762D02*
X13015571Y-13869809D01*
X13015571Y-13869809D02*
X13015571Y-13917428D01*
X13015571Y-13917428D02*
X13006048Y-13936476D01*
X13006048Y-13936476D02*
X12996524Y-13946000D01*
X12996524Y-13946000D02*
X12977476Y-13955524D01*
X12977476Y-13955524D02*
X12929857Y-13955524D01*
X12929857Y-13955524D02*
X12910809Y-13946000D01*
X12910809Y-13946000D02*
X12901286Y-13936476D01*
X13139381Y-13755524D02*
X13158429Y-13755524D01*
X13158429Y-13755524D02*
X13177476Y-13765048D01*
X13177476Y-13765048D02*
X13187000Y-13774571D01*
X13187000Y-13774571D02*
X13196524Y-13793619D01*
X13196524Y-13793619D02*
X13206048Y-13831714D01*
X13206048Y-13831714D02*
X13206048Y-13879333D01*
X13206048Y-13879333D02*
X13196524Y-13917428D01*
X13196524Y-13917428D02*
X13187000Y-13936476D01*
X13187000Y-13936476D02*
X13177476Y-13946000D01*
X13177476Y-13946000D02*
X13158429Y-13955524D01*
X13158429Y-13955524D02*
X13139381Y-13955524D01*
X13139381Y-13955524D02*
X13120333Y-13946000D01*
X13120333Y-13946000D02*
X13110809Y-13936476D01*
X13110809Y-13936476D02*
X13101286Y-13917428D01*
X13101286Y-13917428D02*
X13091762Y-13879333D01*
X13091762Y-13879333D02*
X13091762Y-13831714D01*
X13091762Y-13831714D02*
X13101286Y-13793619D01*
X13101286Y-13793619D02*
X13110809Y-13774571D01*
X13110809Y-13774571D02*
X13120333Y-13765048D01*
X13120333Y-13765048D02*
X13139381Y-13755524D01*
X13291762Y-13955524D02*
X13291762Y-13822190D01*
X13291762Y-13841238D02*
X13301286Y-13831714D01*
X13301286Y-13831714D02*
X13320333Y-13822190D01*
X13320333Y-13822190D02*
X13348905Y-13822190D01*
X13348905Y-13822190D02*
X13367952Y-13831714D01*
X13367952Y-13831714D02*
X13377476Y-13850762D01*
X13377476Y-13850762D02*
X13377476Y-13955524D01*
X13377476Y-13850762D02*
X13387000Y-13831714D01*
X13387000Y-13831714D02*
X13406048Y-13822190D01*
X13406048Y-13822190D02*
X13434619Y-13822190D01*
X13434619Y-13822190D02*
X13453667Y-13831714D01*
X13453667Y-13831714D02*
X13463190Y-13850762D01*
X13463190Y-13850762D02*
X13463190Y-13955524D01*
X13558429Y-13955524D02*
X13558429Y-13822190D01*
X13558429Y-13841238D02*
X13567952Y-13831714D01*
X13567952Y-13831714D02*
X13587000Y-13822190D01*
X13587000Y-13822190D02*
X13615571Y-13822190D01*
X13615571Y-13822190D02*
X13634619Y-13831714D01*
X13634619Y-13831714D02*
X13644143Y-13850762D01*
X13644143Y-13850762D02*
X13644143Y-13955524D01*
X13644143Y-13850762D02*
X13653667Y-13831714D01*
X13653667Y-13831714D02*
X13672714Y-13822190D01*
X13672714Y-13822190D02*
X13701286Y-13822190D01*
X13701286Y-13822190D02*
X13720333Y-13831714D01*
X13720333Y-13831714D02*
X13729857Y-13850762D01*
X13729857Y-13850762D02*
X13729857Y-13955524D01*
X14120333Y-13746000D02*
X13948905Y-14003143D01*
X14377476Y-13755524D02*
X14396524Y-13755524D01*
X14396524Y-13755524D02*
X14415572Y-13765048D01*
X14415572Y-13765048D02*
X14425095Y-13774571D01*
X14425095Y-13774571D02*
X14434619Y-13793619D01*
X14434619Y-13793619D02*
X14444143Y-13831714D01*
X14444143Y-13831714D02*
X14444143Y-13879333D01*
X14444143Y-13879333D02*
X14434619Y-13917428D01*
X14434619Y-13917428D02*
X14425095Y-13936476D01*
X14425095Y-13936476D02*
X14415572Y-13946000D01*
X14415572Y-13946000D02*
X14396524Y-13955524D01*
X14396524Y-13955524D02*
X14377476Y-13955524D01*
X14377476Y-13955524D02*
X14358429Y-13946000D01*
X14358429Y-13946000D02*
X14348905Y-13936476D01*
X14348905Y-13936476D02*
X14339381Y-13917428D01*
X14339381Y-13917428D02*
X14329857Y-13879333D01*
X14329857Y-13879333D02*
X14329857Y-13831714D01*
X14329857Y-13831714D02*
X14339381Y-13793619D01*
X14339381Y-13793619D02*
X14348905Y-13774571D01*
X14348905Y-13774571D02*
X14358429Y-13765048D01*
X14358429Y-13765048D02*
X14377476Y-13755524D01*
X14529857Y-13936476D02*
X14539381Y-13946000D01*
X14539381Y-13946000D02*
X14529857Y-13955524D01*
X14529857Y-13955524D02*
X14520333Y-13946000D01*
X14520333Y-13946000D02*
X14529857Y-13936476D01*
X14529857Y-13936476D02*
X14529857Y-13955524D01*
X14663191Y-13755524D02*
X14682238Y-13755524D01*
X14682238Y-13755524D02*
X14701286Y-13765048D01*
X14701286Y-13765048D02*
X14710810Y-13774571D01*
X14710810Y-13774571D02*
X14720333Y-13793619D01*
X14720333Y-13793619D02*
X14729857Y-13831714D01*
X14729857Y-13831714D02*
X14729857Y-13879333D01*
X14729857Y-13879333D02*
X14720333Y-13917428D01*
X14720333Y-13917428D02*
X14710810Y-13936476D01*
X14710810Y-13936476D02*
X14701286Y-13946000D01*
X14701286Y-13946000D02*
X14682238Y-13955524D01*
X14682238Y-13955524D02*
X14663191Y-13955524D01*
X14663191Y-13955524D02*
X14644143Y-13946000D01*
X14644143Y-13946000D02*
X14634619Y-13936476D01*
X14634619Y-13936476D02*
X14625095Y-13917428D01*
X14625095Y-13917428D02*
X14615572Y-13879333D01*
X14615572Y-13879333D02*
X14615572Y-13831714D01*
X14615572Y-13831714D02*
X14625095Y-13793619D01*
X14625095Y-13793619D02*
X14634619Y-13774571D01*
X14634619Y-13774571D02*
X14644143Y-13765048D01*
X14644143Y-13765048D02*
X14663191Y-13755524D01*
X14806048Y-13774571D02*
X14815572Y-13765048D01*
X14815572Y-13765048D02*
X14834619Y-13755524D01*
X14834619Y-13755524D02*
X14882238Y-13755524D01*
X14882238Y-13755524D02*
X14901286Y-13765048D01*
X14901286Y-13765048D02*
X14910810Y-13774571D01*
X14910810Y-13774571D02*
X14920333Y-13793619D01*
X14920333Y-13793619D02*
X14920333Y-13812667D01*
X14920333Y-13812667D02*
X14910810Y-13841238D01*
X14910810Y-13841238D02*
X14796524Y-13955524D01*
X14796524Y-13955524D02*
X14920333Y-13955524D01*
X15015572Y-13955524D02*
X15053667Y-13955524D01*
X15053667Y-13955524D02*
X15072714Y-13946000D01*
X15072714Y-13946000D02*
X15082238Y-13936476D01*
X15082238Y-13936476D02*
X15101286Y-13907905D01*
X15101286Y-13907905D02*
X15110810Y-13869809D01*
X15110810Y-13869809D02*
X15110810Y-13793619D01*
X15110810Y-13793619D02*
X15101286Y-13774571D01*
X15101286Y-13774571D02*
X15091762Y-13765048D01*
X15091762Y-13765048D02*
X15072714Y-13755524D01*
X15072714Y-13755524D02*
X15034619Y-13755524D01*
X15034619Y-13755524D02*
X15015572Y-13765048D01*
X15015572Y-13765048D02*
X15006048Y-13774571D01*
X15006048Y-13774571D02*
X14996524Y-13793619D01*
X14996524Y-13793619D02*
X14996524Y-13841238D01*
X14996524Y-13841238D02*
X15006048Y-13860286D01*
X15006048Y-13860286D02*
X15015572Y-13869809D01*
X15015572Y-13869809D02*
X15034619Y-13879333D01*
X15034619Y-13879333D02*
X15072714Y-13879333D01*
X15072714Y-13879333D02*
X15091762Y-13869809D01*
X15091762Y-13869809D02*
X15101286Y-13860286D01*
X15101286Y-13860286D02*
X15110810Y-13841238D01*
X15291762Y-13755524D02*
X15196524Y-13755524D01*
X15196524Y-13755524D02*
X15187000Y-13850762D01*
X15187000Y-13850762D02*
X15196524Y-13841238D01*
X15196524Y-13841238D02*
X15215572Y-13831714D01*
X15215572Y-13831714D02*
X15263191Y-13831714D01*
X15263191Y-13831714D02*
X15282238Y-13841238D01*
X15282238Y-13841238D02*
X15291762Y-13850762D01*
X15291762Y-13850762D02*
X15301286Y-13869809D01*
X15301286Y-13869809D02*
X15301286Y-13917428D01*
X15301286Y-13917428D02*
X15291762Y-13936476D01*
X15291762Y-13936476D02*
X15282238Y-13946000D01*
X15282238Y-13946000D02*
X15263191Y-13955524D01*
X15263191Y-13955524D02*
X15215572Y-13955524D01*
X15215572Y-13955524D02*
X15196524Y-13946000D01*
X15196524Y-13946000D02*
X15187000Y-13936476D01*
X15377476Y-13755524D02*
X15377476Y-13793619D01*
X15453667Y-13755524D02*
X15453667Y-13793619D01*
X15748905Y-14031714D02*
X15739381Y-14022190D01*
X15739381Y-14022190D02*
X15720334Y-13993619D01*
X15720334Y-13993619D02*
X15710810Y-13974571D01*
X15710810Y-13974571D02*
X15701286Y-13946000D01*
X15701286Y-13946000D02*
X15691762Y-13898381D01*
X15691762Y-13898381D02*
X15691762Y-13860286D01*
X15691762Y-13860286D02*
X15701286Y-13812667D01*
X15701286Y-13812667D02*
X15710810Y-13784095D01*
X15710810Y-13784095D02*
X15720334Y-13765048D01*
X15720334Y-13765048D02*
X15739381Y-13736476D01*
X15739381Y-13736476D02*
X15748905Y-13726952D01*
X15806048Y-13755524D02*
X15929857Y-13755524D01*
X15929857Y-13755524D02*
X15863191Y-13831714D01*
X15863191Y-13831714D02*
X15891762Y-13831714D01*
X15891762Y-13831714D02*
X15910810Y-13841238D01*
X15910810Y-13841238D02*
X15920334Y-13850762D01*
X15920334Y-13850762D02*
X15929857Y-13869809D01*
X15929857Y-13869809D02*
X15929857Y-13917428D01*
X15929857Y-13917428D02*
X15920334Y-13936476D01*
X15920334Y-13936476D02*
X15910810Y-13946000D01*
X15910810Y-13946000D02*
X15891762Y-13955524D01*
X15891762Y-13955524D02*
X15834619Y-13955524D01*
X15834619Y-13955524D02*
X15815572Y-13946000D01*
X15815572Y-13946000D02*
X15806048Y-13936476D01*
X16167953Y-13955524D02*
X16167953Y-13755524D01*
X16253667Y-13955524D02*
X16253667Y-13850762D01*
X16253667Y-13850762D02*
X16244143Y-13831714D01*
X16244143Y-13831714D02*
X16225096Y-13822190D01*
X16225096Y-13822190D02*
X16196524Y-13822190D01*
X16196524Y-13822190D02*
X16177476Y-13831714D01*
X16177476Y-13831714D02*
X16167953Y-13841238D01*
X16377476Y-13955524D02*
X16358429Y-13946000D01*
X16358429Y-13946000D02*
X16348905Y-13936476D01*
X16348905Y-13936476D02*
X16339381Y-13917428D01*
X16339381Y-13917428D02*
X16339381Y-13860286D01*
X16339381Y-13860286D02*
X16348905Y-13841238D01*
X16348905Y-13841238D02*
X16358429Y-13831714D01*
X16358429Y-13831714D02*
X16377476Y-13822190D01*
X16377476Y-13822190D02*
X16406048Y-13822190D01*
X16406048Y-13822190D02*
X16425096Y-13831714D01*
X16425096Y-13831714D02*
X16434619Y-13841238D01*
X16434619Y-13841238D02*
X16444143Y-13860286D01*
X16444143Y-13860286D02*
X16444143Y-13917428D01*
X16444143Y-13917428D02*
X16434619Y-13936476D01*
X16434619Y-13936476D02*
X16425096Y-13946000D01*
X16425096Y-13946000D02*
X16406048Y-13955524D01*
X16406048Y-13955524D02*
X16377476Y-13955524D01*
X16558429Y-13955524D02*
X16539381Y-13946000D01*
X16539381Y-13946000D02*
X16529857Y-13926952D01*
X16529857Y-13926952D02*
X16529857Y-13755524D01*
X16710810Y-13946000D02*
X16691762Y-13955524D01*
X16691762Y-13955524D02*
X16653667Y-13955524D01*
X16653667Y-13955524D02*
X16634619Y-13946000D01*
X16634619Y-13946000D02*
X16625096Y-13926952D01*
X16625096Y-13926952D02*
X16625096Y-13850762D01*
X16625096Y-13850762D02*
X16634619Y-13831714D01*
X16634619Y-13831714D02*
X16653667Y-13822190D01*
X16653667Y-13822190D02*
X16691762Y-13822190D01*
X16691762Y-13822190D02*
X16710810Y-13831714D01*
X16710810Y-13831714D02*
X16720334Y-13850762D01*
X16720334Y-13850762D02*
X16720334Y-13869809D01*
X16720334Y-13869809D02*
X16625096Y-13888857D01*
X16796524Y-13946000D02*
X16815572Y-13955524D01*
X16815572Y-13955524D02*
X16853667Y-13955524D01*
X16853667Y-13955524D02*
X16872715Y-13946000D01*
X16872715Y-13946000D02*
X16882239Y-13926952D01*
X16882239Y-13926952D02*
X16882239Y-13917428D01*
X16882239Y-13917428D02*
X16872715Y-13898381D01*
X16872715Y-13898381D02*
X16853667Y-13888857D01*
X16853667Y-13888857D02*
X16825096Y-13888857D01*
X16825096Y-13888857D02*
X16806048Y-13879333D01*
X16806048Y-13879333D02*
X16796524Y-13860286D01*
X16796524Y-13860286D02*
X16796524Y-13850762D01*
X16796524Y-13850762D02*
X16806048Y-13831714D01*
X16806048Y-13831714D02*
X16825096Y-13822190D01*
X16825096Y-13822190D02*
X16853667Y-13822190D01*
X16853667Y-13822190D02*
X16872715Y-13831714D01*
X16948905Y-14031714D02*
X16958429Y-14022190D01*
X16958429Y-14022190D02*
X16977477Y-13993619D01*
X16977477Y-13993619D02*
X16987000Y-13974571D01*
X16987000Y-13974571D02*
X16996524Y-13946000D01*
X16996524Y-13946000D02*
X17006048Y-13898381D01*
X17006048Y-13898381D02*
X17006048Y-13860286D01*
X17006048Y-13860286D02*
X16996524Y-13812667D01*
X16996524Y-13812667D02*
X16987000Y-13784095D01*
X16987000Y-13784095D02*
X16977477Y-13765048D01*
X16977477Y-13765048D02*
X16958429Y-13736476D01*
X16958429Y-13736476D02*
X16948905Y-13726952D01*
D14*
X12148900Y-14088900D02*
X12148900Y-14165100D01*
X12110800Y-14127000D02*
X12187000Y-14127000D01*
D11*
X12472714Y-14019524D02*
X12491762Y-14019524D01*
X12491762Y-14019524D02*
X12510809Y-14029048D01*
X12510809Y-14029048D02*
X12520333Y-14038571D01*
X12520333Y-14038571D02*
X12529857Y-14057619D01*
X12529857Y-14057619D02*
X12539381Y-14095714D01*
X12539381Y-14095714D02*
X12539381Y-14143333D01*
X12539381Y-14143333D02*
X12529857Y-14181428D01*
X12529857Y-14181428D02*
X12520333Y-14200476D01*
X12520333Y-14200476D02*
X12510809Y-14210000D01*
X12510809Y-14210000D02*
X12491762Y-14219524D01*
X12491762Y-14219524D02*
X12472714Y-14219524D01*
X12472714Y-14219524D02*
X12453667Y-14210000D01*
X12453667Y-14210000D02*
X12444143Y-14200476D01*
X12444143Y-14200476D02*
X12434619Y-14181428D01*
X12434619Y-14181428D02*
X12425095Y-14143333D01*
X12425095Y-14143333D02*
X12425095Y-14095714D01*
X12425095Y-14095714D02*
X12434619Y-14057619D01*
X12434619Y-14057619D02*
X12444143Y-14038571D01*
X12444143Y-14038571D02*
X12453667Y-14029048D01*
X12453667Y-14029048D02*
X12472714Y-14019524D01*
X12625095Y-14200476D02*
X12634619Y-14210000D01*
X12634619Y-14210000D02*
X12625095Y-14219524D01*
X12625095Y-14219524D02*
X12615571Y-14210000D01*
X12615571Y-14210000D02*
X12625095Y-14200476D01*
X12625095Y-14200476D02*
X12625095Y-14219524D01*
X12701286Y-14019524D02*
X12834619Y-14019524D01*
X12834619Y-14019524D02*
X12748905Y-14219524D01*
X12996524Y-14019524D02*
X12958428Y-14019524D01*
X12958428Y-14019524D02*
X12939381Y-14029048D01*
X12939381Y-14029048D02*
X12929857Y-14038571D01*
X12929857Y-14038571D02*
X12910809Y-14067143D01*
X12910809Y-14067143D02*
X12901286Y-14105238D01*
X12901286Y-14105238D02*
X12901286Y-14181428D01*
X12901286Y-14181428D02*
X12910809Y-14200476D01*
X12910809Y-14200476D02*
X12920333Y-14210000D01*
X12920333Y-14210000D02*
X12939381Y-14219524D01*
X12939381Y-14219524D02*
X12977476Y-14219524D01*
X12977476Y-14219524D02*
X12996524Y-14210000D01*
X12996524Y-14210000D02*
X13006048Y-14200476D01*
X13006048Y-14200476D02*
X13015571Y-14181428D01*
X13015571Y-14181428D02*
X13015571Y-14133809D01*
X13015571Y-14133809D02*
X13006048Y-14114762D01*
X13006048Y-14114762D02*
X12996524Y-14105238D01*
X12996524Y-14105238D02*
X12977476Y-14095714D01*
X12977476Y-14095714D02*
X12939381Y-14095714D01*
X12939381Y-14095714D02*
X12920333Y-14105238D01*
X12920333Y-14105238D02*
X12910809Y-14114762D01*
X12910809Y-14114762D02*
X12901286Y-14133809D01*
X13091762Y-14038571D02*
X13101286Y-14029048D01*
X13101286Y-14029048D02*
X13120333Y-14019524D01*
X13120333Y-14019524D02*
X13167952Y-14019524D01*
X13167952Y-14019524D02*
X13187000Y-14029048D01*
X13187000Y-14029048D02*
X13196524Y-14038571D01*
X13196524Y-14038571D02*
X13206048Y-14057619D01*
X13206048Y-14057619D02*
X13206048Y-14076667D01*
X13206048Y-14076667D02*
X13196524Y-14105238D01*
X13196524Y-14105238D02*
X13082238Y-14219524D01*
X13082238Y-14219524D02*
X13206048Y-14219524D01*
X13291762Y-14219524D02*
X13291762Y-14086190D01*
X13291762Y-14105238D02*
X13301286Y-14095714D01*
X13301286Y-14095714D02*
X13320333Y-14086190D01*
X13320333Y-14086190D02*
X13348905Y-14086190D01*
X13348905Y-14086190D02*
X13367952Y-14095714D01*
X13367952Y-14095714D02*
X13377476Y-14114762D01*
X13377476Y-14114762D02*
X13377476Y-14219524D01*
X13377476Y-14114762D02*
X13387000Y-14095714D01*
X13387000Y-14095714D02*
X13406048Y-14086190D01*
X13406048Y-14086190D02*
X13434619Y-14086190D01*
X13434619Y-14086190D02*
X13453667Y-14095714D01*
X13453667Y-14095714D02*
X13463190Y-14114762D01*
X13463190Y-14114762D02*
X13463190Y-14219524D01*
X13558429Y-14219524D02*
X13558429Y-14086190D01*
X13558429Y-14105238D02*
X13567952Y-14095714D01*
X13567952Y-14095714D02*
X13587000Y-14086190D01*
X13587000Y-14086190D02*
X13615571Y-14086190D01*
X13615571Y-14086190D02*
X13634619Y-14095714D01*
X13634619Y-14095714D02*
X13644143Y-14114762D01*
X13644143Y-14114762D02*
X13644143Y-14219524D01*
X13644143Y-14114762D02*
X13653667Y-14095714D01*
X13653667Y-14095714D02*
X13672714Y-14086190D01*
X13672714Y-14086190D02*
X13701286Y-14086190D01*
X13701286Y-14086190D02*
X13720333Y-14095714D01*
X13720333Y-14095714D02*
X13729857Y-14114762D01*
X13729857Y-14114762D02*
X13729857Y-14219524D01*
X14120333Y-14010000D02*
X13948905Y-14267143D01*
X14377476Y-14019524D02*
X14396524Y-14019524D01*
X14396524Y-14019524D02*
X14415572Y-14029048D01*
X14415572Y-14029048D02*
X14425095Y-14038571D01*
X14425095Y-14038571D02*
X14434619Y-14057619D01*
X14434619Y-14057619D02*
X14444143Y-14095714D01*
X14444143Y-14095714D02*
X14444143Y-14143333D01*
X14444143Y-14143333D02*
X14434619Y-14181428D01*
X14434619Y-14181428D02*
X14425095Y-14200476D01*
X14425095Y-14200476D02*
X14415572Y-14210000D01*
X14415572Y-14210000D02*
X14396524Y-14219524D01*
X14396524Y-14219524D02*
X14377476Y-14219524D01*
X14377476Y-14219524D02*
X14358429Y-14210000D01*
X14358429Y-14210000D02*
X14348905Y-14200476D01*
X14348905Y-14200476D02*
X14339381Y-14181428D01*
X14339381Y-14181428D02*
X14329857Y-14143333D01*
X14329857Y-14143333D02*
X14329857Y-14095714D01*
X14329857Y-14095714D02*
X14339381Y-14057619D01*
X14339381Y-14057619D02*
X14348905Y-14038571D01*
X14348905Y-14038571D02*
X14358429Y-14029048D01*
X14358429Y-14029048D02*
X14377476Y-14019524D01*
X14529857Y-14200476D02*
X14539381Y-14210000D01*
X14539381Y-14210000D02*
X14529857Y-14219524D01*
X14529857Y-14219524D02*
X14520333Y-14210000D01*
X14520333Y-14210000D02*
X14529857Y-14200476D01*
X14529857Y-14200476D02*
X14529857Y-14219524D01*
X14663191Y-14019524D02*
X14682238Y-14019524D01*
X14682238Y-14019524D02*
X14701286Y-14029048D01*
X14701286Y-14029048D02*
X14710810Y-14038571D01*
X14710810Y-14038571D02*
X14720333Y-14057619D01*
X14720333Y-14057619D02*
X14729857Y-14095714D01*
X14729857Y-14095714D02*
X14729857Y-14143333D01*
X14729857Y-14143333D02*
X14720333Y-14181428D01*
X14720333Y-14181428D02*
X14710810Y-14200476D01*
X14710810Y-14200476D02*
X14701286Y-14210000D01*
X14701286Y-14210000D02*
X14682238Y-14219524D01*
X14682238Y-14219524D02*
X14663191Y-14219524D01*
X14663191Y-14219524D02*
X14644143Y-14210000D01*
X14644143Y-14210000D02*
X14634619Y-14200476D01*
X14634619Y-14200476D02*
X14625095Y-14181428D01*
X14625095Y-14181428D02*
X14615572Y-14143333D01*
X14615572Y-14143333D02*
X14615572Y-14095714D01*
X14615572Y-14095714D02*
X14625095Y-14057619D01*
X14625095Y-14057619D02*
X14634619Y-14038571D01*
X14634619Y-14038571D02*
X14644143Y-14029048D01*
X14644143Y-14029048D02*
X14663191Y-14019524D01*
X14796524Y-14019524D02*
X14920333Y-14019524D01*
X14920333Y-14019524D02*
X14853667Y-14095714D01*
X14853667Y-14095714D02*
X14882238Y-14095714D01*
X14882238Y-14095714D02*
X14901286Y-14105238D01*
X14901286Y-14105238D02*
X14910810Y-14114762D01*
X14910810Y-14114762D02*
X14920333Y-14133809D01*
X14920333Y-14133809D02*
X14920333Y-14181428D01*
X14920333Y-14181428D02*
X14910810Y-14200476D01*
X14910810Y-14200476D02*
X14901286Y-14210000D01*
X14901286Y-14210000D02*
X14882238Y-14219524D01*
X14882238Y-14219524D02*
X14825095Y-14219524D01*
X14825095Y-14219524D02*
X14806048Y-14210000D01*
X14806048Y-14210000D02*
X14796524Y-14200476D01*
X15044143Y-14019524D02*
X15063191Y-14019524D01*
X15063191Y-14019524D02*
X15082238Y-14029048D01*
X15082238Y-14029048D02*
X15091762Y-14038571D01*
X15091762Y-14038571D02*
X15101286Y-14057619D01*
X15101286Y-14057619D02*
X15110810Y-14095714D01*
X15110810Y-14095714D02*
X15110810Y-14143333D01*
X15110810Y-14143333D02*
X15101286Y-14181428D01*
X15101286Y-14181428D02*
X15091762Y-14200476D01*
X15091762Y-14200476D02*
X15082238Y-14210000D01*
X15082238Y-14210000D02*
X15063191Y-14219524D01*
X15063191Y-14219524D02*
X15044143Y-14219524D01*
X15044143Y-14219524D02*
X15025095Y-14210000D01*
X15025095Y-14210000D02*
X15015572Y-14200476D01*
X15015572Y-14200476D02*
X15006048Y-14181428D01*
X15006048Y-14181428D02*
X14996524Y-14143333D01*
X14996524Y-14143333D02*
X14996524Y-14095714D01*
X14996524Y-14095714D02*
X15006048Y-14057619D01*
X15006048Y-14057619D02*
X15015572Y-14038571D01*
X15015572Y-14038571D02*
X15025095Y-14029048D01*
X15025095Y-14029048D02*
X15044143Y-14019524D01*
X15234619Y-14019524D02*
X15253667Y-14019524D01*
X15253667Y-14019524D02*
X15272714Y-14029048D01*
X15272714Y-14029048D02*
X15282238Y-14038571D01*
X15282238Y-14038571D02*
X15291762Y-14057619D01*
X15291762Y-14057619D02*
X15301286Y-14095714D01*
X15301286Y-14095714D02*
X15301286Y-14143333D01*
X15301286Y-14143333D02*
X15291762Y-14181428D01*
X15291762Y-14181428D02*
X15282238Y-14200476D01*
X15282238Y-14200476D02*
X15272714Y-14210000D01*
X15272714Y-14210000D02*
X15253667Y-14219524D01*
X15253667Y-14219524D02*
X15234619Y-14219524D01*
X15234619Y-14219524D02*
X15215572Y-14210000D01*
X15215572Y-14210000D02*
X15206048Y-14200476D01*
X15206048Y-14200476D02*
X15196524Y-14181428D01*
X15196524Y-14181428D02*
X15187000Y-14143333D01*
X15187000Y-14143333D02*
X15187000Y-14095714D01*
X15187000Y-14095714D02*
X15196524Y-14057619D01*
X15196524Y-14057619D02*
X15206048Y-14038571D01*
X15206048Y-14038571D02*
X15215572Y-14029048D01*
X15215572Y-14029048D02*
X15234619Y-14019524D01*
X15377476Y-14019524D02*
X15377476Y-14057619D01*
X15453667Y-14019524D02*
X15453667Y-14057619D01*
X15748905Y-14295714D02*
X15739381Y-14286190D01*
X15739381Y-14286190D02*
X15720334Y-14257619D01*
X15720334Y-14257619D02*
X15710810Y-14238571D01*
X15710810Y-14238571D02*
X15701286Y-14210000D01*
X15701286Y-14210000D02*
X15691762Y-14162381D01*
X15691762Y-14162381D02*
X15691762Y-14124286D01*
X15691762Y-14124286D02*
X15701286Y-14076667D01*
X15701286Y-14076667D02*
X15710810Y-14048095D01*
X15710810Y-14048095D02*
X15720334Y-14029048D01*
X15720334Y-14029048D02*
X15739381Y-14000476D01*
X15739381Y-14000476D02*
X15748905Y-13990952D01*
X15806048Y-14019524D02*
X15929857Y-14019524D01*
X15929857Y-14019524D02*
X15863191Y-14095714D01*
X15863191Y-14095714D02*
X15891762Y-14095714D01*
X15891762Y-14095714D02*
X15910810Y-14105238D01*
X15910810Y-14105238D02*
X15920334Y-14114762D01*
X15920334Y-14114762D02*
X15929857Y-14133809D01*
X15929857Y-14133809D02*
X15929857Y-14181428D01*
X15929857Y-14181428D02*
X15920334Y-14200476D01*
X15920334Y-14200476D02*
X15910810Y-14210000D01*
X15910810Y-14210000D02*
X15891762Y-14219524D01*
X15891762Y-14219524D02*
X15834619Y-14219524D01*
X15834619Y-14219524D02*
X15815572Y-14210000D01*
X15815572Y-14210000D02*
X15806048Y-14200476D01*
X16053667Y-14019524D02*
X16072715Y-14019524D01*
X16072715Y-14019524D02*
X16091762Y-14029048D01*
X16091762Y-14029048D02*
X16101286Y-14038571D01*
X16101286Y-14038571D02*
X16110810Y-14057619D01*
X16110810Y-14057619D02*
X16120334Y-14095714D01*
X16120334Y-14095714D02*
X16120334Y-14143333D01*
X16120334Y-14143333D02*
X16110810Y-14181428D01*
X16110810Y-14181428D02*
X16101286Y-14200476D01*
X16101286Y-14200476D02*
X16091762Y-14210000D01*
X16091762Y-14210000D02*
X16072715Y-14219524D01*
X16072715Y-14219524D02*
X16053667Y-14219524D01*
X16053667Y-14219524D02*
X16034619Y-14210000D01*
X16034619Y-14210000D02*
X16025095Y-14200476D01*
X16025095Y-14200476D02*
X16015572Y-14181428D01*
X16015572Y-14181428D02*
X16006048Y-14143333D01*
X16006048Y-14143333D02*
X16006048Y-14095714D01*
X16006048Y-14095714D02*
X16015572Y-14057619D01*
X16015572Y-14057619D02*
X16025095Y-14038571D01*
X16025095Y-14038571D02*
X16034619Y-14029048D01*
X16034619Y-14029048D02*
X16053667Y-14019524D01*
X16358429Y-14219524D02*
X16358429Y-14019524D01*
X16444143Y-14219524D02*
X16444143Y-14114762D01*
X16444143Y-14114762D02*
X16434619Y-14095714D01*
X16434619Y-14095714D02*
X16415572Y-14086190D01*
X16415572Y-14086190D02*
X16387000Y-14086190D01*
X16387000Y-14086190D02*
X16367953Y-14095714D01*
X16367953Y-14095714D02*
X16358429Y-14105238D01*
X16567953Y-14219524D02*
X16548905Y-14210000D01*
X16548905Y-14210000D02*
X16539381Y-14200476D01*
X16539381Y-14200476D02*
X16529857Y-14181428D01*
X16529857Y-14181428D02*
X16529857Y-14124286D01*
X16529857Y-14124286D02*
X16539381Y-14105238D01*
X16539381Y-14105238D02*
X16548905Y-14095714D01*
X16548905Y-14095714D02*
X16567953Y-14086190D01*
X16567953Y-14086190D02*
X16596524Y-14086190D01*
X16596524Y-14086190D02*
X16615572Y-14095714D01*
X16615572Y-14095714D02*
X16625096Y-14105238D01*
X16625096Y-14105238D02*
X16634619Y-14124286D01*
X16634619Y-14124286D02*
X16634619Y-14181428D01*
X16634619Y-14181428D02*
X16625096Y-14200476D01*
X16625096Y-14200476D02*
X16615572Y-14210000D01*
X16615572Y-14210000D02*
X16596524Y-14219524D01*
X16596524Y-14219524D02*
X16567953Y-14219524D01*
X16748905Y-14219524D02*
X16729857Y-14210000D01*
X16729857Y-14210000D02*
X16720334Y-14190952D01*
X16720334Y-14190952D02*
X16720334Y-14019524D01*
X16901286Y-14210000D02*
X16882239Y-14219524D01*
X16882239Y-14219524D02*
X16844143Y-14219524D01*
X16844143Y-14219524D02*
X16825096Y-14210000D01*
X16825096Y-14210000D02*
X16815572Y-14190952D01*
X16815572Y-14190952D02*
X16815572Y-14114762D01*
X16815572Y-14114762D02*
X16825096Y-14095714D01*
X16825096Y-14095714D02*
X16844143Y-14086190D01*
X16844143Y-14086190D02*
X16882239Y-14086190D01*
X16882239Y-14086190D02*
X16901286Y-14095714D01*
X16901286Y-14095714D02*
X16910810Y-14114762D01*
X16910810Y-14114762D02*
X16910810Y-14133809D01*
X16910810Y-14133809D02*
X16815572Y-14152857D01*
X16987000Y-14210000D02*
X17006048Y-14219524D01*
X17006048Y-14219524D02*
X17044143Y-14219524D01*
X17044143Y-14219524D02*
X17063191Y-14210000D01*
X17063191Y-14210000D02*
X17072715Y-14190952D01*
X17072715Y-14190952D02*
X17072715Y-14181428D01*
X17072715Y-14181428D02*
X17063191Y-14162381D01*
X17063191Y-14162381D02*
X17044143Y-14152857D01*
X17044143Y-14152857D02*
X17015572Y-14152857D01*
X17015572Y-14152857D02*
X16996524Y-14143333D01*
X16996524Y-14143333D02*
X16987000Y-14124286D01*
X16987000Y-14124286D02*
X16987000Y-14114762D01*
X16987000Y-14114762D02*
X16996524Y-14095714D01*
X16996524Y-14095714D02*
X17015572Y-14086190D01*
X17015572Y-14086190D02*
X17044143Y-14086190D01*
X17044143Y-14086190D02*
X17063191Y-14095714D01*
X17139381Y-14295714D02*
X17148905Y-14286190D01*
X17148905Y-14286190D02*
X17167953Y-14257619D01*
X17167953Y-14257619D02*
X17177477Y-14238571D01*
X17177477Y-14238571D02*
X17187000Y-14210000D01*
X17187000Y-14210000D02*
X17196524Y-14162381D01*
X17196524Y-14162381D02*
X17196524Y-14124286D01*
X17196524Y-14124286D02*
X17187000Y-14076667D01*
X17187000Y-14076667D02*
X17177477Y-14048095D01*
X17177477Y-14048095D02*
X17167953Y-14029048D01*
X17167953Y-14029048D02*
X17148905Y-14000476D01*
X17148905Y-14000476D02*
X17139381Y-13990952D01*
D15*
X12175284Y-14419284D02*
X12175284Y-14362715D01*
X12118715Y-14362715D01*
X12118715Y-14419284D01*
X12175284Y-14419284D01*
D11*
X12472714Y-14283524D02*
X12491762Y-14283524D01*
X12491762Y-14283524D02*
X12510809Y-14293048D01*
X12510809Y-14293048D02*
X12520333Y-14302571D01*
X12520333Y-14302571D02*
X12529857Y-14321619D01*
X12529857Y-14321619D02*
X12539381Y-14359714D01*
X12539381Y-14359714D02*
X12539381Y-14407333D01*
X12539381Y-14407333D02*
X12529857Y-14445428D01*
X12529857Y-14445428D02*
X12520333Y-14464476D01*
X12520333Y-14464476D02*
X12510809Y-14474000D01*
X12510809Y-14474000D02*
X12491762Y-14483524D01*
X12491762Y-14483524D02*
X12472714Y-14483524D01*
X12472714Y-14483524D02*
X12453667Y-14474000D01*
X12453667Y-14474000D02*
X12444143Y-14464476D01*
X12444143Y-14464476D02*
X12434619Y-14445428D01*
X12434619Y-14445428D02*
X12425095Y-14407333D01*
X12425095Y-14407333D02*
X12425095Y-14359714D01*
X12425095Y-14359714D02*
X12434619Y-14321619D01*
X12434619Y-14321619D02*
X12444143Y-14302571D01*
X12444143Y-14302571D02*
X12453667Y-14293048D01*
X12453667Y-14293048D02*
X12472714Y-14283524D01*
X12625095Y-14464476D02*
X12634619Y-14474000D01*
X12634619Y-14474000D02*
X12625095Y-14483524D01*
X12625095Y-14483524D02*
X12615571Y-14474000D01*
X12615571Y-14474000D02*
X12625095Y-14464476D01*
X12625095Y-14464476D02*
X12625095Y-14483524D01*
X12748905Y-14369238D02*
X12729857Y-14359714D01*
X12729857Y-14359714D02*
X12720333Y-14350190D01*
X12720333Y-14350190D02*
X12710809Y-14331143D01*
X12710809Y-14331143D02*
X12710809Y-14321619D01*
X12710809Y-14321619D02*
X12720333Y-14302571D01*
X12720333Y-14302571D02*
X12729857Y-14293048D01*
X12729857Y-14293048D02*
X12748905Y-14283524D01*
X12748905Y-14283524D02*
X12787000Y-14283524D01*
X12787000Y-14283524D02*
X12806048Y-14293048D01*
X12806048Y-14293048D02*
X12815571Y-14302571D01*
X12815571Y-14302571D02*
X12825095Y-14321619D01*
X12825095Y-14321619D02*
X12825095Y-14331143D01*
X12825095Y-14331143D02*
X12815571Y-14350190D01*
X12815571Y-14350190D02*
X12806048Y-14359714D01*
X12806048Y-14359714D02*
X12787000Y-14369238D01*
X12787000Y-14369238D02*
X12748905Y-14369238D01*
X12748905Y-14369238D02*
X12729857Y-14378762D01*
X12729857Y-14378762D02*
X12720333Y-14388286D01*
X12720333Y-14388286D02*
X12710809Y-14407333D01*
X12710809Y-14407333D02*
X12710809Y-14445428D01*
X12710809Y-14445428D02*
X12720333Y-14464476D01*
X12720333Y-14464476D02*
X12729857Y-14474000D01*
X12729857Y-14474000D02*
X12748905Y-14483524D01*
X12748905Y-14483524D02*
X12787000Y-14483524D01*
X12787000Y-14483524D02*
X12806048Y-14474000D01*
X12806048Y-14474000D02*
X12815571Y-14464476D01*
X12815571Y-14464476D02*
X12825095Y-14445428D01*
X12825095Y-14445428D02*
X12825095Y-14407333D01*
X12825095Y-14407333D02*
X12815571Y-14388286D01*
X12815571Y-14388286D02*
X12806048Y-14378762D01*
X12806048Y-14378762D02*
X12787000Y-14369238D01*
X12948905Y-14283524D02*
X12967952Y-14283524D01*
X12967952Y-14283524D02*
X12987000Y-14293048D01*
X12987000Y-14293048D02*
X12996524Y-14302571D01*
X12996524Y-14302571D02*
X13006048Y-14321619D01*
X13006048Y-14321619D02*
X13015571Y-14359714D01*
X13015571Y-14359714D02*
X13015571Y-14407333D01*
X13015571Y-14407333D02*
X13006048Y-14445428D01*
X13006048Y-14445428D02*
X12996524Y-14464476D01*
X12996524Y-14464476D02*
X12987000Y-14474000D01*
X12987000Y-14474000D02*
X12967952Y-14483524D01*
X12967952Y-14483524D02*
X12948905Y-14483524D01*
X12948905Y-14483524D02*
X12929857Y-14474000D01*
X12929857Y-14474000D02*
X12920333Y-14464476D01*
X12920333Y-14464476D02*
X12910809Y-14445428D01*
X12910809Y-14445428D02*
X12901286Y-14407333D01*
X12901286Y-14407333D02*
X12901286Y-14359714D01*
X12901286Y-14359714D02*
X12910809Y-14321619D01*
X12910809Y-14321619D02*
X12920333Y-14302571D01*
X12920333Y-14302571D02*
X12929857Y-14293048D01*
X12929857Y-14293048D02*
X12948905Y-14283524D01*
X13139381Y-14283524D02*
X13158429Y-14283524D01*
X13158429Y-14283524D02*
X13177476Y-14293048D01*
X13177476Y-14293048D02*
X13187000Y-14302571D01*
X13187000Y-14302571D02*
X13196524Y-14321619D01*
X13196524Y-14321619D02*
X13206048Y-14359714D01*
X13206048Y-14359714D02*
X13206048Y-14407333D01*
X13206048Y-14407333D02*
X13196524Y-14445428D01*
X13196524Y-14445428D02*
X13187000Y-14464476D01*
X13187000Y-14464476D02*
X13177476Y-14474000D01*
X13177476Y-14474000D02*
X13158429Y-14483524D01*
X13158429Y-14483524D02*
X13139381Y-14483524D01*
X13139381Y-14483524D02*
X13120333Y-14474000D01*
X13120333Y-14474000D02*
X13110809Y-14464476D01*
X13110809Y-14464476D02*
X13101286Y-14445428D01*
X13101286Y-14445428D02*
X13091762Y-14407333D01*
X13091762Y-14407333D02*
X13091762Y-14359714D01*
X13091762Y-14359714D02*
X13101286Y-14321619D01*
X13101286Y-14321619D02*
X13110809Y-14302571D01*
X13110809Y-14302571D02*
X13120333Y-14293048D01*
X13120333Y-14293048D02*
X13139381Y-14283524D01*
X13291762Y-14483524D02*
X13291762Y-14350190D01*
X13291762Y-14369238D02*
X13301286Y-14359714D01*
X13301286Y-14359714D02*
X13320333Y-14350190D01*
X13320333Y-14350190D02*
X13348905Y-14350190D01*
X13348905Y-14350190D02*
X13367952Y-14359714D01*
X13367952Y-14359714D02*
X13377476Y-14378762D01*
X13377476Y-14378762D02*
X13377476Y-14483524D01*
X13377476Y-14378762D02*
X13387000Y-14359714D01*
X13387000Y-14359714D02*
X13406048Y-14350190D01*
X13406048Y-14350190D02*
X13434619Y-14350190D01*
X13434619Y-14350190D02*
X13453667Y-14359714D01*
X13453667Y-14359714D02*
X13463190Y-14378762D01*
X13463190Y-14378762D02*
X13463190Y-14483524D01*
X13558429Y-14483524D02*
X13558429Y-14350190D01*
X13558429Y-14369238D02*
X13567952Y-14359714D01*
X13567952Y-14359714D02*
X13587000Y-14350190D01*
X13587000Y-14350190D02*
X13615571Y-14350190D01*
X13615571Y-14350190D02*
X13634619Y-14359714D01*
X13634619Y-14359714D02*
X13644143Y-14378762D01*
X13644143Y-14378762D02*
X13644143Y-14483524D01*
X13644143Y-14378762D02*
X13653667Y-14359714D01*
X13653667Y-14359714D02*
X13672714Y-14350190D01*
X13672714Y-14350190D02*
X13701286Y-14350190D01*
X13701286Y-14350190D02*
X13720333Y-14359714D01*
X13720333Y-14359714D02*
X13729857Y-14378762D01*
X13729857Y-14378762D02*
X13729857Y-14483524D01*
X14120333Y-14274000D02*
X13948905Y-14531143D01*
X14377476Y-14283524D02*
X14396524Y-14283524D01*
X14396524Y-14283524D02*
X14415572Y-14293048D01*
X14415572Y-14293048D02*
X14425095Y-14302571D01*
X14425095Y-14302571D02*
X14434619Y-14321619D01*
X14434619Y-14321619D02*
X14444143Y-14359714D01*
X14444143Y-14359714D02*
X14444143Y-14407333D01*
X14444143Y-14407333D02*
X14434619Y-14445428D01*
X14434619Y-14445428D02*
X14425095Y-14464476D01*
X14425095Y-14464476D02*
X14415572Y-14474000D01*
X14415572Y-14474000D02*
X14396524Y-14483524D01*
X14396524Y-14483524D02*
X14377476Y-14483524D01*
X14377476Y-14483524D02*
X14358429Y-14474000D01*
X14358429Y-14474000D02*
X14348905Y-14464476D01*
X14348905Y-14464476D02*
X14339381Y-14445428D01*
X14339381Y-14445428D02*
X14329857Y-14407333D01*
X14329857Y-14407333D02*
X14329857Y-14359714D01*
X14329857Y-14359714D02*
X14339381Y-14321619D01*
X14339381Y-14321619D02*
X14348905Y-14302571D01*
X14348905Y-14302571D02*
X14358429Y-14293048D01*
X14358429Y-14293048D02*
X14377476Y-14283524D01*
X14529857Y-14464476D02*
X14539381Y-14474000D01*
X14539381Y-14474000D02*
X14529857Y-14483524D01*
X14529857Y-14483524D02*
X14520333Y-14474000D01*
X14520333Y-14474000D02*
X14529857Y-14464476D01*
X14529857Y-14464476D02*
X14529857Y-14483524D01*
X14663191Y-14283524D02*
X14682238Y-14283524D01*
X14682238Y-14283524D02*
X14701286Y-14293048D01*
X14701286Y-14293048D02*
X14710810Y-14302571D01*
X14710810Y-14302571D02*
X14720333Y-14321619D01*
X14720333Y-14321619D02*
X14729857Y-14359714D01*
X14729857Y-14359714D02*
X14729857Y-14407333D01*
X14729857Y-14407333D02*
X14720333Y-14445428D01*
X14720333Y-14445428D02*
X14710810Y-14464476D01*
X14710810Y-14464476D02*
X14701286Y-14474000D01*
X14701286Y-14474000D02*
X14682238Y-14483524D01*
X14682238Y-14483524D02*
X14663191Y-14483524D01*
X14663191Y-14483524D02*
X14644143Y-14474000D01*
X14644143Y-14474000D02*
X14634619Y-14464476D01*
X14634619Y-14464476D02*
X14625095Y-14445428D01*
X14625095Y-14445428D02*
X14615572Y-14407333D01*
X14615572Y-14407333D02*
X14615572Y-14359714D01*
X14615572Y-14359714D02*
X14625095Y-14321619D01*
X14625095Y-14321619D02*
X14634619Y-14302571D01*
X14634619Y-14302571D02*
X14644143Y-14293048D01*
X14644143Y-14293048D02*
X14663191Y-14283524D01*
X14796524Y-14283524D02*
X14920333Y-14283524D01*
X14920333Y-14283524D02*
X14853667Y-14359714D01*
X14853667Y-14359714D02*
X14882238Y-14359714D01*
X14882238Y-14359714D02*
X14901286Y-14369238D01*
X14901286Y-14369238D02*
X14910810Y-14378762D01*
X14910810Y-14378762D02*
X14920333Y-14397809D01*
X14920333Y-14397809D02*
X14920333Y-14445428D01*
X14920333Y-14445428D02*
X14910810Y-14464476D01*
X14910810Y-14464476D02*
X14901286Y-14474000D01*
X14901286Y-14474000D02*
X14882238Y-14483524D01*
X14882238Y-14483524D02*
X14825095Y-14483524D01*
X14825095Y-14483524D02*
X14806048Y-14474000D01*
X14806048Y-14474000D02*
X14796524Y-14464476D01*
X15110810Y-14483524D02*
X14996524Y-14483524D01*
X15053667Y-14483524D02*
X15053667Y-14283524D01*
X15053667Y-14283524D02*
X15034619Y-14312095D01*
X15034619Y-14312095D02*
X15015572Y-14331143D01*
X15015572Y-14331143D02*
X14996524Y-14340667D01*
X15291762Y-14283524D02*
X15196524Y-14283524D01*
X15196524Y-14283524D02*
X15187000Y-14378762D01*
X15187000Y-14378762D02*
X15196524Y-14369238D01*
X15196524Y-14369238D02*
X15215572Y-14359714D01*
X15215572Y-14359714D02*
X15263191Y-14359714D01*
X15263191Y-14359714D02*
X15282238Y-14369238D01*
X15282238Y-14369238D02*
X15291762Y-14378762D01*
X15291762Y-14378762D02*
X15301286Y-14397809D01*
X15301286Y-14397809D02*
X15301286Y-14445428D01*
X15301286Y-14445428D02*
X15291762Y-14464476D01*
X15291762Y-14464476D02*
X15282238Y-14474000D01*
X15282238Y-14474000D02*
X15263191Y-14483524D01*
X15263191Y-14483524D02*
X15215572Y-14483524D01*
X15215572Y-14483524D02*
X15196524Y-14474000D01*
X15196524Y-14474000D02*
X15187000Y-14464476D01*
X15377476Y-14283524D02*
X15377476Y-14321619D01*
X15453667Y-14283524D02*
X15453667Y-14321619D01*
X15748905Y-14559714D02*
X15739381Y-14550190D01*
X15739381Y-14550190D02*
X15720334Y-14521619D01*
X15720334Y-14521619D02*
X15710810Y-14502571D01*
X15710810Y-14502571D02*
X15701286Y-14474000D01*
X15701286Y-14474000D02*
X15691762Y-14426381D01*
X15691762Y-14426381D02*
X15691762Y-14388286D01*
X15691762Y-14388286D02*
X15701286Y-14340667D01*
X15701286Y-14340667D02*
X15710810Y-14312095D01*
X15710810Y-14312095D02*
X15720334Y-14293048D01*
X15720334Y-14293048D02*
X15739381Y-14264476D01*
X15739381Y-14264476D02*
X15748905Y-14254952D01*
X15806048Y-14283524D02*
X15929857Y-14283524D01*
X15929857Y-14283524D02*
X15863191Y-14359714D01*
X15863191Y-14359714D02*
X15891762Y-14359714D01*
X15891762Y-14359714D02*
X15910810Y-14369238D01*
X15910810Y-14369238D02*
X15920334Y-14378762D01*
X15920334Y-14378762D02*
X15929857Y-14397809D01*
X15929857Y-14397809D02*
X15929857Y-14445428D01*
X15929857Y-14445428D02*
X15920334Y-14464476D01*
X15920334Y-14464476D02*
X15910810Y-14474000D01*
X15910810Y-14474000D02*
X15891762Y-14483524D01*
X15891762Y-14483524D02*
X15834619Y-14483524D01*
X15834619Y-14483524D02*
X15815572Y-14474000D01*
X15815572Y-14474000D02*
X15806048Y-14464476D01*
X16167953Y-14483524D02*
X16167953Y-14283524D01*
X16253667Y-14483524D02*
X16253667Y-14378762D01*
X16253667Y-14378762D02*
X16244143Y-14359714D01*
X16244143Y-14359714D02*
X16225096Y-14350190D01*
X16225096Y-14350190D02*
X16196524Y-14350190D01*
X16196524Y-14350190D02*
X16177476Y-14359714D01*
X16177476Y-14359714D02*
X16167953Y-14369238D01*
X16377476Y-14483524D02*
X16358429Y-14474000D01*
X16358429Y-14474000D02*
X16348905Y-14464476D01*
X16348905Y-14464476D02*
X16339381Y-14445428D01*
X16339381Y-14445428D02*
X16339381Y-14388286D01*
X16339381Y-14388286D02*
X16348905Y-14369238D01*
X16348905Y-14369238D02*
X16358429Y-14359714D01*
X16358429Y-14359714D02*
X16377476Y-14350190D01*
X16377476Y-14350190D02*
X16406048Y-14350190D01*
X16406048Y-14350190D02*
X16425096Y-14359714D01*
X16425096Y-14359714D02*
X16434619Y-14369238D01*
X16434619Y-14369238D02*
X16444143Y-14388286D01*
X16444143Y-14388286D02*
X16444143Y-14445428D01*
X16444143Y-14445428D02*
X16434619Y-14464476D01*
X16434619Y-14464476D02*
X16425096Y-14474000D01*
X16425096Y-14474000D02*
X16406048Y-14483524D01*
X16406048Y-14483524D02*
X16377476Y-14483524D01*
X16558429Y-14483524D02*
X16539381Y-14474000D01*
X16539381Y-14474000D02*
X16529857Y-14454952D01*
X16529857Y-14454952D02*
X16529857Y-14283524D01*
X16710810Y-14474000D02*
X16691762Y-14483524D01*
X16691762Y-14483524D02*
X16653667Y-14483524D01*
X16653667Y-14483524D02*
X16634619Y-14474000D01*
X16634619Y-14474000D02*
X16625096Y-14454952D01*
X16625096Y-14454952D02*
X16625096Y-14378762D01*
X16625096Y-14378762D02*
X16634619Y-14359714D01*
X16634619Y-14359714D02*
X16653667Y-14350190D01*
X16653667Y-14350190D02*
X16691762Y-14350190D01*
X16691762Y-14350190D02*
X16710810Y-14359714D01*
X16710810Y-14359714D02*
X16720334Y-14378762D01*
X16720334Y-14378762D02*
X16720334Y-14397809D01*
X16720334Y-14397809D02*
X16625096Y-14416857D01*
X16796524Y-14474000D02*
X16815572Y-14483524D01*
X16815572Y-14483524D02*
X16853667Y-14483524D01*
X16853667Y-14483524D02*
X16872715Y-14474000D01*
X16872715Y-14474000D02*
X16882239Y-14454952D01*
X16882239Y-14454952D02*
X16882239Y-14445428D01*
X16882239Y-14445428D02*
X16872715Y-14426381D01*
X16872715Y-14426381D02*
X16853667Y-14416857D01*
X16853667Y-14416857D02*
X16825096Y-14416857D01*
X16825096Y-14416857D02*
X16806048Y-14407333D01*
X16806048Y-14407333D02*
X16796524Y-14388286D01*
X16796524Y-14388286D02*
X16796524Y-14378762D01*
X16796524Y-14378762D02*
X16806048Y-14359714D01*
X16806048Y-14359714D02*
X16825096Y-14350190D01*
X16825096Y-14350190D02*
X16853667Y-14350190D01*
X16853667Y-14350190D02*
X16872715Y-14359714D01*
X16948905Y-14559714D02*
X16958429Y-14550190D01*
X16958429Y-14550190D02*
X16977477Y-14521619D01*
X16977477Y-14521619D02*
X16987000Y-14502571D01*
X16987000Y-14502571D02*
X16996524Y-14474000D01*
X16996524Y-14474000D02*
X17006048Y-14426381D01*
X17006048Y-14426381D02*
X17006048Y-14388286D01*
X17006048Y-14388286D02*
X16996524Y-14340667D01*
X16996524Y-14340667D02*
X16987000Y-14312095D01*
X16987000Y-14312095D02*
X16977477Y-14293048D01*
X16977477Y-14293048D02*
X16958429Y-14264476D01*
X16958429Y-14264476D02*
X16948905Y-14254952D01*
D16*
X12136000Y-14706000D02*
X12187000Y-14655000D01*
X12136000Y-14604000D01*
X12085000Y-14655000D01*
X12136000Y-14706000D01*
D11*
X12539381Y-14747524D02*
X12425095Y-14747524D01*
X12482238Y-14747524D02*
X12482238Y-14547524D01*
X12482238Y-14547524D02*
X12463190Y-14576095D01*
X12463190Y-14576095D02*
X12444143Y-14595143D01*
X12444143Y-14595143D02*
X12425095Y-14604667D01*
X12625095Y-14728476D02*
X12634619Y-14738000D01*
X12634619Y-14738000D02*
X12625095Y-14747524D01*
X12625095Y-14747524D02*
X12615571Y-14738000D01*
X12615571Y-14738000D02*
X12625095Y-14728476D01*
X12625095Y-14728476D02*
X12625095Y-14747524D01*
X12758428Y-14547524D02*
X12777476Y-14547524D01*
X12777476Y-14547524D02*
X12796524Y-14557048D01*
X12796524Y-14557048D02*
X12806048Y-14566571D01*
X12806048Y-14566571D02*
X12815571Y-14585619D01*
X12815571Y-14585619D02*
X12825095Y-14623714D01*
X12825095Y-14623714D02*
X12825095Y-14671333D01*
X12825095Y-14671333D02*
X12815571Y-14709428D01*
X12815571Y-14709428D02*
X12806048Y-14728476D01*
X12806048Y-14728476D02*
X12796524Y-14738000D01*
X12796524Y-14738000D02*
X12777476Y-14747524D01*
X12777476Y-14747524D02*
X12758428Y-14747524D01*
X12758428Y-14747524D02*
X12739381Y-14738000D01*
X12739381Y-14738000D02*
X12729857Y-14728476D01*
X12729857Y-14728476D02*
X12720333Y-14709428D01*
X12720333Y-14709428D02*
X12710809Y-14671333D01*
X12710809Y-14671333D02*
X12710809Y-14623714D01*
X12710809Y-14623714D02*
X12720333Y-14585619D01*
X12720333Y-14585619D02*
X12729857Y-14566571D01*
X12729857Y-14566571D02*
X12739381Y-14557048D01*
X12739381Y-14557048D02*
X12758428Y-14547524D01*
X12901286Y-14566571D02*
X12910809Y-14557048D01*
X12910809Y-14557048D02*
X12929857Y-14547524D01*
X12929857Y-14547524D02*
X12977476Y-14547524D01*
X12977476Y-14547524D02*
X12996524Y-14557048D01*
X12996524Y-14557048D02*
X13006048Y-14566571D01*
X13006048Y-14566571D02*
X13015571Y-14585619D01*
X13015571Y-14585619D02*
X13015571Y-14604667D01*
X13015571Y-14604667D02*
X13006048Y-14633238D01*
X13006048Y-14633238D02*
X12891762Y-14747524D01*
X12891762Y-14747524D02*
X13015571Y-14747524D01*
X13139381Y-14547524D02*
X13158429Y-14547524D01*
X13158429Y-14547524D02*
X13177476Y-14557048D01*
X13177476Y-14557048D02*
X13187000Y-14566571D01*
X13187000Y-14566571D02*
X13196524Y-14585619D01*
X13196524Y-14585619D02*
X13206048Y-14623714D01*
X13206048Y-14623714D02*
X13206048Y-14671333D01*
X13206048Y-14671333D02*
X13196524Y-14709428D01*
X13196524Y-14709428D02*
X13187000Y-14728476D01*
X13187000Y-14728476D02*
X13177476Y-14738000D01*
X13177476Y-14738000D02*
X13158429Y-14747524D01*
X13158429Y-14747524D02*
X13139381Y-14747524D01*
X13139381Y-14747524D02*
X13120333Y-14738000D01*
X13120333Y-14738000D02*
X13110809Y-14728476D01*
X13110809Y-14728476D02*
X13101286Y-14709428D01*
X13101286Y-14709428D02*
X13091762Y-14671333D01*
X13091762Y-14671333D02*
X13091762Y-14623714D01*
X13091762Y-14623714D02*
X13101286Y-14585619D01*
X13101286Y-14585619D02*
X13110809Y-14566571D01*
X13110809Y-14566571D02*
X13120333Y-14557048D01*
X13120333Y-14557048D02*
X13139381Y-14547524D01*
X13291762Y-14747524D02*
X13291762Y-14614190D01*
X13291762Y-14633238D02*
X13301286Y-14623714D01*
X13301286Y-14623714D02*
X13320333Y-14614190D01*
X13320333Y-14614190D02*
X13348905Y-14614190D01*
X13348905Y-14614190D02*
X13367952Y-14623714D01*
X13367952Y-14623714D02*
X13377476Y-14642762D01*
X13377476Y-14642762D02*
X13377476Y-14747524D01*
X13377476Y-14642762D02*
X13387000Y-14623714D01*
X13387000Y-14623714D02*
X13406048Y-14614190D01*
X13406048Y-14614190D02*
X13434619Y-14614190D01*
X13434619Y-14614190D02*
X13453667Y-14623714D01*
X13453667Y-14623714D02*
X13463190Y-14642762D01*
X13463190Y-14642762D02*
X13463190Y-14747524D01*
X13558429Y-14747524D02*
X13558429Y-14614190D01*
X13558429Y-14633238D02*
X13567952Y-14623714D01*
X13567952Y-14623714D02*
X13587000Y-14614190D01*
X13587000Y-14614190D02*
X13615571Y-14614190D01*
X13615571Y-14614190D02*
X13634619Y-14623714D01*
X13634619Y-14623714D02*
X13644143Y-14642762D01*
X13644143Y-14642762D02*
X13644143Y-14747524D01*
X13644143Y-14642762D02*
X13653667Y-14623714D01*
X13653667Y-14623714D02*
X13672714Y-14614190D01*
X13672714Y-14614190D02*
X13701286Y-14614190D01*
X13701286Y-14614190D02*
X13720333Y-14623714D01*
X13720333Y-14623714D02*
X13729857Y-14642762D01*
X13729857Y-14642762D02*
X13729857Y-14747524D01*
X14120333Y-14538000D02*
X13948905Y-14795143D01*
X14377476Y-14547524D02*
X14396524Y-14547524D01*
X14396524Y-14547524D02*
X14415572Y-14557048D01*
X14415572Y-14557048D02*
X14425095Y-14566571D01*
X14425095Y-14566571D02*
X14434619Y-14585619D01*
X14434619Y-14585619D02*
X14444143Y-14623714D01*
X14444143Y-14623714D02*
X14444143Y-14671333D01*
X14444143Y-14671333D02*
X14434619Y-14709428D01*
X14434619Y-14709428D02*
X14425095Y-14728476D01*
X14425095Y-14728476D02*
X14415572Y-14738000D01*
X14415572Y-14738000D02*
X14396524Y-14747524D01*
X14396524Y-14747524D02*
X14377476Y-14747524D01*
X14377476Y-14747524D02*
X14358429Y-14738000D01*
X14358429Y-14738000D02*
X14348905Y-14728476D01*
X14348905Y-14728476D02*
X14339381Y-14709428D01*
X14339381Y-14709428D02*
X14329857Y-14671333D01*
X14329857Y-14671333D02*
X14329857Y-14623714D01*
X14329857Y-14623714D02*
X14339381Y-14585619D01*
X14339381Y-14585619D02*
X14348905Y-14566571D01*
X14348905Y-14566571D02*
X14358429Y-14557048D01*
X14358429Y-14557048D02*
X14377476Y-14547524D01*
X14529857Y-14728476D02*
X14539381Y-14738000D01*
X14539381Y-14738000D02*
X14529857Y-14747524D01*
X14529857Y-14747524D02*
X14520333Y-14738000D01*
X14520333Y-14738000D02*
X14529857Y-14728476D01*
X14529857Y-14728476D02*
X14529857Y-14747524D01*
X14663191Y-14547524D02*
X14682238Y-14547524D01*
X14682238Y-14547524D02*
X14701286Y-14557048D01*
X14701286Y-14557048D02*
X14710810Y-14566571D01*
X14710810Y-14566571D02*
X14720333Y-14585619D01*
X14720333Y-14585619D02*
X14729857Y-14623714D01*
X14729857Y-14623714D02*
X14729857Y-14671333D01*
X14729857Y-14671333D02*
X14720333Y-14709428D01*
X14720333Y-14709428D02*
X14710810Y-14728476D01*
X14710810Y-14728476D02*
X14701286Y-14738000D01*
X14701286Y-14738000D02*
X14682238Y-14747524D01*
X14682238Y-14747524D02*
X14663191Y-14747524D01*
X14663191Y-14747524D02*
X14644143Y-14738000D01*
X14644143Y-14738000D02*
X14634619Y-14728476D01*
X14634619Y-14728476D02*
X14625095Y-14709428D01*
X14625095Y-14709428D02*
X14615572Y-14671333D01*
X14615572Y-14671333D02*
X14615572Y-14623714D01*
X14615572Y-14623714D02*
X14625095Y-14585619D01*
X14625095Y-14585619D02*
X14634619Y-14566571D01*
X14634619Y-14566571D02*
X14644143Y-14557048D01*
X14644143Y-14557048D02*
X14663191Y-14547524D01*
X14901286Y-14614190D02*
X14901286Y-14747524D01*
X14853667Y-14538000D02*
X14806048Y-14680857D01*
X14806048Y-14680857D02*
X14929857Y-14680857D01*
X15044143Y-14547524D02*
X15063191Y-14547524D01*
X15063191Y-14547524D02*
X15082238Y-14557048D01*
X15082238Y-14557048D02*
X15091762Y-14566571D01*
X15091762Y-14566571D02*
X15101286Y-14585619D01*
X15101286Y-14585619D02*
X15110810Y-14623714D01*
X15110810Y-14623714D02*
X15110810Y-14671333D01*
X15110810Y-14671333D02*
X15101286Y-14709428D01*
X15101286Y-14709428D02*
X15091762Y-14728476D01*
X15091762Y-14728476D02*
X15082238Y-14738000D01*
X15082238Y-14738000D02*
X15063191Y-14747524D01*
X15063191Y-14747524D02*
X15044143Y-14747524D01*
X15044143Y-14747524D02*
X15025095Y-14738000D01*
X15025095Y-14738000D02*
X15015572Y-14728476D01*
X15015572Y-14728476D02*
X15006048Y-14709428D01*
X15006048Y-14709428D02*
X14996524Y-14671333D01*
X14996524Y-14671333D02*
X14996524Y-14623714D01*
X14996524Y-14623714D02*
X15006048Y-14585619D01*
X15006048Y-14585619D02*
X15015572Y-14566571D01*
X15015572Y-14566571D02*
X15025095Y-14557048D01*
X15025095Y-14557048D02*
X15044143Y-14547524D01*
X15187000Y-14566571D02*
X15196524Y-14557048D01*
X15196524Y-14557048D02*
X15215572Y-14547524D01*
X15215572Y-14547524D02*
X15263191Y-14547524D01*
X15263191Y-14547524D02*
X15282238Y-14557048D01*
X15282238Y-14557048D02*
X15291762Y-14566571D01*
X15291762Y-14566571D02*
X15301286Y-14585619D01*
X15301286Y-14585619D02*
X15301286Y-14604667D01*
X15301286Y-14604667D02*
X15291762Y-14633238D01*
X15291762Y-14633238D02*
X15177476Y-14747524D01*
X15177476Y-14747524D02*
X15301286Y-14747524D01*
X15377476Y-14547524D02*
X15377476Y-14585619D01*
X15453667Y-14547524D02*
X15453667Y-14585619D01*
X15748905Y-14823714D02*
X15739381Y-14814190D01*
X15739381Y-14814190D02*
X15720334Y-14785619D01*
X15720334Y-14785619D02*
X15710810Y-14766571D01*
X15710810Y-14766571D02*
X15701286Y-14738000D01*
X15701286Y-14738000D02*
X15691762Y-14690381D01*
X15691762Y-14690381D02*
X15691762Y-14652286D01*
X15691762Y-14652286D02*
X15701286Y-14604667D01*
X15701286Y-14604667D02*
X15710810Y-14576095D01*
X15710810Y-14576095D02*
X15720334Y-14557048D01*
X15720334Y-14557048D02*
X15739381Y-14528476D01*
X15739381Y-14528476D02*
X15748905Y-14518952D01*
X15910810Y-14614190D02*
X15910810Y-14747524D01*
X15863191Y-14538000D02*
X15815572Y-14680857D01*
X15815572Y-14680857D02*
X15939381Y-14680857D01*
X16167953Y-14747524D02*
X16167953Y-14547524D01*
X16253667Y-14747524D02*
X16253667Y-14642762D01*
X16253667Y-14642762D02*
X16244143Y-14623714D01*
X16244143Y-14623714D02*
X16225096Y-14614190D01*
X16225096Y-14614190D02*
X16196524Y-14614190D01*
X16196524Y-14614190D02*
X16177476Y-14623714D01*
X16177476Y-14623714D02*
X16167953Y-14633238D01*
X16377476Y-14747524D02*
X16358429Y-14738000D01*
X16358429Y-14738000D02*
X16348905Y-14728476D01*
X16348905Y-14728476D02*
X16339381Y-14709428D01*
X16339381Y-14709428D02*
X16339381Y-14652286D01*
X16339381Y-14652286D02*
X16348905Y-14633238D01*
X16348905Y-14633238D02*
X16358429Y-14623714D01*
X16358429Y-14623714D02*
X16377476Y-14614190D01*
X16377476Y-14614190D02*
X16406048Y-14614190D01*
X16406048Y-14614190D02*
X16425096Y-14623714D01*
X16425096Y-14623714D02*
X16434619Y-14633238D01*
X16434619Y-14633238D02*
X16444143Y-14652286D01*
X16444143Y-14652286D02*
X16444143Y-14709428D01*
X16444143Y-14709428D02*
X16434619Y-14728476D01*
X16434619Y-14728476D02*
X16425096Y-14738000D01*
X16425096Y-14738000D02*
X16406048Y-14747524D01*
X16406048Y-14747524D02*
X16377476Y-14747524D01*
X16558429Y-14747524D02*
X16539381Y-14738000D01*
X16539381Y-14738000D02*
X16529857Y-14718952D01*
X16529857Y-14718952D02*
X16529857Y-14547524D01*
X16710810Y-14738000D02*
X16691762Y-14747524D01*
X16691762Y-14747524D02*
X16653667Y-14747524D01*
X16653667Y-14747524D02*
X16634619Y-14738000D01*
X16634619Y-14738000D02*
X16625096Y-14718952D01*
X16625096Y-14718952D02*
X16625096Y-14642762D01*
X16625096Y-14642762D02*
X16634619Y-14623714D01*
X16634619Y-14623714D02*
X16653667Y-14614190D01*
X16653667Y-14614190D02*
X16691762Y-14614190D01*
X16691762Y-14614190D02*
X16710810Y-14623714D01*
X16710810Y-14623714D02*
X16720334Y-14642762D01*
X16720334Y-14642762D02*
X16720334Y-14661809D01*
X16720334Y-14661809D02*
X16625096Y-14680857D01*
X16796524Y-14738000D02*
X16815572Y-14747524D01*
X16815572Y-14747524D02*
X16853667Y-14747524D01*
X16853667Y-14747524D02*
X16872715Y-14738000D01*
X16872715Y-14738000D02*
X16882239Y-14718952D01*
X16882239Y-14718952D02*
X16882239Y-14709428D01*
X16882239Y-14709428D02*
X16872715Y-14690381D01*
X16872715Y-14690381D02*
X16853667Y-14680857D01*
X16853667Y-14680857D02*
X16825096Y-14680857D01*
X16825096Y-14680857D02*
X16806048Y-14671333D01*
X16806048Y-14671333D02*
X16796524Y-14652286D01*
X16796524Y-14652286D02*
X16796524Y-14642762D01*
X16796524Y-14642762D02*
X16806048Y-14623714D01*
X16806048Y-14623714D02*
X16825096Y-14614190D01*
X16825096Y-14614190D02*
X16853667Y-14614190D01*
X16853667Y-14614190D02*
X16872715Y-14623714D01*
X16948905Y-14823714D02*
X16958429Y-14814190D01*
X16958429Y-14814190D02*
X16977477Y-14785619D01*
X16977477Y-14785619D02*
X16987000Y-14766571D01*
X16987000Y-14766571D02*
X16996524Y-14738000D01*
X16996524Y-14738000D02*
X17006048Y-14690381D01*
X17006048Y-14690381D02*
X17006048Y-14652286D01*
X17006048Y-14652286D02*
X16996524Y-14604667D01*
X16996524Y-14604667D02*
X16987000Y-14576095D01*
X16987000Y-14576095D02*
X16977477Y-14557048D01*
X16977477Y-14557048D02*
X16958429Y-14528476D01*
X16958429Y-14528476D02*
X16948905Y-14518952D01*
M02*
