%TF.GenerationSoftware,KiCad,Pcbnew,7.0.1*%
%TF.CreationDate,2023-11-13T23:43:34-05:00*%
%TF.ProjectId,PCB,5043422e-6b69-4636-9164-5f7063625858,rev?*%
%TF.SameCoordinates,Original*%
%TF.FileFunction,Legend,Top*%
%TF.FilePolarity,Positive*%
%FSLAX46Y46*%
G04 Gerber Fmt 4.6, Leading zero omitted, Abs format (unit mm)*
G04 Created by KiCad (PCBNEW 7.0.1) date 2023-11-13 23:43:34*
%MOMM*%
%LPD*%
G01*
G04 APERTURE LIST*
%ADD10C,0.100000*%
%ADD11C,0.150000*%
%ADD12C,0.300000*%
%ADD13C,0.400000*%
%ADD14C,0.120000*%
%ADD15C,1.524000*%
G04 APERTURE END LIST*
D10*
D11*
X159400000Y-171900000D02*
X267400000Y-171900000D01*
X267400000Y-203900000D01*
X159400000Y-203900000D01*
X159400000Y-171900000D01*
D10*
D11*
X10000000Y-10000000D02*
X269400000Y-10000000D01*
X269400000Y-205900000D01*
X10000000Y-205900000D01*
X10000000Y-10000000D01*
D10*
D11*
X12000000Y-12000000D02*
X267400000Y-12000000D01*
X267400000Y-203900000D01*
X12000000Y-203900000D01*
X12000000Y-12000000D01*
D10*
D11*
X60000000Y-12000000D02*
X60000000Y-10000000D01*
D10*
D11*
X110000000Y-12000000D02*
X110000000Y-10000000D01*
D10*
D11*
X160000000Y-12000000D02*
X160000000Y-10000000D01*
D10*
D11*
X210000000Y-12000000D02*
X210000000Y-10000000D01*
D10*
D11*
X260000000Y-12000000D02*
X260000000Y-10000000D01*
D10*
D11*
X35990476Y-11601404D02*
X35247619Y-11601404D01*
X35619047Y-11601404D02*
X35619047Y-10301404D01*
X35619047Y-10301404D02*
X35495238Y-10487119D01*
X35495238Y-10487119D02*
X35371428Y-10610928D01*
X35371428Y-10610928D02*
X35247619Y-10672833D01*
D10*
D11*
X85247619Y-10425214D02*
X85309523Y-10363309D01*
X85309523Y-10363309D02*
X85433333Y-10301404D01*
X85433333Y-10301404D02*
X85742857Y-10301404D01*
X85742857Y-10301404D02*
X85866666Y-10363309D01*
X85866666Y-10363309D02*
X85928571Y-10425214D01*
X85928571Y-10425214D02*
X85990476Y-10549023D01*
X85990476Y-10549023D02*
X85990476Y-10672833D01*
X85990476Y-10672833D02*
X85928571Y-10858547D01*
X85928571Y-10858547D02*
X85185714Y-11601404D01*
X85185714Y-11601404D02*
X85990476Y-11601404D01*
D10*
D11*
X135185714Y-10301404D02*
X135990476Y-10301404D01*
X135990476Y-10301404D02*
X135557142Y-10796642D01*
X135557142Y-10796642D02*
X135742857Y-10796642D01*
X135742857Y-10796642D02*
X135866666Y-10858547D01*
X135866666Y-10858547D02*
X135928571Y-10920452D01*
X135928571Y-10920452D02*
X135990476Y-11044261D01*
X135990476Y-11044261D02*
X135990476Y-11353785D01*
X135990476Y-11353785D02*
X135928571Y-11477595D01*
X135928571Y-11477595D02*
X135866666Y-11539500D01*
X135866666Y-11539500D02*
X135742857Y-11601404D01*
X135742857Y-11601404D02*
X135371428Y-11601404D01*
X135371428Y-11601404D02*
X135247619Y-11539500D01*
X135247619Y-11539500D02*
X135185714Y-11477595D01*
D10*
D11*
X185866666Y-10734738D02*
X185866666Y-11601404D01*
X185557142Y-10239500D02*
X185247619Y-11168071D01*
X185247619Y-11168071D02*
X186052380Y-11168071D01*
D10*
D11*
X235928571Y-10301404D02*
X235309523Y-10301404D01*
X235309523Y-10301404D02*
X235247619Y-10920452D01*
X235247619Y-10920452D02*
X235309523Y-10858547D01*
X235309523Y-10858547D02*
X235433333Y-10796642D01*
X235433333Y-10796642D02*
X235742857Y-10796642D01*
X235742857Y-10796642D02*
X235866666Y-10858547D01*
X235866666Y-10858547D02*
X235928571Y-10920452D01*
X235928571Y-10920452D02*
X235990476Y-11044261D01*
X235990476Y-11044261D02*
X235990476Y-11353785D01*
X235990476Y-11353785D02*
X235928571Y-11477595D01*
X235928571Y-11477595D02*
X235866666Y-11539500D01*
X235866666Y-11539500D02*
X235742857Y-11601404D01*
X235742857Y-11601404D02*
X235433333Y-11601404D01*
X235433333Y-11601404D02*
X235309523Y-11539500D01*
X235309523Y-11539500D02*
X235247619Y-11477595D01*
D10*
D11*
X60000000Y-203900000D02*
X60000000Y-205900000D01*
D10*
D11*
X110000000Y-203900000D02*
X110000000Y-205900000D01*
D10*
D11*
X160000000Y-203900000D02*
X160000000Y-205900000D01*
D10*
D11*
X210000000Y-203900000D02*
X210000000Y-205900000D01*
D10*
D11*
X260000000Y-203900000D02*
X260000000Y-205900000D01*
D10*
D11*
X35990476Y-205501404D02*
X35247619Y-205501404D01*
X35619047Y-205501404D02*
X35619047Y-204201404D01*
X35619047Y-204201404D02*
X35495238Y-204387119D01*
X35495238Y-204387119D02*
X35371428Y-204510928D01*
X35371428Y-204510928D02*
X35247619Y-204572833D01*
D10*
D11*
X85247619Y-204325214D02*
X85309523Y-204263309D01*
X85309523Y-204263309D02*
X85433333Y-204201404D01*
X85433333Y-204201404D02*
X85742857Y-204201404D01*
X85742857Y-204201404D02*
X85866666Y-204263309D01*
X85866666Y-204263309D02*
X85928571Y-204325214D01*
X85928571Y-204325214D02*
X85990476Y-204449023D01*
X85990476Y-204449023D02*
X85990476Y-204572833D01*
X85990476Y-204572833D02*
X85928571Y-204758547D01*
X85928571Y-204758547D02*
X85185714Y-205501404D01*
X85185714Y-205501404D02*
X85990476Y-205501404D01*
D10*
D11*
X135185714Y-204201404D02*
X135990476Y-204201404D01*
X135990476Y-204201404D02*
X135557142Y-204696642D01*
X135557142Y-204696642D02*
X135742857Y-204696642D01*
X135742857Y-204696642D02*
X135866666Y-204758547D01*
X135866666Y-204758547D02*
X135928571Y-204820452D01*
X135928571Y-204820452D02*
X135990476Y-204944261D01*
X135990476Y-204944261D02*
X135990476Y-205253785D01*
X135990476Y-205253785D02*
X135928571Y-205377595D01*
X135928571Y-205377595D02*
X135866666Y-205439500D01*
X135866666Y-205439500D02*
X135742857Y-205501404D01*
X135742857Y-205501404D02*
X135371428Y-205501404D01*
X135371428Y-205501404D02*
X135247619Y-205439500D01*
X135247619Y-205439500D02*
X135185714Y-205377595D01*
D10*
D11*
X185866666Y-204634738D02*
X185866666Y-205501404D01*
X185557142Y-204139500D02*
X185247619Y-205068071D01*
X185247619Y-205068071D02*
X186052380Y-205068071D01*
D10*
D11*
X235928571Y-204201404D02*
X235309523Y-204201404D01*
X235309523Y-204201404D02*
X235247619Y-204820452D01*
X235247619Y-204820452D02*
X235309523Y-204758547D01*
X235309523Y-204758547D02*
X235433333Y-204696642D01*
X235433333Y-204696642D02*
X235742857Y-204696642D01*
X235742857Y-204696642D02*
X235866666Y-204758547D01*
X235866666Y-204758547D02*
X235928571Y-204820452D01*
X235928571Y-204820452D02*
X235990476Y-204944261D01*
X235990476Y-204944261D02*
X235990476Y-205253785D01*
X235990476Y-205253785D02*
X235928571Y-205377595D01*
X235928571Y-205377595D02*
X235866666Y-205439500D01*
X235866666Y-205439500D02*
X235742857Y-205501404D01*
X235742857Y-205501404D02*
X235433333Y-205501404D01*
X235433333Y-205501404D02*
X235309523Y-205439500D01*
X235309523Y-205439500D02*
X235247619Y-205377595D01*
D10*
D11*
X10000000Y-60000000D02*
X12000000Y-60000000D01*
D10*
D11*
X10000000Y-110000000D02*
X12000000Y-110000000D01*
D10*
D11*
X10000000Y-160000000D02*
X12000000Y-160000000D01*
D10*
D11*
X10690476Y-35229976D02*
X11309523Y-35229976D01*
X10566666Y-35601404D02*
X10999999Y-34301404D01*
X10999999Y-34301404D02*
X11433333Y-35601404D01*
D10*
D11*
X11092857Y-84920452D02*
X11278571Y-84982357D01*
X11278571Y-84982357D02*
X11340476Y-85044261D01*
X11340476Y-85044261D02*
X11402380Y-85168071D01*
X11402380Y-85168071D02*
X11402380Y-85353785D01*
X11402380Y-85353785D02*
X11340476Y-85477595D01*
X11340476Y-85477595D02*
X11278571Y-85539500D01*
X11278571Y-85539500D02*
X11154761Y-85601404D01*
X11154761Y-85601404D02*
X10659523Y-85601404D01*
X10659523Y-85601404D02*
X10659523Y-84301404D01*
X10659523Y-84301404D02*
X11092857Y-84301404D01*
X11092857Y-84301404D02*
X11216666Y-84363309D01*
X11216666Y-84363309D02*
X11278571Y-84425214D01*
X11278571Y-84425214D02*
X11340476Y-84549023D01*
X11340476Y-84549023D02*
X11340476Y-84672833D01*
X11340476Y-84672833D02*
X11278571Y-84796642D01*
X11278571Y-84796642D02*
X11216666Y-84858547D01*
X11216666Y-84858547D02*
X11092857Y-84920452D01*
X11092857Y-84920452D02*
X10659523Y-84920452D01*
D10*
D11*
X11402380Y-135477595D02*
X11340476Y-135539500D01*
X11340476Y-135539500D02*
X11154761Y-135601404D01*
X11154761Y-135601404D02*
X11030952Y-135601404D01*
X11030952Y-135601404D02*
X10845238Y-135539500D01*
X10845238Y-135539500D02*
X10721428Y-135415690D01*
X10721428Y-135415690D02*
X10659523Y-135291880D01*
X10659523Y-135291880D02*
X10597619Y-135044261D01*
X10597619Y-135044261D02*
X10597619Y-134858547D01*
X10597619Y-134858547D02*
X10659523Y-134610928D01*
X10659523Y-134610928D02*
X10721428Y-134487119D01*
X10721428Y-134487119D02*
X10845238Y-134363309D01*
X10845238Y-134363309D02*
X11030952Y-134301404D01*
X11030952Y-134301404D02*
X11154761Y-134301404D01*
X11154761Y-134301404D02*
X11340476Y-134363309D01*
X11340476Y-134363309D02*
X11402380Y-134425214D01*
D10*
D11*
X10659523Y-185601404D02*
X10659523Y-184301404D01*
X10659523Y-184301404D02*
X10969047Y-184301404D01*
X10969047Y-184301404D02*
X11154761Y-184363309D01*
X11154761Y-184363309D02*
X11278571Y-184487119D01*
X11278571Y-184487119D02*
X11340476Y-184610928D01*
X11340476Y-184610928D02*
X11402380Y-184858547D01*
X11402380Y-184858547D02*
X11402380Y-185044261D01*
X11402380Y-185044261D02*
X11340476Y-185291880D01*
X11340476Y-185291880D02*
X11278571Y-185415690D01*
X11278571Y-185415690D02*
X11154761Y-185539500D01*
X11154761Y-185539500D02*
X10969047Y-185601404D01*
X10969047Y-185601404D02*
X10659523Y-185601404D01*
D10*
D11*
X269400000Y-60000000D02*
X267400000Y-60000000D01*
D10*
D11*
X269400000Y-110000000D02*
X267400000Y-110000000D01*
D10*
D11*
X269400000Y-160000000D02*
X267400000Y-160000000D01*
D10*
D11*
X268090476Y-35229976D02*
X268709523Y-35229976D01*
X267966666Y-35601404D02*
X268399999Y-34301404D01*
X268399999Y-34301404D02*
X268833333Y-35601404D01*
D10*
D11*
X268492857Y-84920452D02*
X268678571Y-84982357D01*
X268678571Y-84982357D02*
X268740476Y-85044261D01*
X268740476Y-85044261D02*
X268802380Y-85168071D01*
X268802380Y-85168071D02*
X268802380Y-85353785D01*
X268802380Y-85353785D02*
X268740476Y-85477595D01*
X268740476Y-85477595D02*
X268678571Y-85539500D01*
X268678571Y-85539500D02*
X268554761Y-85601404D01*
X268554761Y-85601404D02*
X268059523Y-85601404D01*
X268059523Y-85601404D02*
X268059523Y-84301404D01*
X268059523Y-84301404D02*
X268492857Y-84301404D01*
X268492857Y-84301404D02*
X268616666Y-84363309D01*
X268616666Y-84363309D02*
X268678571Y-84425214D01*
X268678571Y-84425214D02*
X268740476Y-84549023D01*
X268740476Y-84549023D02*
X268740476Y-84672833D01*
X268740476Y-84672833D02*
X268678571Y-84796642D01*
X268678571Y-84796642D02*
X268616666Y-84858547D01*
X268616666Y-84858547D02*
X268492857Y-84920452D01*
X268492857Y-84920452D02*
X268059523Y-84920452D01*
D10*
D11*
X268802380Y-135477595D02*
X268740476Y-135539500D01*
X268740476Y-135539500D02*
X268554761Y-135601404D01*
X268554761Y-135601404D02*
X268430952Y-135601404D01*
X268430952Y-135601404D02*
X268245238Y-135539500D01*
X268245238Y-135539500D02*
X268121428Y-135415690D01*
X268121428Y-135415690D02*
X268059523Y-135291880D01*
X268059523Y-135291880D02*
X267997619Y-135044261D01*
X267997619Y-135044261D02*
X267997619Y-134858547D01*
X267997619Y-134858547D02*
X268059523Y-134610928D01*
X268059523Y-134610928D02*
X268121428Y-134487119D01*
X268121428Y-134487119D02*
X268245238Y-134363309D01*
X268245238Y-134363309D02*
X268430952Y-134301404D01*
X268430952Y-134301404D02*
X268554761Y-134301404D01*
X268554761Y-134301404D02*
X268740476Y-134363309D01*
X268740476Y-134363309D02*
X268802380Y-134425214D01*
D10*
D11*
X268059523Y-185601404D02*
X268059523Y-184301404D01*
X268059523Y-184301404D02*
X268369047Y-184301404D01*
X268369047Y-184301404D02*
X268554761Y-184363309D01*
X268554761Y-184363309D02*
X268678571Y-184487119D01*
X268678571Y-184487119D02*
X268740476Y-184610928D01*
X268740476Y-184610928D02*
X268802380Y-184858547D01*
X268802380Y-184858547D02*
X268802380Y-185044261D01*
X268802380Y-185044261D02*
X268740476Y-185291880D01*
X268740476Y-185291880D02*
X268678571Y-185415690D01*
X268678571Y-185415690D02*
X268554761Y-185539500D01*
X268554761Y-185539500D02*
X268369047Y-185601404D01*
X268369047Y-185601404D02*
X268059523Y-185601404D01*
D10*
D11*
X182757142Y-199693928D02*
X182757142Y-198193928D01*
X182757142Y-198193928D02*
X183114285Y-198193928D01*
X183114285Y-198193928D02*
X183328571Y-198265357D01*
X183328571Y-198265357D02*
X183471428Y-198408214D01*
X183471428Y-198408214D02*
X183542857Y-198551071D01*
X183542857Y-198551071D02*
X183614285Y-198836785D01*
X183614285Y-198836785D02*
X183614285Y-199051071D01*
X183614285Y-199051071D02*
X183542857Y-199336785D01*
X183542857Y-199336785D02*
X183471428Y-199479642D01*
X183471428Y-199479642D02*
X183328571Y-199622500D01*
X183328571Y-199622500D02*
X183114285Y-199693928D01*
X183114285Y-199693928D02*
X182757142Y-199693928D01*
X184900000Y-199693928D02*
X184900000Y-198908214D01*
X184900000Y-198908214D02*
X184828571Y-198765357D01*
X184828571Y-198765357D02*
X184685714Y-198693928D01*
X184685714Y-198693928D02*
X184400000Y-198693928D01*
X184400000Y-198693928D02*
X184257142Y-198765357D01*
X184900000Y-199622500D02*
X184757142Y-199693928D01*
X184757142Y-199693928D02*
X184400000Y-199693928D01*
X184400000Y-199693928D02*
X184257142Y-199622500D01*
X184257142Y-199622500D02*
X184185714Y-199479642D01*
X184185714Y-199479642D02*
X184185714Y-199336785D01*
X184185714Y-199336785D02*
X184257142Y-199193928D01*
X184257142Y-199193928D02*
X184400000Y-199122500D01*
X184400000Y-199122500D02*
X184757142Y-199122500D01*
X184757142Y-199122500D02*
X184900000Y-199051071D01*
X185400000Y-198693928D02*
X185971428Y-198693928D01*
X185614285Y-198193928D02*
X185614285Y-199479642D01*
X185614285Y-199479642D02*
X185685714Y-199622500D01*
X185685714Y-199622500D02*
X185828571Y-199693928D01*
X185828571Y-199693928D02*
X185971428Y-199693928D01*
X187042857Y-199622500D02*
X186900000Y-199693928D01*
X186900000Y-199693928D02*
X186614286Y-199693928D01*
X186614286Y-199693928D02*
X186471428Y-199622500D01*
X186471428Y-199622500D02*
X186400000Y-199479642D01*
X186400000Y-199479642D02*
X186400000Y-198908214D01*
X186400000Y-198908214D02*
X186471428Y-198765357D01*
X186471428Y-198765357D02*
X186614286Y-198693928D01*
X186614286Y-198693928D02*
X186900000Y-198693928D01*
X186900000Y-198693928D02*
X187042857Y-198765357D01*
X187042857Y-198765357D02*
X187114286Y-198908214D01*
X187114286Y-198908214D02*
X187114286Y-199051071D01*
X187114286Y-199051071D02*
X186400000Y-199193928D01*
X187757142Y-199551071D02*
X187828571Y-199622500D01*
X187828571Y-199622500D02*
X187757142Y-199693928D01*
X187757142Y-199693928D02*
X187685714Y-199622500D01*
X187685714Y-199622500D02*
X187757142Y-199551071D01*
X187757142Y-199551071D02*
X187757142Y-199693928D01*
X187757142Y-198765357D02*
X187828571Y-198836785D01*
X187828571Y-198836785D02*
X187757142Y-198908214D01*
X187757142Y-198908214D02*
X187685714Y-198836785D01*
X187685714Y-198836785D02*
X187757142Y-198765357D01*
X187757142Y-198765357D02*
X187757142Y-198908214D01*
D10*
D11*
X159400000Y-200400000D02*
X267400000Y-200400000D01*
D10*
D11*
X160757142Y-202493928D02*
X160757142Y-200993928D01*
X161614285Y-202493928D02*
X160971428Y-201636785D01*
X161614285Y-200993928D02*
X160757142Y-201851071D01*
X162257142Y-202493928D02*
X162257142Y-201493928D01*
X162257142Y-200993928D02*
X162185714Y-201065357D01*
X162185714Y-201065357D02*
X162257142Y-201136785D01*
X162257142Y-201136785D02*
X162328571Y-201065357D01*
X162328571Y-201065357D02*
X162257142Y-200993928D01*
X162257142Y-200993928D02*
X162257142Y-201136785D01*
X163828571Y-202351071D02*
X163757143Y-202422500D01*
X163757143Y-202422500D02*
X163542857Y-202493928D01*
X163542857Y-202493928D02*
X163400000Y-202493928D01*
X163400000Y-202493928D02*
X163185714Y-202422500D01*
X163185714Y-202422500D02*
X163042857Y-202279642D01*
X163042857Y-202279642D02*
X162971428Y-202136785D01*
X162971428Y-202136785D02*
X162900000Y-201851071D01*
X162900000Y-201851071D02*
X162900000Y-201636785D01*
X162900000Y-201636785D02*
X162971428Y-201351071D01*
X162971428Y-201351071D02*
X163042857Y-201208214D01*
X163042857Y-201208214D02*
X163185714Y-201065357D01*
X163185714Y-201065357D02*
X163400000Y-200993928D01*
X163400000Y-200993928D02*
X163542857Y-200993928D01*
X163542857Y-200993928D02*
X163757143Y-201065357D01*
X163757143Y-201065357D02*
X163828571Y-201136785D01*
X165114286Y-202493928D02*
X165114286Y-201708214D01*
X165114286Y-201708214D02*
X165042857Y-201565357D01*
X165042857Y-201565357D02*
X164900000Y-201493928D01*
X164900000Y-201493928D02*
X164614286Y-201493928D01*
X164614286Y-201493928D02*
X164471428Y-201565357D01*
X165114286Y-202422500D02*
X164971428Y-202493928D01*
X164971428Y-202493928D02*
X164614286Y-202493928D01*
X164614286Y-202493928D02*
X164471428Y-202422500D01*
X164471428Y-202422500D02*
X164400000Y-202279642D01*
X164400000Y-202279642D02*
X164400000Y-202136785D01*
X164400000Y-202136785D02*
X164471428Y-201993928D01*
X164471428Y-201993928D02*
X164614286Y-201922500D01*
X164614286Y-201922500D02*
X164971428Y-201922500D01*
X164971428Y-201922500D02*
X165114286Y-201851071D01*
X166471429Y-202493928D02*
X166471429Y-200993928D01*
X166471429Y-202422500D02*
X166328571Y-202493928D01*
X166328571Y-202493928D02*
X166042857Y-202493928D01*
X166042857Y-202493928D02*
X165900000Y-202422500D01*
X165900000Y-202422500D02*
X165828571Y-202351071D01*
X165828571Y-202351071D02*
X165757143Y-202208214D01*
X165757143Y-202208214D02*
X165757143Y-201779642D01*
X165757143Y-201779642D02*
X165828571Y-201636785D01*
X165828571Y-201636785D02*
X165900000Y-201565357D01*
X165900000Y-201565357D02*
X166042857Y-201493928D01*
X166042857Y-201493928D02*
X166328571Y-201493928D01*
X166328571Y-201493928D02*
X166471429Y-201565357D01*
X168328571Y-201708214D02*
X168828571Y-201708214D01*
X169042857Y-202493928D02*
X168328571Y-202493928D01*
X168328571Y-202493928D02*
X168328571Y-200993928D01*
X168328571Y-200993928D02*
X169042857Y-200993928D01*
X169685714Y-202351071D02*
X169757143Y-202422500D01*
X169757143Y-202422500D02*
X169685714Y-202493928D01*
X169685714Y-202493928D02*
X169614286Y-202422500D01*
X169614286Y-202422500D02*
X169685714Y-202351071D01*
X169685714Y-202351071D02*
X169685714Y-202493928D01*
X170400000Y-202493928D02*
X170400000Y-200993928D01*
X170400000Y-200993928D02*
X170757143Y-200993928D01*
X170757143Y-200993928D02*
X170971429Y-201065357D01*
X170971429Y-201065357D02*
X171114286Y-201208214D01*
X171114286Y-201208214D02*
X171185715Y-201351071D01*
X171185715Y-201351071D02*
X171257143Y-201636785D01*
X171257143Y-201636785D02*
X171257143Y-201851071D01*
X171257143Y-201851071D02*
X171185715Y-202136785D01*
X171185715Y-202136785D02*
X171114286Y-202279642D01*
X171114286Y-202279642D02*
X170971429Y-202422500D01*
X170971429Y-202422500D02*
X170757143Y-202493928D01*
X170757143Y-202493928D02*
X170400000Y-202493928D01*
X171900000Y-202351071D02*
X171971429Y-202422500D01*
X171971429Y-202422500D02*
X171900000Y-202493928D01*
X171900000Y-202493928D02*
X171828572Y-202422500D01*
X171828572Y-202422500D02*
X171900000Y-202351071D01*
X171900000Y-202351071D02*
X171900000Y-202493928D01*
X172542858Y-202065357D02*
X173257144Y-202065357D01*
X172400001Y-202493928D02*
X172900001Y-200993928D01*
X172900001Y-200993928D02*
X173400001Y-202493928D01*
X173900000Y-202351071D02*
X173971429Y-202422500D01*
X173971429Y-202422500D02*
X173900000Y-202493928D01*
X173900000Y-202493928D02*
X173828572Y-202422500D01*
X173828572Y-202422500D02*
X173900000Y-202351071D01*
X173900000Y-202351071D02*
X173900000Y-202493928D01*
X176900000Y-202493928D02*
X176900000Y-200993928D01*
X177042858Y-201922500D02*
X177471429Y-202493928D01*
X177471429Y-201493928D02*
X176900000Y-202065357D01*
X178114286Y-202493928D02*
X178114286Y-201493928D01*
X178114286Y-200993928D02*
X178042858Y-201065357D01*
X178042858Y-201065357D02*
X178114286Y-201136785D01*
X178114286Y-201136785D02*
X178185715Y-201065357D01*
X178185715Y-201065357D02*
X178114286Y-200993928D01*
X178114286Y-200993928D02*
X178114286Y-201136785D01*
X179471430Y-202422500D02*
X179328572Y-202493928D01*
X179328572Y-202493928D02*
X179042858Y-202493928D01*
X179042858Y-202493928D02*
X178900001Y-202422500D01*
X178900001Y-202422500D02*
X178828572Y-202351071D01*
X178828572Y-202351071D02*
X178757144Y-202208214D01*
X178757144Y-202208214D02*
X178757144Y-201779642D01*
X178757144Y-201779642D02*
X178828572Y-201636785D01*
X178828572Y-201636785D02*
X178900001Y-201565357D01*
X178900001Y-201565357D02*
X179042858Y-201493928D01*
X179042858Y-201493928D02*
X179328572Y-201493928D01*
X179328572Y-201493928D02*
X179471430Y-201565357D01*
X180757144Y-202493928D02*
X180757144Y-201708214D01*
X180757144Y-201708214D02*
X180685715Y-201565357D01*
X180685715Y-201565357D02*
X180542858Y-201493928D01*
X180542858Y-201493928D02*
X180257144Y-201493928D01*
X180257144Y-201493928D02*
X180114286Y-201565357D01*
X180757144Y-202422500D02*
X180614286Y-202493928D01*
X180614286Y-202493928D02*
X180257144Y-202493928D01*
X180257144Y-202493928D02*
X180114286Y-202422500D01*
X180114286Y-202422500D02*
X180042858Y-202279642D01*
X180042858Y-202279642D02*
X180042858Y-202136785D01*
X180042858Y-202136785D02*
X180114286Y-201993928D01*
X180114286Y-201993928D02*
X180257144Y-201922500D01*
X180257144Y-201922500D02*
X180614286Y-201922500D01*
X180614286Y-201922500D02*
X180757144Y-201851071D01*
X182114287Y-202493928D02*
X182114287Y-200993928D01*
X182114287Y-202422500D02*
X181971429Y-202493928D01*
X181971429Y-202493928D02*
X181685715Y-202493928D01*
X181685715Y-202493928D02*
X181542858Y-202422500D01*
X181542858Y-202422500D02*
X181471429Y-202351071D01*
X181471429Y-202351071D02*
X181400001Y-202208214D01*
X181400001Y-202208214D02*
X181400001Y-201779642D01*
X181400001Y-201779642D02*
X181471429Y-201636785D01*
X181471429Y-201636785D02*
X181542858Y-201565357D01*
X181542858Y-201565357D02*
X181685715Y-201493928D01*
X181685715Y-201493928D02*
X181971429Y-201493928D01*
X181971429Y-201493928D02*
X182114287Y-201565357D01*
X183828572Y-200993928D02*
X184828572Y-200993928D01*
X184828572Y-200993928D02*
X184185715Y-202493928D01*
X185400000Y-202351071D02*
X185471429Y-202422500D01*
X185471429Y-202422500D02*
X185400000Y-202493928D01*
X185400000Y-202493928D02*
X185328572Y-202422500D01*
X185328572Y-202422500D02*
X185400000Y-202351071D01*
X185400000Y-202351071D02*
X185400000Y-202493928D01*
X186400001Y-200993928D02*
X186542858Y-200993928D01*
X186542858Y-200993928D02*
X186685715Y-201065357D01*
X186685715Y-201065357D02*
X186757144Y-201136785D01*
X186757144Y-201136785D02*
X186828572Y-201279642D01*
X186828572Y-201279642D02*
X186900001Y-201565357D01*
X186900001Y-201565357D02*
X186900001Y-201922500D01*
X186900001Y-201922500D02*
X186828572Y-202208214D01*
X186828572Y-202208214D02*
X186757144Y-202351071D01*
X186757144Y-202351071D02*
X186685715Y-202422500D01*
X186685715Y-202422500D02*
X186542858Y-202493928D01*
X186542858Y-202493928D02*
X186400001Y-202493928D01*
X186400001Y-202493928D02*
X186257144Y-202422500D01*
X186257144Y-202422500D02*
X186185715Y-202351071D01*
X186185715Y-202351071D02*
X186114286Y-202208214D01*
X186114286Y-202208214D02*
X186042858Y-201922500D01*
X186042858Y-201922500D02*
X186042858Y-201565357D01*
X186042858Y-201565357D02*
X186114286Y-201279642D01*
X186114286Y-201279642D02*
X186185715Y-201136785D01*
X186185715Y-201136785D02*
X186257144Y-201065357D01*
X186257144Y-201065357D02*
X186400001Y-200993928D01*
X187542857Y-202351071D02*
X187614286Y-202422500D01*
X187614286Y-202422500D02*
X187542857Y-202493928D01*
X187542857Y-202493928D02*
X187471429Y-202422500D01*
X187471429Y-202422500D02*
X187542857Y-202351071D01*
X187542857Y-202351071D02*
X187542857Y-202493928D01*
X189042858Y-202493928D02*
X188185715Y-202493928D01*
X188614286Y-202493928D02*
X188614286Y-200993928D01*
X188614286Y-200993928D02*
X188471429Y-201208214D01*
X188471429Y-201208214D02*
X188328572Y-201351071D01*
X188328572Y-201351071D02*
X188185715Y-201422500D01*
D10*
D11*
X159400000Y-197400000D02*
X267400000Y-197400000D01*
D10*
D12*
X246614285Y-199693928D02*
X246114285Y-198979642D01*
X245757142Y-199693928D02*
X245757142Y-198193928D01*
X245757142Y-198193928D02*
X246328571Y-198193928D01*
X246328571Y-198193928D02*
X246471428Y-198265357D01*
X246471428Y-198265357D02*
X246542857Y-198336785D01*
X246542857Y-198336785D02*
X246614285Y-198479642D01*
X246614285Y-198479642D02*
X246614285Y-198693928D01*
X246614285Y-198693928D02*
X246542857Y-198836785D01*
X246542857Y-198836785D02*
X246471428Y-198908214D01*
X246471428Y-198908214D02*
X246328571Y-198979642D01*
X246328571Y-198979642D02*
X245757142Y-198979642D01*
X247828571Y-199622500D02*
X247685714Y-199693928D01*
X247685714Y-199693928D02*
X247400000Y-199693928D01*
X247400000Y-199693928D02*
X247257142Y-199622500D01*
X247257142Y-199622500D02*
X247185714Y-199479642D01*
X247185714Y-199479642D02*
X247185714Y-198908214D01*
X247185714Y-198908214D02*
X247257142Y-198765357D01*
X247257142Y-198765357D02*
X247400000Y-198693928D01*
X247400000Y-198693928D02*
X247685714Y-198693928D01*
X247685714Y-198693928D02*
X247828571Y-198765357D01*
X247828571Y-198765357D02*
X247900000Y-198908214D01*
X247900000Y-198908214D02*
X247900000Y-199051071D01*
X247900000Y-199051071D02*
X247185714Y-199193928D01*
X248399999Y-198693928D02*
X248757142Y-199693928D01*
X248757142Y-199693928D02*
X249114285Y-198693928D01*
X249685713Y-199551071D02*
X249757142Y-199622500D01*
X249757142Y-199622500D02*
X249685713Y-199693928D01*
X249685713Y-199693928D02*
X249614285Y-199622500D01*
X249614285Y-199622500D02*
X249685713Y-199551071D01*
X249685713Y-199551071D02*
X249685713Y-199693928D01*
X249685713Y-198765357D02*
X249757142Y-198836785D01*
X249757142Y-198836785D02*
X249685713Y-198908214D01*
X249685713Y-198908214D02*
X249614285Y-198836785D01*
X249614285Y-198836785D02*
X249685713Y-198765357D01*
X249685713Y-198765357D02*
X249685713Y-198908214D01*
D10*
D11*
X160685714Y-199622500D02*
X160900000Y-199693928D01*
X160900000Y-199693928D02*
X161257142Y-199693928D01*
X161257142Y-199693928D02*
X161400000Y-199622500D01*
X161400000Y-199622500D02*
X161471428Y-199551071D01*
X161471428Y-199551071D02*
X161542857Y-199408214D01*
X161542857Y-199408214D02*
X161542857Y-199265357D01*
X161542857Y-199265357D02*
X161471428Y-199122500D01*
X161471428Y-199122500D02*
X161400000Y-199051071D01*
X161400000Y-199051071D02*
X161257142Y-198979642D01*
X161257142Y-198979642D02*
X160971428Y-198908214D01*
X160971428Y-198908214D02*
X160828571Y-198836785D01*
X160828571Y-198836785D02*
X160757142Y-198765357D01*
X160757142Y-198765357D02*
X160685714Y-198622500D01*
X160685714Y-198622500D02*
X160685714Y-198479642D01*
X160685714Y-198479642D02*
X160757142Y-198336785D01*
X160757142Y-198336785D02*
X160828571Y-198265357D01*
X160828571Y-198265357D02*
X160971428Y-198193928D01*
X160971428Y-198193928D02*
X161328571Y-198193928D01*
X161328571Y-198193928D02*
X161542857Y-198265357D01*
X162185713Y-199693928D02*
X162185713Y-198693928D01*
X162185713Y-198193928D02*
X162114285Y-198265357D01*
X162114285Y-198265357D02*
X162185713Y-198336785D01*
X162185713Y-198336785D02*
X162257142Y-198265357D01*
X162257142Y-198265357D02*
X162185713Y-198193928D01*
X162185713Y-198193928D02*
X162185713Y-198336785D01*
X162757142Y-198693928D02*
X163542857Y-198693928D01*
X163542857Y-198693928D02*
X162757142Y-199693928D01*
X162757142Y-199693928D02*
X163542857Y-199693928D01*
X164685714Y-199622500D02*
X164542857Y-199693928D01*
X164542857Y-199693928D02*
X164257143Y-199693928D01*
X164257143Y-199693928D02*
X164114285Y-199622500D01*
X164114285Y-199622500D02*
X164042857Y-199479642D01*
X164042857Y-199479642D02*
X164042857Y-198908214D01*
X164042857Y-198908214D02*
X164114285Y-198765357D01*
X164114285Y-198765357D02*
X164257143Y-198693928D01*
X164257143Y-198693928D02*
X164542857Y-198693928D01*
X164542857Y-198693928D02*
X164685714Y-198765357D01*
X164685714Y-198765357D02*
X164757143Y-198908214D01*
X164757143Y-198908214D02*
X164757143Y-199051071D01*
X164757143Y-199051071D02*
X164042857Y-199193928D01*
X165399999Y-199551071D02*
X165471428Y-199622500D01*
X165471428Y-199622500D02*
X165399999Y-199693928D01*
X165399999Y-199693928D02*
X165328571Y-199622500D01*
X165328571Y-199622500D02*
X165399999Y-199551071D01*
X165399999Y-199551071D02*
X165399999Y-199693928D01*
X165399999Y-198765357D02*
X165471428Y-198836785D01*
X165471428Y-198836785D02*
X165399999Y-198908214D01*
X165399999Y-198908214D02*
X165328571Y-198836785D01*
X165328571Y-198836785D02*
X165399999Y-198765357D01*
X165399999Y-198765357D02*
X165399999Y-198908214D01*
X167257142Y-198193928D02*
X167257142Y-199408214D01*
X167257142Y-199408214D02*
X167328571Y-199551071D01*
X167328571Y-199551071D02*
X167400000Y-199622500D01*
X167400000Y-199622500D02*
X167542857Y-199693928D01*
X167542857Y-199693928D02*
X167828571Y-199693928D01*
X167828571Y-199693928D02*
X167971428Y-199622500D01*
X167971428Y-199622500D02*
X168042857Y-199551071D01*
X168042857Y-199551071D02*
X168114285Y-199408214D01*
X168114285Y-199408214D02*
X168114285Y-198193928D01*
X168757143Y-199622500D02*
X168971429Y-199693928D01*
X168971429Y-199693928D02*
X169328571Y-199693928D01*
X169328571Y-199693928D02*
X169471429Y-199622500D01*
X169471429Y-199622500D02*
X169542857Y-199551071D01*
X169542857Y-199551071D02*
X169614286Y-199408214D01*
X169614286Y-199408214D02*
X169614286Y-199265357D01*
X169614286Y-199265357D02*
X169542857Y-199122500D01*
X169542857Y-199122500D02*
X169471429Y-199051071D01*
X169471429Y-199051071D02*
X169328571Y-198979642D01*
X169328571Y-198979642D02*
X169042857Y-198908214D01*
X169042857Y-198908214D02*
X168900000Y-198836785D01*
X168900000Y-198836785D02*
X168828571Y-198765357D01*
X168828571Y-198765357D02*
X168757143Y-198622500D01*
X168757143Y-198622500D02*
X168757143Y-198479642D01*
X168757143Y-198479642D02*
X168828571Y-198336785D01*
X168828571Y-198336785D02*
X168900000Y-198265357D01*
X168900000Y-198265357D02*
X169042857Y-198193928D01*
X169042857Y-198193928D02*
X169400000Y-198193928D01*
X169400000Y-198193928D02*
X169614286Y-198265357D01*
X170971428Y-199693928D02*
X170257142Y-199693928D01*
X170257142Y-199693928D02*
X170257142Y-198193928D01*
X172042857Y-199622500D02*
X171900000Y-199693928D01*
X171900000Y-199693928D02*
X171614286Y-199693928D01*
X171614286Y-199693928D02*
X171471428Y-199622500D01*
X171471428Y-199622500D02*
X171400000Y-199479642D01*
X171400000Y-199479642D02*
X171400000Y-198908214D01*
X171400000Y-198908214D02*
X171471428Y-198765357D01*
X171471428Y-198765357D02*
X171614286Y-198693928D01*
X171614286Y-198693928D02*
X171900000Y-198693928D01*
X171900000Y-198693928D02*
X172042857Y-198765357D01*
X172042857Y-198765357D02*
X172114286Y-198908214D01*
X172114286Y-198908214D02*
X172114286Y-199051071D01*
X172114286Y-199051071D02*
X171400000Y-199193928D01*
X172542857Y-198693928D02*
X173114285Y-198693928D01*
X172757142Y-198193928D02*
X172757142Y-199479642D01*
X172757142Y-199479642D02*
X172828571Y-199622500D01*
X172828571Y-199622500D02*
X172971428Y-199693928D01*
X172971428Y-199693928D02*
X173114285Y-199693928D01*
X173400000Y-198693928D02*
X173971428Y-198693928D01*
X173614285Y-198193928D02*
X173614285Y-199479642D01*
X173614285Y-199479642D02*
X173685714Y-199622500D01*
X173685714Y-199622500D02*
X173828571Y-199693928D01*
X173828571Y-199693928D02*
X173971428Y-199693928D01*
X175042857Y-199622500D02*
X174900000Y-199693928D01*
X174900000Y-199693928D02*
X174614286Y-199693928D01*
X174614286Y-199693928D02*
X174471428Y-199622500D01*
X174471428Y-199622500D02*
X174400000Y-199479642D01*
X174400000Y-199479642D02*
X174400000Y-198908214D01*
X174400000Y-198908214D02*
X174471428Y-198765357D01*
X174471428Y-198765357D02*
X174614286Y-198693928D01*
X174614286Y-198693928D02*
X174900000Y-198693928D01*
X174900000Y-198693928D02*
X175042857Y-198765357D01*
X175042857Y-198765357D02*
X175114286Y-198908214D01*
X175114286Y-198908214D02*
X175114286Y-199051071D01*
X175114286Y-199051071D02*
X174400000Y-199193928D01*
X175757142Y-199693928D02*
X175757142Y-198693928D01*
X175757142Y-198979642D02*
X175828571Y-198836785D01*
X175828571Y-198836785D02*
X175900000Y-198765357D01*
X175900000Y-198765357D02*
X176042857Y-198693928D01*
X176042857Y-198693928D02*
X176185714Y-198693928D01*
D10*
D11*
X245757142Y-202493928D02*
X245757142Y-200993928D01*
X247114286Y-202493928D02*
X247114286Y-200993928D01*
X247114286Y-202422500D02*
X246971428Y-202493928D01*
X246971428Y-202493928D02*
X246685714Y-202493928D01*
X246685714Y-202493928D02*
X246542857Y-202422500D01*
X246542857Y-202422500D02*
X246471428Y-202351071D01*
X246471428Y-202351071D02*
X246400000Y-202208214D01*
X246400000Y-202208214D02*
X246400000Y-201779642D01*
X246400000Y-201779642D02*
X246471428Y-201636785D01*
X246471428Y-201636785D02*
X246542857Y-201565357D01*
X246542857Y-201565357D02*
X246685714Y-201493928D01*
X246685714Y-201493928D02*
X246971428Y-201493928D01*
X246971428Y-201493928D02*
X247114286Y-201565357D01*
X247828571Y-202351071D02*
X247900000Y-202422500D01*
X247900000Y-202422500D02*
X247828571Y-202493928D01*
X247828571Y-202493928D02*
X247757143Y-202422500D01*
X247757143Y-202422500D02*
X247828571Y-202351071D01*
X247828571Y-202351071D02*
X247828571Y-202493928D01*
X247828571Y-201565357D02*
X247900000Y-201636785D01*
X247900000Y-201636785D02*
X247828571Y-201708214D01*
X247828571Y-201708214D02*
X247757143Y-201636785D01*
X247757143Y-201636785D02*
X247828571Y-201565357D01*
X247828571Y-201565357D02*
X247828571Y-201708214D01*
X250471429Y-202493928D02*
X249614286Y-202493928D01*
X250042857Y-202493928D02*
X250042857Y-200993928D01*
X250042857Y-200993928D02*
X249900000Y-201208214D01*
X249900000Y-201208214D02*
X249757143Y-201351071D01*
X249757143Y-201351071D02*
X249614286Y-201422500D01*
X252185714Y-200922500D02*
X250900000Y-202851071D01*
X253471429Y-202493928D02*
X252614286Y-202493928D01*
X253042857Y-202493928D02*
X253042857Y-200993928D01*
X253042857Y-200993928D02*
X252900000Y-201208214D01*
X252900000Y-201208214D02*
X252757143Y-201351071D01*
X252757143Y-201351071D02*
X252614286Y-201422500D01*
D10*
D11*
X159400000Y-193400000D02*
X267400000Y-193400000D01*
D10*
D13*
X160828571Y-194125238D02*
X161971428Y-194125238D01*
X161150000Y-196125238D02*
X161400000Y-194125238D01*
X162376190Y-196125238D02*
X162542857Y-194791904D01*
X162626190Y-194125238D02*
X162519047Y-194220476D01*
X162519047Y-194220476D02*
X162602381Y-194315714D01*
X162602381Y-194315714D02*
X162709524Y-194220476D01*
X162709524Y-194220476D02*
X162626190Y-194125238D01*
X162626190Y-194125238D02*
X162602381Y-194315714D01*
X163197619Y-194791904D02*
X163959523Y-194791904D01*
X163566666Y-194125238D02*
X163352381Y-195839523D01*
X163352381Y-195839523D02*
X163423809Y-196030000D01*
X163423809Y-196030000D02*
X163602381Y-196125238D01*
X163602381Y-196125238D02*
X163792857Y-196125238D01*
X164733333Y-196125238D02*
X164554761Y-196030000D01*
X164554761Y-196030000D02*
X164483333Y-195839523D01*
X164483333Y-195839523D02*
X164697618Y-194125238D01*
X166257142Y-196030000D02*
X166054761Y-196125238D01*
X166054761Y-196125238D02*
X165673808Y-196125238D01*
X165673808Y-196125238D02*
X165495237Y-196030000D01*
X165495237Y-196030000D02*
X165423808Y-195839523D01*
X165423808Y-195839523D02*
X165519047Y-195077619D01*
X165519047Y-195077619D02*
X165638094Y-194887142D01*
X165638094Y-194887142D02*
X165840475Y-194791904D01*
X165840475Y-194791904D02*
X166221427Y-194791904D01*
X166221427Y-194791904D02*
X166399999Y-194887142D01*
X166399999Y-194887142D02*
X166471427Y-195077619D01*
X166471427Y-195077619D02*
X166447618Y-195268095D01*
X166447618Y-195268095D02*
X165471427Y-195458571D01*
X167209523Y-195934761D02*
X167292856Y-196030000D01*
X167292856Y-196030000D02*
X167185713Y-196125238D01*
X167185713Y-196125238D02*
X167102380Y-196030000D01*
X167102380Y-196030000D02*
X167209523Y-195934761D01*
X167209523Y-195934761D02*
X167185713Y-196125238D01*
X167340475Y-194887142D02*
X167423808Y-194982380D01*
X167423808Y-194982380D02*
X167316666Y-195077619D01*
X167316666Y-195077619D02*
X167233332Y-194982380D01*
X167233332Y-194982380D02*
X167340475Y-194887142D01*
X167340475Y-194887142D02*
X167316666Y-195077619D01*
D10*
D11*
X161257142Y-191508214D02*
X160757142Y-191508214D01*
X160757142Y-192293928D02*
X160757142Y-190793928D01*
X160757142Y-190793928D02*
X161471428Y-190793928D01*
X162042856Y-192293928D02*
X162042856Y-191293928D01*
X162042856Y-190793928D02*
X161971428Y-190865357D01*
X161971428Y-190865357D02*
X162042856Y-190936785D01*
X162042856Y-190936785D02*
X162114285Y-190865357D01*
X162114285Y-190865357D02*
X162042856Y-190793928D01*
X162042856Y-190793928D02*
X162042856Y-190936785D01*
X162971428Y-192293928D02*
X162828571Y-192222500D01*
X162828571Y-192222500D02*
X162757142Y-192079642D01*
X162757142Y-192079642D02*
X162757142Y-190793928D01*
X164114285Y-192222500D02*
X163971428Y-192293928D01*
X163971428Y-192293928D02*
X163685714Y-192293928D01*
X163685714Y-192293928D02*
X163542856Y-192222500D01*
X163542856Y-192222500D02*
X163471428Y-192079642D01*
X163471428Y-192079642D02*
X163471428Y-191508214D01*
X163471428Y-191508214D02*
X163542856Y-191365357D01*
X163542856Y-191365357D02*
X163685714Y-191293928D01*
X163685714Y-191293928D02*
X163971428Y-191293928D01*
X163971428Y-191293928D02*
X164114285Y-191365357D01*
X164114285Y-191365357D02*
X164185714Y-191508214D01*
X164185714Y-191508214D02*
X164185714Y-191651071D01*
X164185714Y-191651071D02*
X163471428Y-191793928D01*
X164828570Y-192151071D02*
X164899999Y-192222500D01*
X164899999Y-192222500D02*
X164828570Y-192293928D01*
X164828570Y-192293928D02*
X164757142Y-192222500D01*
X164757142Y-192222500D02*
X164828570Y-192151071D01*
X164828570Y-192151071D02*
X164828570Y-192293928D01*
X164828570Y-191365357D02*
X164899999Y-191436785D01*
X164899999Y-191436785D02*
X164828570Y-191508214D01*
X164828570Y-191508214D02*
X164757142Y-191436785D01*
X164757142Y-191436785D02*
X164828570Y-191365357D01*
X164828570Y-191365357D02*
X164828570Y-191508214D01*
X166685713Y-192293928D02*
X166685713Y-190793928D01*
X166685713Y-190793928D02*
X167257142Y-190793928D01*
X167257142Y-190793928D02*
X167399999Y-190865357D01*
X167399999Y-190865357D02*
X167471428Y-190936785D01*
X167471428Y-190936785D02*
X167542856Y-191079642D01*
X167542856Y-191079642D02*
X167542856Y-191293928D01*
X167542856Y-191293928D02*
X167471428Y-191436785D01*
X167471428Y-191436785D02*
X167399999Y-191508214D01*
X167399999Y-191508214D02*
X167257142Y-191579642D01*
X167257142Y-191579642D02*
X166685713Y-191579642D01*
X169042856Y-192151071D02*
X168971428Y-192222500D01*
X168971428Y-192222500D02*
X168757142Y-192293928D01*
X168757142Y-192293928D02*
X168614285Y-192293928D01*
X168614285Y-192293928D02*
X168399999Y-192222500D01*
X168399999Y-192222500D02*
X168257142Y-192079642D01*
X168257142Y-192079642D02*
X168185713Y-191936785D01*
X168185713Y-191936785D02*
X168114285Y-191651071D01*
X168114285Y-191651071D02*
X168114285Y-191436785D01*
X168114285Y-191436785D02*
X168185713Y-191151071D01*
X168185713Y-191151071D02*
X168257142Y-191008214D01*
X168257142Y-191008214D02*
X168399999Y-190865357D01*
X168399999Y-190865357D02*
X168614285Y-190793928D01*
X168614285Y-190793928D02*
X168757142Y-190793928D01*
X168757142Y-190793928D02*
X168971428Y-190865357D01*
X168971428Y-190865357D02*
X169042856Y-190936785D01*
X170185713Y-191508214D02*
X170399999Y-191579642D01*
X170399999Y-191579642D02*
X170471428Y-191651071D01*
X170471428Y-191651071D02*
X170542856Y-191793928D01*
X170542856Y-191793928D02*
X170542856Y-192008214D01*
X170542856Y-192008214D02*
X170471428Y-192151071D01*
X170471428Y-192151071D02*
X170399999Y-192222500D01*
X170399999Y-192222500D02*
X170257142Y-192293928D01*
X170257142Y-192293928D02*
X169685713Y-192293928D01*
X169685713Y-192293928D02*
X169685713Y-190793928D01*
X169685713Y-190793928D02*
X170185713Y-190793928D01*
X170185713Y-190793928D02*
X170328571Y-190865357D01*
X170328571Y-190865357D02*
X170399999Y-190936785D01*
X170399999Y-190936785D02*
X170471428Y-191079642D01*
X170471428Y-191079642D02*
X170471428Y-191222500D01*
X170471428Y-191222500D02*
X170399999Y-191365357D01*
X170399999Y-191365357D02*
X170328571Y-191436785D01*
X170328571Y-191436785D02*
X170185713Y-191508214D01*
X170185713Y-191508214D02*
X169685713Y-191508214D01*
X171185713Y-192151071D02*
X171257142Y-192222500D01*
X171257142Y-192222500D02*
X171185713Y-192293928D01*
X171185713Y-192293928D02*
X171114285Y-192222500D01*
X171114285Y-192222500D02*
X171185713Y-192151071D01*
X171185713Y-192151071D02*
X171185713Y-192293928D01*
X171899999Y-192293928D02*
X171899999Y-190793928D01*
X172042857Y-191722500D02*
X172471428Y-192293928D01*
X172471428Y-191293928D02*
X171899999Y-191865357D01*
X173114285Y-192293928D02*
X173114285Y-191293928D01*
X173114285Y-190793928D02*
X173042857Y-190865357D01*
X173042857Y-190865357D02*
X173114285Y-190936785D01*
X173114285Y-190936785D02*
X173185714Y-190865357D01*
X173185714Y-190865357D02*
X173114285Y-190793928D01*
X173114285Y-190793928D02*
X173114285Y-190936785D01*
X174471429Y-192222500D02*
X174328571Y-192293928D01*
X174328571Y-192293928D02*
X174042857Y-192293928D01*
X174042857Y-192293928D02*
X173900000Y-192222500D01*
X173900000Y-192222500D02*
X173828571Y-192151071D01*
X173828571Y-192151071D02*
X173757143Y-192008214D01*
X173757143Y-192008214D02*
X173757143Y-191579642D01*
X173757143Y-191579642D02*
X173828571Y-191436785D01*
X173828571Y-191436785D02*
X173900000Y-191365357D01*
X173900000Y-191365357D02*
X174042857Y-191293928D01*
X174042857Y-191293928D02*
X174328571Y-191293928D01*
X174328571Y-191293928D02*
X174471429Y-191365357D01*
X175757143Y-192293928D02*
X175757143Y-191508214D01*
X175757143Y-191508214D02*
X175685714Y-191365357D01*
X175685714Y-191365357D02*
X175542857Y-191293928D01*
X175542857Y-191293928D02*
X175257143Y-191293928D01*
X175257143Y-191293928D02*
X175114285Y-191365357D01*
X175757143Y-192222500D02*
X175614285Y-192293928D01*
X175614285Y-192293928D02*
X175257143Y-192293928D01*
X175257143Y-192293928D02*
X175114285Y-192222500D01*
X175114285Y-192222500D02*
X175042857Y-192079642D01*
X175042857Y-192079642D02*
X175042857Y-191936785D01*
X175042857Y-191936785D02*
X175114285Y-191793928D01*
X175114285Y-191793928D02*
X175257143Y-191722500D01*
X175257143Y-191722500D02*
X175614285Y-191722500D01*
X175614285Y-191722500D02*
X175757143Y-191651071D01*
X177114286Y-192293928D02*
X177114286Y-190793928D01*
X177114286Y-192222500D02*
X176971428Y-192293928D01*
X176971428Y-192293928D02*
X176685714Y-192293928D01*
X176685714Y-192293928D02*
X176542857Y-192222500D01*
X176542857Y-192222500D02*
X176471428Y-192151071D01*
X176471428Y-192151071D02*
X176400000Y-192008214D01*
X176400000Y-192008214D02*
X176400000Y-191579642D01*
X176400000Y-191579642D02*
X176471428Y-191436785D01*
X176471428Y-191436785D02*
X176542857Y-191365357D01*
X176542857Y-191365357D02*
X176685714Y-191293928D01*
X176685714Y-191293928D02*
X176971428Y-191293928D01*
X176971428Y-191293928D02*
X177114286Y-191365357D01*
X177471429Y-192436785D02*
X178614286Y-192436785D01*
X178971428Y-191293928D02*
X178971428Y-192793928D01*
X178971428Y-191365357D02*
X179114286Y-191293928D01*
X179114286Y-191293928D02*
X179400000Y-191293928D01*
X179400000Y-191293928D02*
X179542857Y-191365357D01*
X179542857Y-191365357D02*
X179614286Y-191436785D01*
X179614286Y-191436785D02*
X179685714Y-191579642D01*
X179685714Y-191579642D02*
X179685714Y-192008214D01*
X179685714Y-192008214D02*
X179614286Y-192151071D01*
X179614286Y-192151071D02*
X179542857Y-192222500D01*
X179542857Y-192222500D02*
X179400000Y-192293928D01*
X179400000Y-192293928D02*
X179114286Y-192293928D01*
X179114286Y-192293928D02*
X178971428Y-192222500D01*
X180971429Y-192222500D02*
X180828571Y-192293928D01*
X180828571Y-192293928D02*
X180542857Y-192293928D01*
X180542857Y-192293928D02*
X180400000Y-192222500D01*
X180400000Y-192222500D02*
X180328571Y-192151071D01*
X180328571Y-192151071D02*
X180257143Y-192008214D01*
X180257143Y-192008214D02*
X180257143Y-191579642D01*
X180257143Y-191579642D02*
X180328571Y-191436785D01*
X180328571Y-191436785D02*
X180400000Y-191365357D01*
X180400000Y-191365357D02*
X180542857Y-191293928D01*
X180542857Y-191293928D02*
X180828571Y-191293928D01*
X180828571Y-191293928D02*
X180971429Y-191365357D01*
X181614285Y-192293928D02*
X181614285Y-190793928D01*
X181614285Y-191365357D02*
X181757143Y-191293928D01*
X181757143Y-191293928D02*
X182042857Y-191293928D01*
X182042857Y-191293928D02*
X182185714Y-191365357D01*
X182185714Y-191365357D02*
X182257143Y-191436785D01*
X182257143Y-191436785D02*
X182328571Y-191579642D01*
X182328571Y-191579642D02*
X182328571Y-192008214D01*
X182328571Y-192008214D02*
X182257143Y-192151071D01*
X182257143Y-192151071D02*
X182185714Y-192222500D01*
X182185714Y-192222500D02*
X182042857Y-192293928D01*
X182042857Y-192293928D02*
X181757143Y-192293928D01*
X181757143Y-192293928D02*
X181614285Y-192222500D01*
D10*
D11*
X159400000Y-187400000D02*
X267400000Y-187400000D01*
D10*
D11*
X160685714Y-189522500D02*
X160900000Y-189593928D01*
X160900000Y-189593928D02*
X161257142Y-189593928D01*
X161257142Y-189593928D02*
X161400000Y-189522500D01*
X161400000Y-189522500D02*
X161471428Y-189451071D01*
X161471428Y-189451071D02*
X161542857Y-189308214D01*
X161542857Y-189308214D02*
X161542857Y-189165357D01*
X161542857Y-189165357D02*
X161471428Y-189022500D01*
X161471428Y-189022500D02*
X161400000Y-188951071D01*
X161400000Y-188951071D02*
X161257142Y-188879642D01*
X161257142Y-188879642D02*
X160971428Y-188808214D01*
X160971428Y-188808214D02*
X160828571Y-188736785D01*
X160828571Y-188736785D02*
X160757142Y-188665357D01*
X160757142Y-188665357D02*
X160685714Y-188522500D01*
X160685714Y-188522500D02*
X160685714Y-188379642D01*
X160685714Y-188379642D02*
X160757142Y-188236785D01*
X160757142Y-188236785D02*
X160828571Y-188165357D01*
X160828571Y-188165357D02*
X160971428Y-188093928D01*
X160971428Y-188093928D02*
X161328571Y-188093928D01*
X161328571Y-188093928D02*
X161542857Y-188165357D01*
X162185713Y-189593928D02*
X162185713Y-188093928D01*
X162828571Y-189593928D02*
X162828571Y-188808214D01*
X162828571Y-188808214D02*
X162757142Y-188665357D01*
X162757142Y-188665357D02*
X162614285Y-188593928D01*
X162614285Y-188593928D02*
X162399999Y-188593928D01*
X162399999Y-188593928D02*
X162257142Y-188665357D01*
X162257142Y-188665357D02*
X162185713Y-188736785D01*
X164114285Y-189522500D02*
X163971428Y-189593928D01*
X163971428Y-189593928D02*
X163685714Y-189593928D01*
X163685714Y-189593928D02*
X163542856Y-189522500D01*
X163542856Y-189522500D02*
X163471428Y-189379642D01*
X163471428Y-189379642D02*
X163471428Y-188808214D01*
X163471428Y-188808214D02*
X163542856Y-188665357D01*
X163542856Y-188665357D02*
X163685714Y-188593928D01*
X163685714Y-188593928D02*
X163971428Y-188593928D01*
X163971428Y-188593928D02*
X164114285Y-188665357D01*
X164114285Y-188665357D02*
X164185714Y-188808214D01*
X164185714Y-188808214D02*
X164185714Y-188951071D01*
X164185714Y-188951071D02*
X163471428Y-189093928D01*
X165399999Y-189522500D02*
X165257142Y-189593928D01*
X165257142Y-189593928D02*
X164971428Y-189593928D01*
X164971428Y-189593928D02*
X164828570Y-189522500D01*
X164828570Y-189522500D02*
X164757142Y-189379642D01*
X164757142Y-189379642D02*
X164757142Y-188808214D01*
X164757142Y-188808214D02*
X164828570Y-188665357D01*
X164828570Y-188665357D02*
X164971428Y-188593928D01*
X164971428Y-188593928D02*
X165257142Y-188593928D01*
X165257142Y-188593928D02*
X165399999Y-188665357D01*
X165399999Y-188665357D02*
X165471428Y-188808214D01*
X165471428Y-188808214D02*
X165471428Y-188951071D01*
X165471428Y-188951071D02*
X164757142Y-189093928D01*
X165899999Y-188593928D02*
X166471427Y-188593928D01*
X166114284Y-188093928D02*
X166114284Y-189379642D01*
X166114284Y-189379642D02*
X166185713Y-189522500D01*
X166185713Y-189522500D02*
X166328570Y-189593928D01*
X166328570Y-189593928D02*
X166471427Y-189593928D01*
X166971427Y-189451071D02*
X167042856Y-189522500D01*
X167042856Y-189522500D02*
X166971427Y-189593928D01*
X166971427Y-189593928D02*
X166899999Y-189522500D01*
X166899999Y-189522500D02*
X166971427Y-189451071D01*
X166971427Y-189451071D02*
X166971427Y-189593928D01*
X166971427Y-188665357D02*
X167042856Y-188736785D01*
X167042856Y-188736785D02*
X166971427Y-188808214D01*
X166971427Y-188808214D02*
X166899999Y-188736785D01*
X166899999Y-188736785D02*
X166971427Y-188665357D01*
X166971427Y-188665357D02*
X166971427Y-188808214D01*
D10*
D12*
D10*
D11*
D10*
D11*
D10*
D11*
D10*
D11*
D10*
D11*
X179400000Y-197400000D02*
X179400000Y-200400000D01*
D10*
D11*
X243400000Y-197400000D02*
X243400000Y-203900000D01*
%TO.C,M1*%
X169370476Y-107142619D02*
X169370476Y-106142619D01*
X169370476Y-106142619D02*
X169703809Y-106856904D01*
X169703809Y-106856904D02*
X170037142Y-106142619D01*
X170037142Y-106142619D02*
X170037142Y-107142619D01*
X171037142Y-107142619D02*
X170465714Y-107142619D01*
X170751428Y-107142619D02*
X170751428Y-106142619D01*
X170751428Y-106142619D02*
X170656190Y-106285476D01*
X170656190Y-106285476D02*
X170560952Y-106380714D01*
X170560952Y-106380714D02*
X170465714Y-106428333D01*
%TO.C,U2*%
X169642339Y-94742300D02*
X170452284Y-94742300D01*
X170452284Y-94742300D02*
X170547572Y-94694657D01*
X170547572Y-94694657D02*
X170595216Y-94647013D01*
X170595216Y-94647013D02*
X170642859Y-94551725D01*
X170642859Y-94551725D02*
X170642859Y-94361150D01*
X170642859Y-94361150D02*
X170595216Y-94265862D01*
X170595216Y-94265862D02*
X170547572Y-94218219D01*
X170547572Y-94218219D02*
X170452284Y-94170575D01*
X170452284Y-94170575D02*
X169642339Y-94170575D01*
X169737627Y-93741780D02*
X169689983Y-93694136D01*
X169689983Y-93694136D02*
X169642339Y-93598849D01*
X169642339Y-93598849D02*
X169642339Y-93360630D01*
X169642339Y-93360630D02*
X169689983Y-93265342D01*
X169689983Y-93265342D02*
X169737627Y-93217698D01*
X169737627Y-93217698D02*
X169832915Y-93170055D01*
X169832915Y-93170055D02*
X169928202Y-93170055D01*
X169928202Y-93170055D02*
X170071134Y-93217698D01*
X170071134Y-93217698D02*
X170642859Y-93789424D01*
X170642859Y-93789424D02*
X170642859Y-93170055D01*
%TO.C,U1*%
X145288095Y-101062619D02*
X145288095Y-101872142D01*
X145288095Y-101872142D02*
X145335714Y-101967380D01*
X145335714Y-101967380D02*
X145383333Y-102015000D01*
X145383333Y-102015000D02*
X145478571Y-102062619D01*
X145478571Y-102062619D02*
X145669047Y-102062619D01*
X145669047Y-102062619D02*
X145764285Y-102015000D01*
X145764285Y-102015000D02*
X145811904Y-101967380D01*
X145811904Y-101967380D02*
X145859523Y-101872142D01*
X145859523Y-101872142D02*
X145859523Y-101062619D01*
X146859523Y-102062619D02*
X146288095Y-102062619D01*
X146573809Y-102062619D02*
X146573809Y-101062619D01*
X146573809Y-101062619D02*
X146478571Y-101205476D01*
X146478571Y-101205476D02*
X146383333Y-101300714D01*
X146383333Y-101300714D02*
X146288095Y-101348333D01*
X157741904Y-96030238D02*
X157646666Y-95982619D01*
X157646666Y-95982619D02*
X157503809Y-95982619D01*
X157503809Y-95982619D02*
X157360952Y-96030238D01*
X157360952Y-96030238D02*
X157265714Y-96125476D01*
X157265714Y-96125476D02*
X157218095Y-96220714D01*
X157218095Y-96220714D02*
X157170476Y-96411190D01*
X157170476Y-96411190D02*
X157170476Y-96554047D01*
X157170476Y-96554047D02*
X157218095Y-96744523D01*
X157218095Y-96744523D02*
X157265714Y-96839761D01*
X157265714Y-96839761D02*
X157360952Y-96935000D01*
X157360952Y-96935000D02*
X157503809Y-96982619D01*
X157503809Y-96982619D02*
X157599047Y-96982619D01*
X157599047Y-96982619D02*
X157741904Y-96935000D01*
X157741904Y-96935000D02*
X157789523Y-96887380D01*
X157789523Y-96887380D02*
X157789523Y-96554047D01*
X157789523Y-96554047D02*
X157599047Y-96554047D01*
X133858095Y-106142619D02*
X134477142Y-106142619D01*
X134477142Y-106142619D02*
X134143809Y-106523571D01*
X134143809Y-106523571D02*
X134286666Y-106523571D01*
X134286666Y-106523571D02*
X134381904Y-106571190D01*
X134381904Y-106571190D02*
X134429523Y-106618809D01*
X134429523Y-106618809D02*
X134477142Y-106714047D01*
X134477142Y-106714047D02*
X134477142Y-106952142D01*
X134477142Y-106952142D02*
X134429523Y-107047380D01*
X134429523Y-107047380D02*
X134381904Y-107095000D01*
X134381904Y-107095000D02*
X134286666Y-107142619D01*
X134286666Y-107142619D02*
X134000952Y-107142619D01*
X134000952Y-107142619D02*
X133905714Y-107095000D01*
X133905714Y-107095000D02*
X133858095Y-107047380D01*
X134762857Y-106142619D02*
X135096190Y-107142619D01*
X135096190Y-107142619D02*
X135429523Y-106142619D01*
X156718095Y-111222619D02*
X157289523Y-111222619D01*
X157003809Y-112222619D02*
X157003809Y-111222619D01*
X157527619Y-111222619D02*
X158194285Y-112222619D01*
X158194285Y-111222619D02*
X157527619Y-112222619D01*
X133881905Y-109158809D02*
X134215238Y-109158809D01*
X134358095Y-109682619D02*
X133881905Y-109682619D01*
X133881905Y-109682619D02*
X133881905Y-108682619D01*
X133881905Y-108682619D02*
X134358095Y-108682619D01*
X134786667Y-109682619D02*
X134786667Y-108682619D01*
X134786667Y-108682619D02*
X135358095Y-109682619D01*
X135358095Y-109682619D02*
X135358095Y-108682619D01*
X133858095Y-91855000D02*
X134000952Y-91902619D01*
X134000952Y-91902619D02*
X134239047Y-91902619D01*
X134239047Y-91902619D02*
X134334285Y-91855000D01*
X134334285Y-91855000D02*
X134381904Y-91807380D01*
X134381904Y-91807380D02*
X134429523Y-91712142D01*
X134429523Y-91712142D02*
X134429523Y-91616904D01*
X134429523Y-91616904D02*
X134381904Y-91521666D01*
X134381904Y-91521666D02*
X134334285Y-91474047D01*
X134334285Y-91474047D02*
X134239047Y-91426428D01*
X134239047Y-91426428D02*
X134048571Y-91378809D01*
X134048571Y-91378809D02*
X133953333Y-91331190D01*
X133953333Y-91331190D02*
X133905714Y-91283571D01*
X133905714Y-91283571D02*
X133858095Y-91188333D01*
X133858095Y-91188333D02*
X133858095Y-91093095D01*
X133858095Y-91093095D02*
X133905714Y-90997857D01*
X133905714Y-90997857D02*
X133953333Y-90950238D01*
X133953333Y-90950238D02*
X134048571Y-90902619D01*
X134048571Y-90902619D02*
X134286666Y-90902619D01*
X134286666Y-90902619D02*
X134429523Y-90950238D01*
X134810476Y-90997857D02*
X134858095Y-90950238D01*
X134858095Y-90950238D02*
X134953333Y-90902619D01*
X134953333Y-90902619D02*
X135191428Y-90902619D01*
X135191428Y-90902619D02*
X135286666Y-90950238D01*
X135286666Y-90950238D02*
X135334285Y-90997857D01*
X135334285Y-90997857D02*
X135381904Y-91093095D01*
X135381904Y-91093095D02*
X135381904Y-91188333D01*
X135381904Y-91188333D02*
X135334285Y-91331190D01*
X135334285Y-91331190D02*
X134762857Y-91902619D01*
X134762857Y-91902619D02*
X135381904Y-91902619D01*
X133905714Y-81456904D02*
X134381904Y-81456904D01*
X133810476Y-81742619D02*
X134143809Y-80742619D01*
X134143809Y-80742619D02*
X134477142Y-81742619D01*
X135000952Y-80742619D02*
X135096190Y-80742619D01*
X135096190Y-80742619D02*
X135191428Y-80790238D01*
X135191428Y-80790238D02*
X135239047Y-80837857D01*
X135239047Y-80837857D02*
X135286666Y-80933095D01*
X135286666Y-80933095D02*
X135334285Y-81123571D01*
X135334285Y-81123571D02*
X135334285Y-81361666D01*
X135334285Y-81361666D02*
X135286666Y-81552142D01*
X135286666Y-81552142D02*
X135239047Y-81647380D01*
X135239047Y-81647380D02*
X135191428Y-81695000D01*
X135191428Y-81695000D02*
X135096190Y-81742619D01*
X135096190Y-81742619D02*
X135000952Y-81742619D01*
X135000952Y-81742619D02*
X134905714Y-81695000D01*
X134905714Y-81695000D02*
X134858095Y-81647380D01*
X134858095Y-81647380D02*
X134810476Y-81552142D01*
X134810476Y-81552142D02*
X134762857Y-81361666D01*
X134762857Y-81361666D02*
X134762857Y-81123571D01*
X134762857Y-81123571D02*
X134810476Y-80933095D01*
X134810476Y-80933095D02*
X134858095Y-80837857D01*
X134858095Y-80837857D02*
X134905714Y-80790238D01*
X134905714Y-80790238D02*
X135000952Y-80742619D01*
X134881904Y-113810238D02*
X134786666Y-113762619D01*
X134786666Y-113762619D02*
X134643809Y-113762619D01*
X134643809Y-113762619D02*
X134500952Y-113810238D01*
X134500952Y-113810238D02*
X134405714Y-113905476D01*
X134405714Y-113905476D02*
X134358095Y-114000714D01*
X134358095Y-114000714D02*
X134310476Y-114191190D01*
X134310476Y-114191190D02*
X134310476Y-114334047D01*
X134310476Y-114334047D02*
X134358095Y-114524523D01*
X134358095Y-114524523D02*
X134405714Y-114619761D01*
X134405714Y-114619761D02*
X134500952Y-114715000D01*
X134500952Y-114715000D02*
X134643809Y-114762619D01*
X134643809Y-114762619D02*
X134739047Y-114762619D01*
X134739047Y-114762619D02*
X134881904Y-114715000D01*
X134881904Y-114715000D02*
X134929523Y-114667380D01*
X134929523Y-114667380D02*
X134929523Y-114334047D01*
X134929523Y-114334047D02*
X134739047Y-114334047D01*
X156741905Y-91902619D02*
X156741905Y-90902619D01*
X156741905Y-90902619D02*
X156980000Y-90902619D01*
X156980000Y-90902619D02*
X157122857Y-90950238D01*
X157122857Y-90950238D02*
X157218095Y-91045476D01*
X157218095Y-91045476D02*
X157265714Y-91140714D01*
X157265714Y-91140714D02*
X157313333Y-91331190D01*
X157313333Y-91331190D02*
X157313333Y-91474047D01*
X157313333Y-91474047D02*
X157265714Y-91664523D01*
X157265714Y-91664523D02*
X157218095Y-91759761D01*
X157218095Y-91759761D02*
X157122857Y-91855000D01*
X157122857Y-91855000D02*
X156980000Y-91902619D01*
X156980000Y-91902619D02*
X156741905Y-91902619D01*
X158170476Y-91235952D02*
X158170476Y-91902619D01*
X157932381Y-90855000D02*
X157694286Y-91569285D01*
X157694286Y-91569285D02*
X158313333Y-91569285D01*
X133834286Y-102015000D02*
X133977143Y-102062619D01*
X133977143Y-102062619D02*
X134215238Y-102062619D01*
X134215238Y-102062619D02*
X134310476Y-102015000D01*
X134310476Y-102015000D02*
X134358095Y-101967380D01*
X134358095Y-101967380D02*
X134405714Y-101872142D01*
X134405714Y-101872142D02*
X134405714Y-101776904D01*
X134405714Y-101776904D02*
X134358095Y-101681666D01*
X134358095Y-101681666D02*
X134310476Y-101634047D01*
X134310476Y-101634047D02*
X134215238Y-101586428D01*
X134215238Y-101586428D02*
X134024762Y-101538809D01*
X134024762Y-101538809D02*
X133929524Y-101491190D01*
X133929524Y-101491190D02*
X133881905Y-101443571D01*
X133881905Y-101443571D02*
X133834286Y-101348333D01*
X133834286Y-101348333D02*
X133834286Y-101253095D01*
X133834286Y-101253095D02*
X133881905Y-101157857D01*
X133881905Y-101157857D02*
X133929524Y-101110238D01*
X133929524Y-101110238D02*
X134024762Y-101062619D01*
X134024762Y-101062619D02*
X134262857Y-101062619D01*
X134262857Y-101062619D02*
X134405714Y-101110238D01*
X134834286Y-102062619D02*
X134834286Y-101062619D01*
X135405714Y-102062619D02*
X134977143Y-101491190D01*
X135405714Y-101062619D02*
X134834286Y-101634047D01*
X133810476Y-99475000D02*
X133953333Y-99522619D01*
X133953333Y-99522619D02*
X134191428Y-99522619D01*
X134191428Y-99522619D02*
X134286666Y-99475000D01*
X134286666Y-99475000D02*
X134334285Y-99427380D01*
X134334285Y-99427380D02*
X134381904Y-99332142D01*
X134381904Y-99332142D02*
X134381904Y-99236904D01*
X134381904Y-99236904D02*
X134334285Y-99141666D01*
X134334285Y-99141666D02*
X134286666Y-99094047D01*
X134286666Y-99094047D02*
X134191428Y-99046428D01*
X134191428Y-99046428D02*
X134000952Y-98998809D01*
X134000952Y-98998809D02*
X133905714Y-98951190D01*
X133905714Y-98951190D02*
X133858095Y-98903571D01*
X133858095Y-98903571D02*
X133810476Y-98808333D01*
X133810476Y-98808333D02*
X133810476Y-98713095D01*
X133810476Y-98713095D02*
X133858095Y-98617857D01*
X133858095Y-98617857D02*
X133905714Y-98570238D01*
X133905714Y-98570238D02*
X134000952Y-98522619D01*
X134000952Y-98522619D02*
X134239047Y-98522619D01*
X134239047Y-98522619D02*
X134381904Y-98570238D01*
X135000952Y-98522619D02*
X135191428Y-98522619D01*
X135191428Y-98522619D02*
X135286666Y-98570238D01*
X135286666Y-98570238D02*
X135381904Y-98665476D01*
X135381904Y-98665476D02*
X135429523Y-98855952D01*
X135429523Y-98855952D02*
X135429523Y-99189285D01*
X135429523Y-99189285D02*
X135381904Y-99379761D01*
X135381904Y-99379761D02*
X135286666Y-99475000D01*
X135286666Y-99475000D02*
X135191428Y-99522619D01*
X135191428Y-99522619D02*
X135000952Y-99522619D01*
X135000952Y-99522619D02*
X134905714Y-99475000D01*
X134905714Y-99475000D02*
X134810476Y-99379761D01*
X134810476Y-99379761D02*
X134762857Y-99189285D01*
X134762857Y-99189285D02*
X134762857Y-98855952D01*
X134762857Y-98855952D02*
X134810476Y-98665476D01*
X134810476Y-98665476D02*
X134905714Y-98570238D01*
X134905714Y-98570238D02*
X135000952Y-98522619D01*
X156741905Y-86822619D02*
X156741905Y-85822619D01*
X156741905Y-85822619D02*
X156980000Y-85822619D01*
X156980000Y-85822619D02*
X157122857Y-85870238D01*
X157122857Y-85870238D02*
X157218095Y-85965476D01*
X157218095Y-85965476D02*
X157265714Y-86060714D01*
X157265714Y-86060714D02*
X157313333Y-86251190D01*
X157313333Y-86251190D02*
X157313333Y-86394047D01*
X157313333Y-86394047D02*
X157265714Y-86584523D01*
X157265714Y-86584523D02*
X157218095Y-86679761D01*
X157218095Y-86679761D02*
X157122857Y-86775000D01*
X157122857Y-86775000D02*
X156980000Y-86822619D01*
X156980000Y-86822619D02*
X156741905Y-86822619D01*
X157694286Y-85917857D02*
X157741905Y-85870238D01*
X157741905Y-85870238D02*
X157837143Y-85822619D01*
X157837143Y-85822619D02*
X158075238Y-85822619D01*
X158075238Y-85822619D02*
X158170476Y-85870238D01*
X158170476Y-85870238D02*
X158218095Y-85917857D01*
X158218095Y-85917857D02*
X158265714Y-86013095D01*
X158265714Y-86013095D02*
X158265714Y-86108333D01*
X158265714Y-86108333D02*
X158218095Y-86251190D01*
X158218095Y-86251190D02*
X157646667Y-86822619D01*
X157646667Y-86822619D02*
X158265714Y-86822619D01*
X133858095Y-94395000D02*
X134000952Y-94442619D01*
X134000952Y-94442619D02*
X134239047Y-94442619D01*
X134239047Y-94442619D02*
X134334285Y-94395000D01*
X134334285Y-94395000D02*
X134381904Y-94347380D01*
X134381904Y-94347380D02*
X134429523Y-94252142D01*
X134429523Y-94252142D02*
X134429523Y-94156904D01*
X134429523Y-94156904D02*
X134381904Y-94061666D01*
X134381904Y-94061666D02*
X134334285Y-94014047D01*
X134334285Y-94014047D02*
X134239047Y-93966428D01*
X134239047Y-93966428D02*
X134048571Y-93918809D01*
X134048571Y-93918809D02*
X133953333Y-93871190D01*
X133953333Y-93871190D02*
X133905714Y-93823571D01*
X133905714Y-93823571D02*
X133858095Y-93728333D01*
X133858095Y-93728333D02*
X133858095Y-93633095D01*
X133858095Y-93633095D02*
X133905714Y-93537857D01*
X133905714Y-93537857D02*
X133953333Y-93490238D01*
X133953333Y-93490238D02*
X134048571Y-93442619D01*
X134048571Y-93442619D02*
X134286666Y-93442619D01*
X134286666Y-93442619D02*
X134429523Y-93490238D01*
X135381904Y-94442619D02*
X134810476Y-94442619D01*
X135096190Y-94442619D02*
X135096190Y-93442619D01*
X135096190Y-93442619D02*
X135000952Y-93585476D01*
X135000952Y-93585476D02*
X134905714Y-93680714D01*
X134905714Y-93680714D02*
X134810476Y-93728333D01*
X133762857Y-85822619D02*
X134096190Y-86822619D01*
X134096190Y-86822619D02*
X134429523Y-85822619D01*
X134762857Y-85822619D02*
X134762857Y-86632142D01*
X134762857Y-86632142D02*
X134810476Y-86727380D01*
X134810476Y-86727380D02*
X134858095Y-86775000D01*
X134858095Y-86775000D02*
X134953333Y-86822619D01*
X134953333Y-86822619D02*
X135143809Y-86822619D01*
X135143809Y-86822619D02*
X135239047Y-86775000D01*
X135239047Y-86775000D02*
X135286666Y-86727380D01*
X135286666Y-86727380D02*
X135334285Y-86632142D01*
X135334285Y-86632142D02*
X135334285Y-85822619D01*
X156718095Y-116302619D02*
X157337142Y-116302619D01*
X157337142Y-116302619D02*
X157003809Y-116683571D01*
X157003809Y-116683571D02*
X157146666Y-116683571D01*
X157146666Y-116683571D02*
X157241904Y-116731190D01*
X157241904Y-116731190D02*
X157289523Y-116778809D01*
X157289523Y-116778809D02*
X157337142Y-116874047D01*
X157337142Y-116874047D02*
X157337142Y-117112142D01*
X157337142Y-117112142D02*
X157289523Y-117207380D01*
X157289523Y-117207380D02*
X157241904Y-117255000D01*
X157241904Y-117255000D02*
X157146666Y-117302619D01*
X157146666Y-117302619D02*
X156860952Y-117302619D01*
X156860952Y-117302619D02*
X156765714Y-117255000D01*
X156765714Y-117255000D02*
X156718095Y-117207380D01*
X157622857Y-116302619D02*
X157956190Y-117302619D01*
X157956190Y-117302619D02*
X158289523Y-116302619D01*
X133524762Y-116302619D02*
X133858095Y-117302619D01*
X133858095Y-117302619D02*
X134191428Y-116302619D01*
X134524762Y-117302619D02*
X134524762Y-116302619D01*
X135000952Y-117302619D02*
X135000952Y-116302619D01*
X135000952Y-116302619D02*
X135572380Y-117302619D01*
X135572380Y-117302619D02*
X135572380Y-116302619D01*
X134072380Y-112222619D02*
X133739047Y-111746428D01*
X133500952Y-112222619D02*
X133500952Y-111222619D01*
X133500952Y-111222619D02*
X133881904Y-111222619D01*
X133881904Y-111222619D02*
X133977142Y-111270238D01*
X133977142Y-111270238D02*
X134024761Y-111317857D01*
X134024761Y-111317857D02*
X134072380Y-111413095D01*
X134072380Y-111413095D02*
X134072380Y-111555952D01*
X134072380Y-111555952D02*
X134024761Y-111651190D01*
X134024761Y-111651190D02*
X133977142Y-111698809D01*
X133977142Y-111698809D02*
X133881904Y-111746428D01*
X133881904Y-111746428D02*
X133500952Y-111746428D01*
X134453333Y-112175000D02*
X134596190Y-112222619D01*
X134596190Y-112222619D02*
X134834285Y-112222619D01*
X134834285Y-112222619D02*
X134929523Y-112175000D01*
X134929523Y-112175000D02*
X134977142Y-112127380D01*
X134977142Y-112127380D02*
X135024761Y-112032142D01*
X135024761Y-112032142D02*
X135024761Y-111936904D01*
X135024761Y-111936904D02*
X134977142Y-111841666D01*
X134977142Y-111841666D02*
X134929523Y-111794047D01*
X134929523Y-111794047D02*
X134834285Y-111746428D01*
X134834285Y-111746428D02*
X134643809Y-111698809D01*
X134643809Y-111698809D02*
X134548571Y-111651190D01*
X134548571Y-111651190D02*
X134500952Y-111603571D01*
X134500952Y-111603571D02*
X134453333Y-111508333D01*
X134453333Y-111508333D02*
X134453333Y-111413095D01*
X134453333Y-111413095D02*
X134500952Y-111317857D01*
X134500952Y-111317857D02*
X134548571Y-111270238D01*
X134548571Y-111270238D02*
X134643809Y-111222619D01*
X134643809Y-111222619D02*
X134881904Y-111222619D01*
X134881904Y-111222619D02*
X135024761Y-111270238D01*
X135310476Y-111222619D02*
X135881904Y-111222619D01*
X135596190Y-112222619D02*
X135596190Y-111222619D01*
X156741905Y-81742619D02*
X156741905Y-80742619D01*
X156741905Y-80742619D02*
X156980000Y-80742619D01*
X156980000Y-80742619D02*
X157122857Y-80790238D01*
X157122857Y-80790238D02*
X157218095Y-80885476D01*
X157218095Y-80885476D02*
X157265714Y-80980714D01*
X157265714Y-80980714D02*
X157313333Y-81171190D01*
X157313333Y-81171190D02*
X157313333Y-81314047D01*
X157313333Y-81314047D02*
X157265714Y-81504523D01*
X157265714Y-81504523D02*
X157218095Y-81599761D01*
X157218095Y-81599761D02*
X157122857Y-81695000D01*
X157122857Y-81695000D02*
X156980000Y-81742619D01*
X156980000Y-81742619D02*
X156741905Y-81742619D01*
X157932381Y-80742619D02*
X158027619Y-80742619D01*
X158027619Y-80742619D02*
X158122857Y-80790238D01*
X158122857Y-80790238D02*
X158170476Y-80837857D01*
X158170476Y-80837857D02*
X158218095Y-80933095D01*
X158218095Y-80933095D02*
X158265714Y-81123571D01*
X158265714Y-81123571D02*
X158265714Y-81361666D01*
X158265714Y-81361666D02*
X158218095Y-81552142D01*
X158218095Y-81552142D02*
X158170476Y-81647380D01*
X158170476Y-81647380D02*
X158122857Y-81695000D01*
X158122857Y-81695000D02*
X158027619Y-81742619D01*
X158027619Y-81742619D02*
X157932381Y-81742619D01*
X157932381Y-81742619D02*
X157837143Y-81695000D01*
X157837143Y-81695000D02*
X157789524Y-81647380D01*
X157789524Y-81647380D02*
X157741905Y-81552142D01*
X157741905Y-81552142D02*
X157694286Y-81361666D01*
X157694286Y-81361666D02*
X157694286Y-81123571D01*
X157694286Y-81123571D02*
X157741905Y-80933095D01*
X157741905Y-80933095D02*
X157789524Y-80837857D01*
X157789524Y-80837857D02*
X157837143Y-80790238D01*
X157837143Y-80790238D02*
X157932381Y-80742619D01*
X156741905Y-84282619D02*
X156741905Y-83282619D01*
X156741905Y-83282619D02*
X156980000Y-83282619D01*
X156980000Y-83282619D02*
X157122857Y-83330238D01*
X157122857Y-83330238D02*
X157218095Y-83425476D01*
X157218095Y-83425476D02*
X157265714Y-83520714D01*
X157265714Y-83520714D02*
X157313333Y-83711190D01*
X157313333Y-83711190D02*
X157313333Y-83854047D01*
X157313333Y-83854047D02*
X157265714Y-84044523D01*
X157265714Y-84044523D02*
X157218095Y-84139761D01*
X157218095Y-84139761D02*
X157122857Y-84235000D01*
X157122857Y-84235000D02*
X156980000Y-84282619D01*
X156980000Y-84282619D02*
X156741905Y-84282619D01*
X158265714Y-84282619D02*
X157694286Y-84282619D01*
X157980000Y-84282619D02*
X157980000Y-83282619D01*
X157980000Y-83282619D02*
X157884762Y-83425476D01*
X157884762Y-83425476D02*
X157789524Y-83520714D01*
X157789524Y-83520714D02*
X157694286Y-83568333D01*
X133858095Y-89315000D02*
X134000952Y-89362619D01*
X134000952Y-89362619D02*
X134239047Y-89362619D01*
X134239047Y-89362619D02*
X134334285Y-89315000D01*
X134334285Y-89315000D02*
X134381904Y-89267380D01*
X134381904Y-89267380D02*
X134429523Y-89172142D01*
X134429523Y-89172142D02*
X134429523Y-89076904D01*
X134429523Y-89076904D02*
X134381904Y-88981666D01*
X134381904Y-88981666D02*
X134334285Y-88934047D01*
X134334285Y-88934047D02*
X134239047Y-88886428D01*
X134239047Y-88886428D02*
X134048571Y-88838809D01*
X134048571Y-88838809D02*
X133953333Y-88791190D01*
X133953333Y-88791190D02*
X133905714Y-88743571D01*
X133905714Y-88743571D02*
X133858095Y-88648333D01*
X133858095Y-88648333D02*
X133858095Y-88553095D01*
X133858095Y-88553095D02*
X133905714Y-88457857D01*
X133905714Y-88457857D02*
X133953333Y-88410238D01*
X133953333Y-88410238D02*
X134048571Y-88362619D01*
X134048571Y-88362619D02*
X134286666Y-88362619D01*
X134286666Y-88362619D02*
X134429523Y-88410238D01*
X134762857Y-88362619D02*
X135381904Y-88362619D01*
X135381904Y-88362619D02*
X135048571Y-88743571D01*
X135048571Y-88743571D02*
X135191428Y-88743571D01*
X135191428Y-88743571D02*
X135286666Y-88791190D01*
X135286666Y-88791190D02*
X135334285Y-88838809D01*
X135334285Y-88838809D02*
X135381904Y-88934047D01*
X135381904Y-88934047D02*
X135381904Y-89172142D01*
X135381904Y-89172142D02*
X135334285Y-89267380D01*
X135334285Y-89267380D02*
X135286666Y-89315000D01*
X135286666Y-89315000D02*
X135191428Y-89362619D01*
X135191428Y-89362619D02*
X134905714Y-89362619D01*
X134905714Y-89362619D02*
X134810476Y-89315000D01*
X134810476Y-89315000D02*
X134762857Y-89267380D01*
X156741905Y-107142619D02*
X156741905Y-106142619D01*
X156741905Y-106142619D02*
X156980000Y-106142619D01*
X156980000Y-106142619D02*
X157122857Y-106190238D01*
X157122857Y-106190238D02*
X157218095Y-106285476D01*
X157218095Y-106285476D02*
X157265714Y-106380714D01*
X157265714Y-106380714D02*
X157313333Y-106571190D01*
X157313333Y-106571190D02*
X157313333Y-106714047D01*
X157313333Y-106714047D02*
X157265714Y-106904523D01*
X157265714Y-106904523D02*
X157218095Y-106999761D01*
X157218095Y-106999761D02*
X157122857Y-107095000D01*
X157122857Y-107095000D02*
X156980000Y-107142619D01*
X156980000Y-107142619D02*
X156741905Y-107142619D01*
X157884762Y-106571190D02*
X157789524Y-106523571D01*
X157789524Y-106523571D02*
X157741905Y-106475952D01*
X157741905Y-106475952D02*
X157694286Y-106380714D01*
X157694286Y-106380714D02*
X157694286Y-106333095D01*
X157694286Y-106333095D02*
X157741905Y-106237857D01*
X157741905Y-106237857D02*
X157789524Y-106190238D01*
X157789524Y-106190238D02*
X157884762Y-106142619D01*
X157884762Y-106142619D02*
X158075238Y-106142619D01*
X158075238Y-106142619D02*
X158170476Y-106190238D01*
X158170476Y-106190238D02*
X158218095Y-106237857D01*
X158218095Y-106237857D02*
X158265714Y-106333095D01*
X158265714Y-106333095D02*
X158265714Y-106380714D01*
X158265714Y-106380714D02*
X158218095Y-106475952D01*
X158218095Y-106475952D02*
X158170476Y-106523571D01*
X158170476Y-106523571D02*
X158075238Y-106571190D01*
X158075238Y-106571190D02*
X157884762Y-106571190D01*
X157884762Y-106571190D02*
X157789524Y-106618809D01*
X157789524Y-106618809D02*
X157741905Y-106666428D01*
X157741905Y-106666428D02*
X157694286Y-106761666D01*
X157694286Y-106761666D02*
X157694286Y-106952142D01*
X157694286Y-106952142D02*
X157741905Y-107047380D01*
X157741905Y-107047380D02*
X157789524Y-107095000D01*
X157789524Y-107095000D02*
X157884762Y-107142619D01*
X157884762Y-107142619D02*
X158075238Y-107142619D01*
X158075238Y-107142619D02*
X158170476Y-107095000D01*
X158170476Y-107095000D02*
X158218095Y-107047380D01*
X158218095Y-107047380D02*
X158265714Y-106952142D01*
X158265714Y-106952142D02*
X158265714Y-106761666D01*
X158265714Y-106761666D02*
X158218095Y-106666428D01*
X158218095Y-106666428D02*
X158170476Y-106618809D01*
X158170476Y-106618809D02*
X158075238Y-106571190D01*
X156741905Y-99522619D02*
X156741905Y-98522619D01*
X156741905Y-98522619D02*
X156980000Y-98522619D01*
X156980000Y-98522619D02*
X157122857Y-98570238D01*
X157122857Y-98570238D02*
X157218095Y-98665476D01*
X157218095Y-98665476D02*
X157265714Y-98760714D01*
X157265714Y-98760714D02*
X157313333Y-98951190D01*
X157313333Y-98951190D02*
X157313333Y-99094047D01*
X157313333Y-99094047D02*
X157265714Y-99284523D01*
X157265714Y-99284523D02*
X157218095Y-99379761D01*
X157218095Y-99379761D02*
X157122857Y-99475000D01*
X157122857Y-99475000D02*
X156980000Y-99522619D01*
X156980000Y-99522619D02*
X156741905Y-99522619D01*
X158218095Y-98522619D02*
X157741905Y-98522619D01*
X157741905Y-98522619D02*
X157694286Y-98998809D01*
X157694286Y-98998809D02*
X157741905Y-98951190D01*
X157741905Y-98951190D02*
X157837143Y-98903571D01*
X157837143Y-98903571D02*
X158075238Y-98903571D01*
X158075238Y-98903571D02*
X158170476Y-98951190D01*
X158170476Y-98951190D02*
X158218095Y-98998809D01*
X158218095Y-98998809D02*
X158265714Y-99094047D01*
X158265714Y-99094047D02*
X158265714Y-99332142D01*
X158265714Y-99332142D02*
X158218095Y-99427380D01*
X158218095Y-99427380D02*
X158170476Y-99475000D01*
X158170476Y-99475000D02*
X158075238Y-99522619D01*
X158075238Y-99522619D02*
X157837143Y-99522619D01*
X157837143Y-99522619D02*
X157741905Y-99475000D01*
X157741905Y-99475000D02*
X157694286Y-99427380D01*
X156741905Y-102062619D02*
X156741905Y-101062619D01*
X156741905Y-101062619D02*
X156980000Y-101062619D01*
X156980000Y-101062619D02*
X157122857Y-101110238D01*
X157122857Y-101110238D02*
X157218095Y-101205476D01*
X157218095Y-101205476D02*
X157265714Y-101300714D01*
X157265714Y-101300714D02*
X157313333Y-101491190D01*
X157313333Y-101491190D02*
X157313333Y-101634047D01*
X157313333Y-101634047D02*
X157265714Y-101824523D01*
X157265714Y-101824523D02*
X157218095Y-101919761D01*
X157218095Y-101919761D02*
X157122857Y-102015000D01*
X157122857Y-102015000D02*
X156980000Y-102062619D01*
X156980000Y-102062619D02*
X156741905Y-102062619D01*
X158170476Y-101062619D02*
X157980000Y-101062619D01*
X157980000Y-101062619D02*
X157884762Y-101110238D01*
X157884762Y-101110238D02*
X157837143Y-101157857D01*
X157837143Y-101157857D02*
X157741905Y-101300714D01*
X157741905Y-101300714D02*
X157694286Y-101491190D01*
X157694286Y-101491190D02*
X157694286Y-101872142D01*
X157694286Y-101872142D02*
X157741905Y-101967380D01*
X157741905Y-101967380D02*
X157789524Y-102015000D01*
X157789524Y-102015000D02*
X157884762Y-102062619D01*
X157884762Y-102062619D02*
X158075238Y-102062619D01*
X158075238Y-102062619D02*
X158170476Y-102015000D01*
X158170476Y-102015000D02*
X158218095Y-101967380D01*
X158218095Y-101967380D02*
X158265714Y-101872142D01*
X158265714Y-101872142D02*
X158265714Y-101634047D01*
X158265714Y-101634047D02*
X158218095Y-101538809D01*
X158218095Y-101538809D02*
X158170476Y-101491190D01*
X158170476Y-101491190D02*
X158075238Y-101443571D01*
X158075238Y-101443571D02*
X157884762Y-101443571D01*
X157884762Y-101443571D02*
X157789524Y-101491190D01*
X157789524Y-101491190D02*
X157741905Y-101538809D01*
X157741905Y-101538809D02*
X157694286Y-101634047D01*
X157741904Y-113810238D02*
X157646666Y-113762619D01*
X157646666Y-113762619D02*
X157503809Y-113762619D01*
X157503809Y-113762619D02*
X157360952Y-113810238D01*
X157360952Y-113810238D02*
X157265714Y-113905476D01*
X157265714Y-113905476D02*
X157218095Y-114000714D01*
X157218095Y-114000714D02*
X157170476Y-114191190D01*
X157170476Y-114191190D02*
X157170476Y-114334047D01*
X157170476Y-114334047D02*
X157218095Y-114524523D01*
X157218095Y-114524523D02*
X157265714Y-114619761D01*
X157265714Y-114619761D02*
X157360952Y-114715000D01*
X157360952Y-114715000D02*
X157503809Y-114762619D01*
X157503809Y-114762619D02*
X157599047Y-114762619D01*
X157599047Y-114762619D02*
X157741904Y-114715000D01*
X157741904Y-114715000D02*
X157789523Y-114667380D01*
X157789523Y-114667380D02*
X157789523Y-114334047D01*
X157789523Y-114334047D02*
X157599047Y-114334047D01*
X134881904Y-103650238D02*
X134786666Y-103602619D01*
X134786666Y-103602619D02*
X134643809Y-103602619D01*
X134643809Y-103602619D02*
X134500952Y-103650238D01*
X134500952Y-103650238D02*
X134405714Y-103745476D01*
X134405714Y-103745476D02*
X134358095Y-103840714D01*
X134358095Y-103840714D02*
X134310476Y-104031190D01*
X134310476Y-104031190D02*
X134310476Y-104174047D01*
X134310476Y-104174047D02*
X134358095Y-104364523D01*
X134358095Y-104364523D02*
X134405714Y-104459761D01*
X134405714Y-104459761D02*
X134500952Y-104555000D01*
X134500952Y-104555000D02*
X134643809Y-104602619D01*
X134643809Y-104602619D02*
X134739047Y-104602619D01*
X134739047Y-104602619D02*
X134881904Y-104555000D01*
X134881904Y-104555000D02*
X134929523Y-104507380D01*
X134929523Y-104507380D02*
X134929523Y-104174047D01*
X134929523Y-104174047D02*
X134739047Y-104174047D01*
X157313333Y-109682619D02*
X156980000Y-109206428D01*
X156741905Y-109682619D02*
X156741905Y-108682619D01*
X156741905Y-108682619D02*
X157122857Y-108682619D01*
X157122857Y-108682619D02*
X157218095Y-108730238D01*
X157218095Y-108730238D02*
X157265714Y-108777857D01*
X157265714Y-108777857D02*
X157313333Y-108873095D01*
X157313333Y-108873095D02*
X157313333Y-109015952D01*
X157313333Y-109015952D02*
X157265714Y-109111190D01*
X157265714Y-109111190D02*
X157218095Y-109158809D01*
X157218095Y-109158809D02*
X157122857Y-109206428D01*
X157122857Y-109206428D02*
X156741905Y-109206428D01*
X157646667Y-108682619D02*
X158313333Y-109682619D01*
X158313333Y-108682619D02*
X157646667Y-109682619D01*
X134881904Y-83330238D02*
X134786666Y-83282619D01*
X134786666Y-83282619D02*
X134643809Y-83282619D01*
X134643809Y-83282619D02*
X134500952Y-83330238D01*
X134500952Y-83330238D02*
X134405714Y-83425476D01*
X134405714Y-83425476D02*
X134358095Y-83520714D01*
X134358095Y-83520714D02*
X134310476Y-83711190D01*
X134310476Y-83711190D02*
X134310476Y-83854047D01*
X134310476Y-83854047D02*
X134358095Y-84044523D01*
X134358095Y-84044523D02*
X134405714Y-84139761D01*
X134405714Y-84139761D02*
X134500952Y-84235000D01*
X134500952Y-84235000D02*
X134643809Y-84282619D01*
X134643809Y-84282619D02*
X134739047Y-84282619D01*
X134739047Y-84282619D02*
X134881904Y-84235000D01*
X134881904Y-84235000D02*
X134929523Y-84187380D01*
X134929523Y-84187380D02*
X134929523Y-83854047D01*
X134929523Y-83854047D02*
X134739047Y-83854047D01*
X156741905Y-89362619D02*
X156741905Y-88362619D01*
X156741905Y-88362619D02*
X156980000Y-88362619D01*
X156980000Y-88362619D02*
X157122857Y-88410238D01*
X157122857Y-88410238D02*
X157218095Y-88505476D01*
X157218095Y-88505476D02*
X157265714Y-88600714D01*
X157265714Y-88600714D02*
X157313333Y-88791190D01*
X157313333Y-88791190D02*
X157313333Y-88934047D01*
X157313333Y-88934047D02*
X157265714Y-89124523D01*
X157265714Y-89124523D02*
X157218095Y-89219761D01*
X157218095Y-89219761D02*
X157122857Y-89315000D01*
X157122857Y-89315000D02*
X156980000Y-89362619D01*
X156980000Y-89362619D02*
X156741905Y-89362619D01*
X157646667Y-88362619D02*
X158265714Y-88362619D01*
X158265714Y-88362619D02*
X157932381Y-88743571D01*
X157932381Y-88743571D02*
X158075238Y-88743571D01*
X158075238Y-88743571D02*
X158170476Y-88791190D01*
X158170476Y-88791190D02*
X158218095Y-88838809D01*
X158218095Y-88838809D02*
X158265714Y-88934047D01*
X158265714Y-88934047D02*
X158265714Y-89172142D01*
X158265714Y-89172142D02*
X158218095Y-89267380D01*
X158218095Y-89267380D02*
X158170476Y-89315000D01*
X158170476Y-89315000D02*
X158075238Y-89362619D01*
X158075238Y-89362619D02*
X157789524Y-89362619D01*
X157789524Y-89362619D02*
X157694286Y-89315000D01*
X157694286Y-89315000D02*
X157646667Y-89267380D01*
X133834286Y-96935000D02*
X133977143Y-96982619D01*
X133977143Y-96982619D02*
X134215238Y-96982619D01*
X134215238Y-96982619D02*
X134310476Y-96935000D01*
X134310476Y-96935000D02*
X134358095Y-96887380D01*
X134358095Y-96887380D02*
X134405714Y-96792142D01*
X134405714Y-96792142D02*
X134405714Y-96696904D01*
X134405714Y-96696904D02*
X134358095Y-96601666D01*
X134358095Y-96601666D02*
X134310476Y-96554047D01*
X134310476Y-96554047D02*
X134215238Y-96506428D01*
X134215238Y-96506428D02*
X134024762Y-96458809D01*
X134024762Y-96458809D02*
X133929524Y-96411190D01*
X133929524Y-96411190D02*
X133881905Y-96363571D01*
X133881905Y-96363571D02*
X133834286Y-96268333D01*
X133834286Y-96268333D02*
X133834286Y-96173095D01*
X133834286Y-96173095D02*
X133881905Y-96077857D01*
X133881905Y-96077857D02*
X133929524Y-96030238D01*
X133929524Y-96030238D02*
X134024762Y-95982619D01*
X134024762Y-95982619D02*
X134262857Y-95982619D01*
X134262857Y-95982619D02*
X134405714Y-96030238D01*
X135405714Y-96887380D02*
X135358095Y-96935000D01*
X135358095Y-96935000D02*
X135215238Y-96982619D01*
X135215238Y-96982619D02*
X135120000Y-96982619D01*
X135120000Y-96982619D02*
X134977143Y-96935000D01*
X134977143Y-96935000D02*
X134881905Y-96839761D01*
X134881905Y-96839761D02*
X134834286Y-96744523D01*
X134834286Y-96744523D02*
X134786667Y-96554047D01*
X134786667Y-96554047D02*
X134786667Y-96411190D01*
X134786667Y-96411190D02*
X134834286Y-96220714D01*
X134834286Y-96220714D02*
X134881905Y-96125476D01*
X134881905Y-96125476D02*
X134977143Y-96030238D01*
X134977143Y-96030238D02*
X135120000Y-95982619D01*
X135120000Y-95982619D02*
X135215238Y-95982619D01*
X135215238Y-95982619D02*
X135358095Y-96030238D01*
X135358095Y-96030238D02*
X135405714Y-96077857D01*
X156718095Y-93442619D02*
X157337142Y-93442619D01*
X157337142Y-93442619D02*
X157003809Y-93823571D01*
X157003809Y-93823571D02*
X157146666Y-93823571D01*
X157146666Y-93823571D02*
X157241904Y-93871190D01*
X157241904Y-93871190D02*
X157289523Y-93918809D01*
X157289523Y-93918809D02*
X157337142Y-94014047D01*
X157337142Y-94014047D02*
X157337142Y-94252142D01*
X157337142Y-94252142D02*
X157289523Y-94347380D01*
X157289523Y-94347380D02*
X157241904Y-94395000D01*
X157241904Y-94395000D02*
X157146666Y-94442619D01*
X157146666Y-94442619D02*
X156860952Y-94442619D01*
X156860952Y-94442619D02*
X156765714Y-94395000D01*
X156765714Y-94395000D02*
X156718095Y-94347380D01*
X157622857Y-93442619D02*
X157956190Y-94442619D01*
X157956190Y-94442619D02*
X158289523Y-93442619D01*
X156741905Y-104602619D02*
X156741905Y-103602619D01*
X156741905Y-103602619D02*
X156980000Y-103602619D01*
X156980000Y-103602619D02*
X157122857Y-103650238D01*
X157122857Y-103650238D02*
X157218095Y-103745476D01*
X157218095Y-103745476D02*
X157265714Y-103840714D01*
X157265714Y-103840714D02*
X157313333Y-104031190D01*
X157313333Y-104031190D02*
X157313333Y-104174047D01*
X157313333Y-104174047D02*
X157265714Y-104364523D01*
X157265714Y-104364523D02*
X157218095Y-104459761D01*
X157218095Y-104459761D02*
X157122857Y-104555000D01*
X157122857Y-104555000D02*
X156980000Y-104602619D01*
X156980000Y-104602619D02*
X156741905Y-104602619D01*
X157646667Y-103602619D02*
X158313333Y-103602619D01*
X158313333Y-103602619D02*
X157884762Y-104602619D01*
%TO.C,R1*%
X129382619Y-111926666D02*
X128906428Y-112259999D01*
X129382619Y-112498094D02*
X128382619Y-112498094D01*
X128382619Y-112498094D02*
X128382619Y-112117142D01*
X128382619Y-112117142D02*
X128430238Y-112021904D01*
X128430238Y-112021904D02*
X128477857Y-111974285D01*
X128477857Y-111974285D02*
X128573095Y-111926666D01*
X128573095Y-111926666D02*
X128715952Y-111926666D01*
X128715952Y-111926666D02*
X128811190Y-111974285D01*
X128811190Y-111974285D02*
X128858809Y-112021904D01*
X128858809Y-112021904D02*
X128906428Y-112117142D01*
X128906428Y-112117142D02*
X128906428Y-112498094D01*
X129382619Y-110974285D02*
X129382619Y-111545713D01*
X129382619Y-111259999D02*
X128382619Y-111259999D01*
X128382619Y-111259999D02*
X128525476Y-111355237D01*
X128525476Y-111355237D02*
X128620714Y-111450475D01*
X128620714Y-111450475D02*
X128668333Y-111545713D01*
%TO.C,U3*%
X126238095Y-98522619D02*
X126238095Y-99332142D01*
X126238095Y-99332142D02*
X126285714Y-99427380D01*
X126285714Y-99427380D02*
X126333333Y-99475000D01*
X126333333Y-99475000D02*
X126428571Y-99522619D01*
X126428571Y-99522619D02*
X126619047Y-99522619D01*
X126619047Y-99522619D02*
X126714285Y-99475000D01*
X126714285Y-99475000D02*
X126761904Y-99427380D01*
X126761904Y-99427380D02*
X126809523Y-99332142D01*
X126809523Y-99332142D02*
X126809523Y-98522619D01*
X127190476Y-98522619D02*
X127809523Y-98522619D01*
X127809523Y-98522619D02*
X127476190Y-98903571D01*
X127476190Y-98903571D02*
X127619047Y-98903571D01*
X127619047Y-98903571D02*
X127714285Y-98951190D01*
X127714285Y-98951190D02*
X127761904Y-98998809D01*
X127761904Y-98998809D02*
X127809523Y-99094047D01*
X127809523Y-99094047D02*
X127809523Y-99332142D01*
X127809523Y-99332142D02*
X127761904Y-99427380D01*
X127761904Y-99427380D02*
X127714285Y-99475000D01*
X127714285Y-99475000D02*
X127619047Y-99522619D01*
X127619047Y-99522619D02*
X127333333Y-99522619D01*
X127333333Y-99522619D02*
X127238095Y-99475000D01*
X127238095Y-99475000D02*
X127190476Y-99427380D01*
D14*
%TO.C,M1*%
X164040000Y-106890000D02*
X165100000Y-106890000D01*
X164040000Y-107950000D02*
X164040000Y-106890000D01*
X164040000Y-108950000D02*
X164040000Y-113010000D01*
X164040000Y-108950000D02*
X166160000Y-108950000D01*
X164040000Y-113010000D02*
X166160000Y-113010000D01*
X166160000Y-108950000D02*
X166160000Y-113010000D01*
D11*
%TO.C,U1*%
X130800000Y-71100000D02*
X130800000Y-128100000D01*
X130800000Y-128100000D02*
X161300000Y-128100000D01*
X131300000Y-71100000D02*
X130800000Y-71100000D01*
X161300000Y-71100000D02*
X131300000Y-71100000D01*
X161300000Y-128100000D02*
X161300000Y-71100000D01*
D14*
%TO.C,R1*%
X127920000Y-109840000D02*
X127920000Y-113680000D01*
X126080000Y-109840000D02*
X126080000Y-113680000D01*
%TD*%
D15*
%TO.C,U1*%
X132080000Y-81280000D03*
X132080000Y-83820000D03*
X132080000Y-86360000D03*
X132080000Y-88900000D03*
X132080000Y-91440000D03*
X132080000Y-93980000D03*
X132080000Y-96520000D03*
X132080000Y-99060000D03*
X132080000Y-101600000D03*
X132080000Y-104140000D03*
X132080000Y-106680000D03*
X132080000Y-109220000D03*
X132080000Y-111760000D03*
X132080000Y-114300000D03*
X132080000Y-116840000D03*
X160020000Y-116840000D03*
X160020000Y-114300000D03*
X160020000Y-111760000D03*
X160020000Y-109220000D03*
X160020000Y-106680000D03*
X160020000Y-104140000D03*
X160020000Y-101600000D03*
X160020000Y-99060000D03*
X160020000Y-96520000D03*
X160020000Y-93980000D03*
X160020000Y-91440000D03*
X160020000Y-88900000D03*
X160020000Y-86360000D03*
X160020000Y-83820000D03*
X160020000Y-81280000D03*
%TD*%
M02*
